<svg id="Layer_1" xmlns="http://www.w3.org/2000/svg" xmlns:xlink="http://www.w3.org/1999/xlink" viewBox="0 0 307.7 115.8"><style>.st0{clip-path:url(#SVGID_2_)}</style><defs><path id="SVGID_1_" d="M0 0h307.7v115.8H0z"/></defs><clipPath id="SVGID_2_"><use xlink:href="#SVGID_1_" overflow="visible"/></clipPath><path class="st0" d="M36.4 55.8l-3.2-9.6H15.4l-3.1 9.6H.4L17.8 4.1h13.5l18.1 51.6h-13zm-9.8-29.3c-1-2.9-1.8-5.5-2.4-8.6H24c-.5 2.8-1.4 6-2.4 9.2l-3.4 9.7h11.9l-3.5-10.3zm60.1 29.3l-3.2-9.6H65.7l-3.1 9.6H50.7L68.1 4.1h13.5l18.1 51.6h-13zm-9.8-29.3c-1-2.9-1.8-5.5-2.4-8.6h-.2c-.5 2.8-1.4 6-2.4 9.2l-3.4 9.7h11.9l-3.5-10.3zm43.9-12.2v41.5h-11.9V14.3H96.5V4.1h36.7v10.2z"/><path d="M164 55.8l-14-24.3v24.3h-11.9V4.1H150v22.8l14.2-22.8h14.4l-17 24.9 17.9 26.8zm24.6-42c-3.9 0-7.1-3.1-7.1-6.9 0-3.8 3.2-6.9 7.1-6.9 4 0 7.2 3.1 7.2 6.9-.1 3.7-3.3 6.9-7.2 6.9m-5.9 3.9h11.6v38h-11.6v-38zm42 38.1V31.6c0-3.1-.8-4.9-3.5-4.9-4.1 0-7.6 5-7.6 10.6v18.4H202v-38h10.9c0 1.4-.1 4.1-.5 6h.1c2.4-3.9 6.6-6.8 12.6-6.8 8.5 0 11.2 5.4 11.2 12v26.9h-11.6zm32 19c-10.3 0-16.5-3.7-16.5-11.2 0-3.6 2.5-7.3 5.4-8.8-2.2-1.1-3.7-3.2-3.7-5.9 0-2.9 1.9-5.9 4.6-6.8-3.7-1.8-5.6-5.8-5.6-10.4 0-8 6-14.8 17.5-14.8 2.7 0 5 .4 7.1.9h12.8V27h-4.1c.5.8 1 2 1 3.6 0 8.4-6.1 13.6-16.4 13.6-1.1 0-2.2-.1-3.1-.2-1 .4-1.4 1.2-1.4 1.9 0 1.5 1.1 2 5.4 2h5.2c8.2 0 13 3.7 13 11.3.1 8.3-8 15.6-21.2 15.6m5-17.9h-6c-.5 0-1.1 0-1.5-.1-1.7 1.1-2.5 2.8-2.5 4.4 0 2.9 2.4 4.7 6.7 4.7 5.4 0 8.2-2.3 8.2-5.2 0-2-1.4-3.8-4.9-3.8m-3.6-31.7c-3.7 0-6 2.3-6 5.5 0 3.4 2.1 5.6 6.2 5.6 3.5 0 5.9-2.1 5.9-5.5-.1-3.4-2.4-5.6-6.1-5.6m32.1 31.4c-2.7 0-5.4-.3-7.9-.6l.2-9.5c2.3.7 5.2 1.2 8 1.2 3 0 4.8-1.2 4.8-3 0-5.6-14-2.6-14-15.2 0-6.9 5.6-12.7 16.8-12.7 2.1 0 4.5.3 6.7.6l-.2 9.1c-2-.6-4.4-.9-6.7-.9-3 0-4.4 1.1-4.4 2.9 0 4.7 14.2 3.3 14.2 15.2 0 7.9-6.8 12.9-17.5 12.9" fill="#d50911" clip-path="url(#SVGID_2_)"/><path class="st0" d="M2.4 72.6H.1v-9.1h2.7c2 0 3 .8 3 2.2 0 1-.6 1.8-1.6 2.1 1.2.1 1.8 1.1 1.8 2 0 1.1-.7 2.8-3.6 2.8m.2-8.2H1.4v2.9h.8c1.5 0 2.3-.6 2.3-1.6 0-.7-.4-1.3-1.9-1.3m-.4 3.9h-.9v3.2c.2 0 .6.1 1.2.1 1.5 0 2.1-.7 2.1-1.7.1-1.2-1-1.6-2.4-1.6m8.9-1.4c-1.4-.2-2.1.8-2.1 2.9v2.7H7.8v-6.7H9c0 .4 0 1-.1 1.6.3-.9 1-1.9 2.3-1.7l-.1 1.2zm2.1-2.2c-.4 0-.8-.4-.8-.8s.4-.8.8-.8.8.3.8.8-.3.8-.8.8m-.6 1.1h1.2v6.7h-1.2v-6.7zm7.8 6.8v-4.3c0-.9-.3-1.5-1.1-1.5-1.1 0-1.9 1.1-1.9 2.6v3.2h-1.2v-6.7h1.2c0 .4 0 1-.1 1.4.4-.9 1.2-1.6 2.4-1.6 1.5 0 2 1 2 2.1v4.7h-1.3zm5.8 3.4c-1.7 0-2.8-.7-2.8-2 0-.8.5-1.4 1.1-1.7-.4-.2-.7-.5-.7-1s.3-.9.8-1.1c-.7-.4-1-1.1-1-1.9 0-1.4 1.1-2.6 2.9-2.6.4 0 .7 0 1.1.1h2.3v1h-1.1c.4.3.6.7.6 1.3 0 1.4-1 2.5-2.9 2.5-.3 0-.6 0-.9-.1-.3.1-.4.3-.4.6 0 .4.3.5 1.1.5h1.2c1.5 0 2.3.7 2.3 1.9-.1 1.4-1.5 2.5-3.6 2.5m.9-3.4h-1.7c-.5.3-.9.7-.9 1.2 0 .8.8 1.2 1.8 1.2 1.4 0 2.2-.6 2.2-1.4 0-.6-.4-1-1.4-1m-.7-6c-1.1 0-1.7.7-1.7 1.6 0 1 .6 1.5 1.7 1.5 1 0 1.7-.6 1.7-1.5 0-1-.6-1.6-1.7-1.6m5.7-1.9c-.4 0-.8-.4-.8-.8s.4-.8.8-.8.8.3.8.8-.4.8-.8.8m-.6 1.1h1.2v6.7h-1.2v-6.7zm7.7 6.8v-4.3c0-.9-.3-1.5-1.1-1.5-1.1 0-1.9 1.1-1.9 2.6v3.2H35v-6.7h1.2c0 .4 0 1-.1 1.4.4-.9 1.2-1.6 2.4-1.6 1.5 0 2 1 2 2.1v4.7h-1.3zM45 76c-1.7 0-2.8-.7-2.8-2 0-.8.5-1.4 1.1-1.7-.4-.2-.7-.5-.7-1s.3-.9.8-1.1c-.7-.4-1-1.1-1-1.9 0-1.4 1.1-2.6 2.9-2.6.4 0 .7 0 1.1.1h2.3v1h-1.1c.4.3.6.7.6 1.3 0 1.4-1 2.5-2.9 2.5-.3 0-.6 0-.9-.1-.3.1-.4.3-.4.6 0 .4.3.5 1.1.5h1.2c1.5 0 2.3.7 2.3 1.9-.1 1.4-1.5 2.5-3.6 2.5m.9-3.4h-1.7c-.5.3-.9.7-.9 1.2 0 .8.8 1.2 1.8 1.2 1.4 0 2.2-.6 2.2-1.4 0-.6-.4-1-1.4-1m-.6-6c-1.1 0-1.7.7-1.7 1.6 0 1 .6 1.5 1.7 1.5 1 0 1.7-.6 1.7-1.5-.1-1-.7-1.6-1.7-1.6m14.1 6l-.8-2.1h-3.9l-.7 2.1h-1.3l3.3-9.1h1.4l3.3 9.1h-1.3zm-2.3-6.4c-.2-.5-.3-.9-.4-1.4-.1.4-.2.9-.4 1.4l-1.2 3.2h3.2l-1.2-3.2zm9.3 6.4c0-.4 0-1 .1-1.4-.4.9-1.2 1.6-2.4 1.6-1.5 0-2-1-2-2.1V66h1.2v4.3c0 .9.3 1.5 1.1 1.5 1.1 0 1.9-1.1 1.9-2.6V66h1.2v6.7h-1.1zm4.5.1c-.5 0-1 0-1.4-.1v-1.1c.4.1 1 .2 1.5.2.9 0 1.5-.4 1.5-1 0-1.5-3.1-.6-3.1-2.9 0-1.1.9-2 2.7-2 .4 0 .9.1 1.3.1v1c-.4-.1-.9-.2-1.4-.2-.9 0-1.3.4-1.3 1 0 1.5 3.1.7 3.1 2.9 0 1.2-1.1 2.1-2.9 2.1m6.8 0c-1.4 0-1.8-.6-1.8-2v-3.9h-1.4v-.9h1.4v-2.2l1.2-.3v2.5H79v.9h-1.9v3.4c0 1.1.2 1.4 1 1.4.3 0 .6-.1.9-.1v1c-.4.1-.9.2-1.3.2m6.2-5.8c-1.4-.2-2.1.8-2.1 2.9v2.7h-1.2v-6.7h1.2c0 .4 0 1-.1 1.6.3-.9 1-1.9 2.3-1.7l-.1 1.2zm5.1 5.7c0-.5 0-1 .1-1.3-.3.8-1.2 1.5-2.3 1.5-1.1 0-1.9-.6-1.9-1.7 0-1.5 1.5-2.4 4-2.4v-.5c0-.9-.4-1.4-1.5-1.4-.6 0-1.4.2-2 .6l-.1-1c.6-.3 1.5-.5 2.4-.5 1.9 0 2.5.9 2.5 2.2v4.6H89zm-.1-3.1c-2.3 0-2.8.7-2.8 1.3 0 .6.4.9 1 .9 1.1 0 1.8-1.1 1.8-2.1v-.1zm3.6-6.8h1.2v9.9h-1.2zm4.1 2c-.4 0-.8-.4-.8-.8s.4-.8.8-.8.8.3.8.8-.3.8-.8.8m-.6 1.1h1.2v6.7H96v-6.7zm7.1 6.8c0-.5 0-1 .1-1.3-.3.8-1.2 1.5-2.3 1.5-1.1 0-1.9-.6-1.9-1.7 0-1.5 1.5-2.4 4-2.4v-.5c0-.9-.4-1.4-1.5-1.4-.6 0-1.4.2-2 .6l-.1-1c.6-.3 1.5-.5 2.4-.5 1.9 0 2.5.9 2.5 2.2v4.6h-1.2zm-.1-3.1c-2.3 0-2.8.7-2.8 1.3 0 .6.4.9 1 .9 1.1 0 1.8-1.1 1.8-2.1v-.1zm14.9 3.3c-.6-.4-1.4-1-1.9-1.4-.9.8-2.1 1.3-3.6 1.3-1.9 0-3-1.1-3-2.6 0-1.2.8-2.1 1.9-3-.9-1.1-1.3-1.7-1.3-2.5 0-1.1.9-2.1 2.4-2.1 1.4 0 2.2.8 2.2 1.8 0 .9-.5 1.7-1.7 2.7.8.8 1.9 1.9 3 2.8.6-.8 1-2 .9-3.4h1.2c0 1.5-.4 3-1.2 4 .7.5 1.4 1 1.9 1.4l-.8 1zm-5.9-5c-.9.8-1.3 1.4-1.3 2.1 0 1 .7 1.8 1.9 1.8 1.1 0 1.9-.4 2.5-.9-1.1-1-2.4-2.2-3.1-3m.3-4.3c-.6 0-1.1.4-1.1 1.1 0 .4.3 1 1 1.8.8-.6 1.2-1.2 1.2-1.9 0-.5-.3-1-1.1-1m16.8 9.1l-3.5-5.6c-.4-.7-.7-1.3-1-1.9.1 1 .1 3.2.1 4.6v2.9h-1.2v-9.1h1.6l3.4 5.5c.4.7.8 1.3 1.1 2-.1-1.1-.1-3.4-.1-4.9v-2.6h1.2v9.1h-1.6zm9-3.5h-4.4c-.1 1.8.7 2.6 2.1 2.6.7 0 1.4-.2 2-.4l.1 1c-.6.3-1.4.4-2.3.4-2.1 0-3.2-1.1-3.2-3.4 0-2 1.1-3.5 3-3.5s2.7 1.3 2.7 2.8c.1.1 0 .3 0 .5m-2.7-2.5c-.9 0-1.5.7-1.6 1.6h3.1c0-.9-.5-1.6-1.5-1.6m11.7 6h-1.4l-1.3-4c-.1-.4-.3-.9-.4-1.3-.1.6-.3 1.1-.5 1.7l-1.1 3.6h-1.3l-2.1-6.7h1.3l1 3.6c.2.6.4 1.2.5 1.8.1-.6.3-1.2.5-1.7l1.1-3.6h1.3l1.2 3.6c.3.8.4 1.3.5 1.8.1-.6.3-1.1.5-1.7l1.1-3.6h1.3l-2.2 6.5zm6 0v-.9l3.8-6c.3-.4.5-.7.7-1.1h-4.4v-1.1h5.9v.9l-4 6.3c-.2.3-.4.5-.5.8h4.6v1.1h-6.1zm12.9-3.5h-4.4c-.1 1.8.7 2.6 2.1 2.6.7 0 1.4-.2 2-.4l.1 1c-.6.3-1.4.4-2.3.4-2.1 0-3.2-1.1-3.2-3.4 0-2 1.1-3.5 3-3.5s2.7 1.3 2.7 2.8v.5m-2.7-2.5c-.9 0-1.5.7-1.6 1.6h3.1c0-.9-.6-1.6-1.5-1.6m8.1 6c0-.5 0-1 .1-1.3-.3.8-1.2 1.5-2.3 1.5-1.1 0-1.9-.6-1.9-1.7 0-1.5 1.5-2.4 4-2.4v-.5c0-.9-.4-1.4-1.5-1.4-.6 0-1.4.2-2 .6l-.1-1c.6-.3 1.5-.5 2.3-.5 1.9 0 2.5.9 2.5 2.2v4.6h-1.1zm-.1-3.1c-2.3 0-2.8.7-2.8 1.3 0 .6.4.9 1 .9 1.1 0 1.8-1.1 1.8-2.1v-.1zm3.5-6.8h1.2v9.9h-1.2zm7.1 9.9c0-.5 0-1 .1-1.3-.3.8-1.2 1.5-2.3 1.5-1.1 0-1.9-.6-1.9-1.7 0-1.5 1.5-2.4 4-2.4v-.5c0-.9-.4-1.4-1.5-1.4-.6 0-1.4.2-2 .6l-.1-1c.6-.3 1.5-.5 2.3-.5 1.9 0 2.5.9 2.5 2.2v4.6h-1.1zm0-3.1c-2.3 0-2.8.7-2.8 1.3 0 .6.4.9 1 .9 1.1 0 1.8-1.1 1.8-2.1v-.1zm7.8 3.1v-4.3c0-.9-.3-1.5-1.1-1.5-1.1 0-1.9 1.1-1.9 2.6v3.2h-1.2v-6.7h1.2c0 .4 0 1-.1 1.4.4-.9 1.2-1.6 2.4-1.6 1.5 0 2 1 2 2.1v4.7h-1.3zm7.5 0c0-.4 0-1 .1-1.4-.4.9-1.2 1.5-2.3 1.5-1.6 0-2.5-1.2-2.5-3.2 0-2.3 1.3-3.8 3.5-3.8.4 0 .7 0 1.1.1v-3.1h1.2v9.9h-1.1zm0-5.7c-.4-.1-.8-.1-1.2-.1-1.3 0-2.1.8-2.1 2.7 0 1.4.5 2.3 1.5 2.3 1.2 0 1.8-1.4 1.8-2.6v-2.3zm8.5 5.8c-1.4 0-1.8-.6-1.8-2v-3.9h-1.4v-.9h1.4v-2.2l1.2-.3v2.5h1.9v.9h-1.9v3.4c0 1.1.2 1.4 1 1.4.3 0 .6-.1.9-.1v1c-.4.1-.8.2-1.3.2m5.4 0c-1.8 0-3-1.1-3-3.4 0-2 1.2-3.5 3.3-3.5 1.7 0 3 .9 3 3.4-.1 1.9-1.3 3.5-3.3 3.5m.1-6c-1 0-1.9.7-1.9 2.4 0 1.6.7 2.5 1.9 2.5 1 0 1.9-.8 1.9-2.5 0-1.5-.6-2.4-1.9-2.4m7.5-4h1.2v9.9h-1.2zm4.2 2c-.4 0-.8-.4-.8-.8s.4-.8.8-.8.8.3.8.8-.4.8-.8.8m-.6 1.1h1.2v6.7h-1.2v-6.7zm7.4-2.1c-.3-.1-.7-.1-1-.1-1 0-1.4.5-1.4 1.7v.5h1.9v.9h-1.9v5.8h-1.2v-5.8h-1.4v-.9h1.4v-.5c0-1.9.9-2.7 2.6-2.7.4 0 .7 0 1.1.1l-.1 1zm5.9 5.4h-4.4c-.1 1.8.7 2.6 2.1 2.6.7 0 1.4-.2 2-.4l.1 1c-.6.3-1.4.4-2.3.4-2.1 0-3.2-1.1-3.2-3.4 0-2 1.1-3.5 3-3.5s2.7 1.3 2.7 2.8v.5m-2.7-2.5c-.9 0-1.5.7-1.6 1.6h3.1c0-.9-.6-1.6-1.5-1.6M0 79s.7 17.7 17.9 25.9c47.7 22.7 169.1 8.1 218-25.8-7.3 5.1-115.5 42.7-235.9-.1"/></svg>