<svg xmlns="http://www.w3.org/2000/svg" xmlns:xlink="http://www.w3.org/1999/xlink" viewBox="0 0 109.8 109.8"><defs><path id="a" transform="rotate(-45.001 54.889 54.89)" d="M15.9 16.3H94v77.2H15.9z"/></defs><clipPath id="b"><use xlink:href="#a" overflow="visible"/></clipPath><path d="M107.9 55.3c0-1.4-1.1-2.5-2.5-2.5l-47.7-.1.1-49.1c0-1.4-1.1-2.5-2.5-2.5s-2.5 1.1-2.5 2.5l-.1 49.1H3.5c-1.4 0-2.5 1.1-2.5 2.5 0 .7.3 1.3.8 1.8s1.1.8 1.8.8h49.2v47.7c0 .7.3 1.3.8 1.8s1.1.8 1.8.8c1.4 0 2.5-1.1 2.5-2.5l-.1-47.7h47.7c1.2-.2 2.4-1.3 2.4-2.6" clip-path="url(#b)" fill="#da1f26"/></svg>