<svg xmlns="http://www.w3.org/2000/svg" viewBox="0 0 500 500"><path fill="#fff" d="M206.8 237.6l-.5-118.3m85.7 11.3l.2 105.9"/><path fill="#2c3437" d="M350.8 381.4c-3.5 0-6.3-1.8-8.8-3.3-1.9-1.2-3.8-2.3-5.8-2.7-2.4-.5-4.2-.6-5.8-.7-3.9-.2-6.8-.4-11.2-5.5-2.5-2.9-3.5-8-4.7-13.4-1.1-5.4-2.4-11.4-5.1-13.6 0 .1-.1.3-.1.4-.7 3.1-1.5 6.7-4.2 7.2-.2 0-.4.1-.6.1-2.1 0-3.7-2.1-4.2-2.9-1.4-1.9 0-3.8 1-5 .5-.6 1.1-1.4 1.2-1.9.2-1 .3-2 .2-2.9v-.3c.1-.9-.4-1.8-1.1-2.4 0 0-.1-.1-.2-.1.4 1 .6 2.3-.1 3.6l-.2.3c-.6.8-1.5 1.4-2.5 1.8l-.2.1c-2 .7-4.3 1.5-6.3 1.5-1 0-1.8-.2-2.4-.6-.9-.5-1.4-1.4-1.5-2.5-.2-2.1 1.7-2.9 2.5-3.2.3-.1.5-.2.6-.2.2-.3.5-.8.7-1.3.4-1.2.8-2.7 1.1-4.7.1-.8.3-1.7.3-2.5v-.3c.7-2.6 1-5.4.9-9 0-1 0-2-.1-3-.1-.6-.2-1.3-.3-1.9-.1.2-.1.5-.1.7-.2 1.1-.5 2-.8 2.9-1 3-2.7 5.5-4.9 7.4-.6.6-1.4 1.3-2.1 1.9l-1.2 1.2c-.9 1.1-1.9 3-2.8 5-1.6 3.4-3.4 7.2-6.4 7.2-.5 0-1-.1-1.5-.3l-.8-.3-.3-.8c-.8-2.2-1.5-4.4-2.1-6.5-1.1-3.5-2-6.8-3.7-9.8-.7-1.3-.4-2.8-.2-4.1.1-.8.2-1.3.2-1.5H266c-.4 0-.8.1-1.2.1-1 0-2.5-.2-3.6-1.5-1.5-1.7-1.8-3.5-2.1-5.1-.3-1.5-.5-2.8-1.7-3.9-1.4-1.3-5.8-1.8-9.3-2.2-3.3-.4-6.3-.7-8.4-1.6-5.6-2.6-9.9-4.4-15.5-4.4-1.3 0-2.7.1-4.2.3-4.9.7-8.6 2.6-12.6 4.7-1.5.8-3.2 1.7-4.9 2.5-3.6 1.6-7.4 2.2-11.1 2.7-3.2.4-6.2.9-9 1.9-11.5 4.4-15.9 11.4-20.6 23.4l-.4.9-.9.3c-2.7.8-5.5 1.2-9.2 1.2-1.6 0-3.2-.1-4.7-.1-1.5-.1-3.1-.1-4.6-.1-2.5 0-5.7.1-8.8 1.3-4.2 1.5-7.6 4.4-11.3 7.5-3.5 2.9-7.1 6-11.6 7.8-3 1.3-6.9 2-10.4 2-2.3 0-4.4-.3-6.3-1-2.4-.8-4.1-2.2-5.6-3.5-1.8-1.5-3.3-2.7-5.4-2.7-.4 0-.7 0-1.1.1l-2.2.4-.1-2.2c-.2-4.5.1-8 .4-11.4.4-4.8.8-8.9-.5-14.8-.4-1.9-.6-3.7-.8-5.4-.3-3-.6-5.8-2.1-8.3-.8-1.3-1.6-2.4-2.2-3.4-1.9-2.9-3.4-5.1-4.9-9.3-2.7-7.6-5.6-13-9.7-20.5-1.3-2.5-4.8-4.7-7.9-6.6-3.9-2.5-7.3-4.7-7.9-7.8-.3-1.4.1-2.8 1-4.2.6-.9 1.2-1.7 1.8-2.6 2.8-3.9 5.4-7.6 4.8-9.2-.1-.4-.8-1.2-3.3-1.9l-1.4-.4-.1-1.4c-.1-1.3-.7-2-1.8-3s-2.4-2.3-2.8-4.4c-.5-2.5.2-4.4.7-5.9.3-.8.5-1.5.6-2.1.1-1.8-.1-4.4-.4-6.9-.5-5.8-1-10.8 1.6-12.8.6-.5 1.4-.8 2.3-.8.6 0 1.2.1 1.8.3.5.2 1.1.5 1.4 1.9 1.4-1.6 3.2-3.7 5.5-6.5.3-.4.5-.6.6-.7 4.5-5.3 10.5-7.8 18-10.1 3.3-1 6.2-2.5 9-4 2.6-1.4 5.2-2.8 8.2-3.8.7-.2 1.4-.3 2.3-.3 1 0 1.9.1 2.8.3.8.1 1.6.2 2.3.2.4 0 .7 0 1-.1 1.8-.5 3.3-1.8 5-3.1 1.7-1.3 3.4-2.7 5.6-3.6 2.8-1.1 4.6-1.4 5.7-1.6 1.5-.3 1.6-.3 4.2-4.2.6-.9 1-1.8 1.4-2.6 1.1-2.2 2.2-4.5 5.7-6.2 0-1.7-.9-3-2.8-4l-1.9-1 1.2-1.8c.9-1.4 1.7-3.8 2.4-6.2 1.5-4.8 3.3-10.8 7.9-10.8.5 0 1.1.1 1.6.2 3.5 1 5.5 4.9 6.7 8.9-.2-2.7-.3-5.1.1-6.6.2-1 1-2.2 3.2-2.2.7 0 1.4.1 2 .2-.1-2.5-.1-9.3 3.5-12.9 1-1 2.7-2.1 5.2-2.1h.2c1.8-7 9.7-13.5 14.6-15.3l1.1-.4c2.4-.9 3.6-1.3 4.4-1.3.5 0 .9.1 1.3.4 1 .7 1 1.8 1 2.3 0 .6 0 1.3 1.4 2.5.3.3 1.9.9 2.9 1.2 2.5.9 5.1 1.8 6.4 3.5 1.6 2 1 4.7.6 7-.1.5-.3 1.6-.3 2.2 1.4.2 2.6.2 3.7.2 3.5 0 5-.8 6.6-1.7 1.5-.8 3.1-1.8 6.1-2-.1-.4-.4-.6-1-.9-.8-.4-2.2-1-2.4-2.7-.6-4.7-.7-6.9 1.2-11.6.8-1.9 1.7-3.4 2.7-4.9 1.8-2.9 3.4-5.4 2.9-10l-.2-1.8 1.7-.4c.3-.1.7-.1 1-.2.4-.1 1.1-.2 1.7-.4-.6-.1-1.3-.1-1.7-.1-1.5-.1-3.1-.2-4.5-.7l-1-.3-.3-1c-1.5-5 .3-7.6 2-8.8 1.4-1 3.4-1.6 5.8-1.6 3.8 0 8 1.3 9.9 2.6 2.6 1.8 2.1 4.9 1.7 7-.1.7-.4 2.4-.1 2.5 1.3.6 3 .9 4.6.9 1.5 0 2.8-.3 3.5-.9.2-.2.5-.5.5-1-2.1-.4-4.9-1.6-6.2-4-1.1-2-.9-4.1.6-6.1 1.1-1.5 2.4-1.9 3.3-2h.4c2.7 0 5.2 2.3 7.3 4.3.7.7 1.4 1.3 1.9 1.7 4.5 3.3 10.3 4.9 17.6 4.9 4.7 0 9.4-.7 12.5-1.2.6-.1 1.1-.2 1.7-.3 1.3-.3 2.7-.5 4.1-.5 1.7 0 3.2.4 4.6 1.3 2.6 1.6 4 3.3 4.2 5.3.4 3.1-2.2 5.6-5.1 8.5-.9.9-1.8 1.8-2.7 2.8-1.3 1.4-2.6 1.8-3.4 2.1-.7.2-.9.3-1.2 1 0 .5.3 1.5.4 2 .4 2 .7 3.4.5 4.5-.3 2.4-1.4 3.9-2.2 5-1.1 1.5-1.4 2 .1 4.4.8 1.2 5.1 3.7 7.6 5.2 1.5.9 2.9 1.7 3.9 2.4 2.6 1.8 5.5 2.9 8.2 4 1.5.6 3 1.2 4.5 1.9 3.3 1.6 5.2 3.6 7 5.5.9 1 1.7 1.9 2.7 2.7 5.2 4.2 9.6 5.7 16.7 5.7h1.5c.4-6.2 1.3-9 4.4-15.3 2.8-5.5 2.1-11.1 1.4-17.1-.4-3.3-.8-6.8-.7-10.4l.1-1.4 1.4-.4c2.6-.8 2.6-2.3 1.2-7.1-.5-1.9-1-3.7-.9-5.3.3-3.7 3.6-11.8 5.2-14.8 2.1-3.8 3.7-6.1 6.1-6.1h.2c2.3.1 3.8 2.4 5.4 6 .6 1.4.8 2.9 1.1 4.4.2 1.2.3 2.2.7 3.1.4 1.1 1.3 2.2 2.1 3.2.9 1.2 1.8 2.3 2.2 3.6.9 2.7.9 5.6 1 8.4.1 3 .1 5.8 1.1 8.1 1.8 4.3 3.1 4.4 5.9 4.6 2 .1 4.5.3 7.6 2 6.2 3.5 6.7 9.7 7.1 15.2.1 1.8.2 3.5.5 5 .7 3.8 1.7 7.5 2.7 11.1 1 3.7 2.1 7.5 2.8 11.6 1 5.1 1.9 5.5 5.5 6.9 1.1.4 2.4.9 3.9 1.6 3.2 1.5 12.3 6.2 16 9.4 2.8 2.4 4 5.6 5.1 8.4.6 1.4 1.1 2.8 1.7 3.7 1.8 2.5 1.8 5.2 1.8 7.6 0 2.4 0 4.2 1.6 5.9.1.1.3.2.7.2.9 0 2.1-.4 3.4-1l1.4-.7 1 1.2c1.8 2.2 3 4.6 4.3 7.3 1.3 2.7 2.8 5.7 5.2 9.2 2 2.8 4.2 4.9 6.3 7 2.4 2.3 4.7 4.5 6.3 7.3.7 1.3 1.4 2.1 2 2.9 1.3 1.7 2.4 3.1 3.1 6.8.4 2.2.2 4.4 0 6.5-.2 1.9-.3 3.7 0 5.3.4 2.2 1.2 4.4 2.1 6.7 1.8 4.7 3.6 9.6 2.1 15.6-.6 2.6-1.9 4.4-3.2 6-.8 1.1-1.6 2.1-2.2 3.5-1.4 3.1-1.9 5.6-2.6 9l-.3 1.6c-2.1 9.4-7.1 16.2-12.5 23.5-2.9 3.9-5.9 7.9-8.4 12.4-1.5 2.7-2.7 5.8-3.9 8.8-1.3 3.3-2.5 6.4-4.1 9.1l-1.1 1.9c-2.3 3.8-4.4 7.4-6.4 11.3-.3.7-.5 1.6-.7 2.5-.2 1.2-.5 2.6-1.2 3.9-.7 1.3-1.7 1.9-2.5 2.2.8.6 1.4 1.6 1.4 2.7 0 1.5-.9 2.9-2.4 3.3l-.3.1h-1.1c-1.7 0-3.3-.2-4.8-.4-1.4-.2-2.7-.4-3.9-.4-1.4 0-2.6.3-3.6.8-1.9 1.1-3.1 2.1-4.2 3.1-2.4 2.1-4.4 4-10.6 4-2.3 0-5.3-.9-8.8-2-3.4-1-7.7-2.3-10.8-2.3-1.3 0-2.3.2-3 .7-.8.6-1.3 1.6-1.4 3.2l-.1 1.4-1.4.4c-.1.6-1 .7-1.9.7zm-22.2-10.8c.6.1 1.2.1 2 .1 1.6.1 3.7.2 6.3.7 2.8.5 5 1.9 7.1 3.3 2.3 1.5 4.4 2.7 6.7 2.7h.5c.4-2.1 1.4-3.6 2.9-4.7 1.4-.9 3.1-1.4 5.3-1.4 3.7 0 8 1.3 11.9 2.5 3 .9 5.9 1.8 7.6 1.8 4.7 0 5.9-1 8-2.9 1.2-1.1 2.6-2.4 4.9-3.6 1.6-.9 3.4-1.3 5.5-1.3 1.5 0 3 .2 4.4.4.6.1 1.2.2 1.8.2l-.1-.7-.4-.4c-.9-.9-1.7-1.9-2.9-2.6-.4-.3-.8-.5-1.3-.8l-.2-.2c-.7-.9-1.4-1.6-2.2-2.3-.4-.3-.8-.6-1.1-.9-5.3-2.9-10.4-4.8-16.1-6.1-.6-.1-1.3-.2-2-.3l-3-.3c-3.3-.4-6.7-.7-9.9-1.6-1.5-.3-3-.8-4.5-1.4-4.4-1.6-8.1-3.7-12.2-6-3.2-1.8-5.4-3.5-7.5-5.1-3.1-2.3-6.1-4.5-11.6-6.9v37.8zm-20.2-33.1c.2 0 .5 0 .7.1 6 1.5 7.7 9.6 9.3 17.4 1 4.7 2 9.5 3.8 11.6 2 2.3 3.3 3.2 4.5 3.6V237.5h-119v60c3.6-1.8 7.3-3.5 12-4.2 1.6-.2 3.2-.3 4.7-.3 6.4 0 11.4 2.1 17.2 4.7 1.5.7 4.4 1 7.2 1.3 4.5.5 9.2 1 11.6 3.2 2.2 2 2.6 4.3 2.9 6.1.2 1.3.4 2.3 1.1 3.2.1.1.3.1.6.1h.9c.3 0 .7-.1 1.1-.1 1.7 0 2.9.6 3.7 1.8 1 1.4.7 3.1.4 4.5-.2.8-.2 1.3-.2 1.5 1.8 3.4 2.9 7 3.9 10.5.4 1.5.9 3 1.4 4.4.8-1.1 1.8-3.3 2.2-4.2 1-2.2 2.1-4.4 3.4-5.9.5-.5.9-1 1.5-1.5l.1-.1c.7-.6 1.4-1.1 1.9-1.7l.1-.1c1.7-1.5 3-3.4 3.8-5.8.3-.7.5-1.5.6-2.3 0-.3.1-.6.2-1 .1-.5.2-1 .2-1.3-.1-1.9-.4-3.9-.7-5.4-.2-.9-.4-1.9-.6-2.8-.2-1-.6-2.3-1-3.6-1.3-4.4-2.7-8.9-.8-11.4.5-.7 1.5-1.6 3.4-1.6 6.2 0 6.4 7.7 6.5 13.3 0 1.6.1 3 .2 4.2.1.9.1 1.7.2 2.5v.4c.2 2.8.3 5.5.8 7.9v.2c.1 1.1.1 2.2.1 3.3.1 3.9-.3 7-1 9.9-.1.8-.2 1.7-.4 2.6-.1.4-.1.8-.2 1.1.1-.1.2-.2.3-.4l.4-.4.5-.1c.6-.2 1.1-.2 1.7-.2 1.5 0 3 .5 4.2 1.5 1.7 1.4 2.7 3.6 2.6 5.7v1.1c.2-.2.4-.4.8-.5.5-.1.8-.1 1.2-.1zm91.8 24.6c.4.2.8.5 1.2.7 1 .6 1.7 1.3 2.5 2.1.5-1.5 1.7-2 2.8-2.2.6-.1.6-.1.7-.4.4-.8.6-1.7.8-2.7.2-1.2.4-2.4 1-3.6 2-4.1 4.2-7.7 6.5-11.6l1.1-1.9c1.5-2.5 2.6-5.4 3.8-8.6 1.2-3.1 2.5-6.3 4.1-9.3 2.6-4.7 5.7-8.8 8.6-12.8 5.1-6.9 9.9-13.4 11.8-21.9l.3-1.6c.7-3.5 1.3-6.3 2.9-9.7.8-1.7 1.7-3 2.7-4.3 1.1-1.5 2-2.7 2.5-4.6.1-.2.1-.5.2-.7l-125-3.9v65.3c6.3 2.6 9.4 5 12.8 7.5 2.1 1.6 4.3 3.2 7.3 5 4 2.3 7.7 4.4 11.9 5.9 1.5.5 2.9 1 4.3 1.3 3 .8 6.4 1.2 9.6 1.5 1.1.1 2.1.2 3.1.4l2.1.3c5.9 1.3 11.3 3.3 16.8 6.4.5.4 1 .7 1.4 1.1.7.7 1.5 1.5 2.2 2.3zm-316.6-20c3.3.2 5.5 2 7.5 3.6 1.4 1.1 2.7 2.2 4.4 2.8 1.4.5 3.1.7 4.9.7 3 0 6.3-.6 8.9-1.7 3.9-1.6 7.1-4.3 10.5-7.2 3.8-3.1 7.6-6.4 12.5-8.2 3.7-1.4 7.4-1.5 10.2-1.5 1.6 0 3.1.1 4.7.1 1.5.1 3.1.1 4.6.1 2.9 0 5.1-.2 7.1-.8 3.9-10 8.7-19.4 22.5-24.8 3.2-1.2 6.6-1.7 9.9-2.2 3.6-.5 6.9-1 9.9-2.4 1.7-.8 3.2-1.6 4.7-2.4v-60.9l-.5-115.3c-1.1.3-1.9.8-2.7 1.2-1.9 1-4 2.2-8.6 2.2-1.4 0-2.9-.1-4.6-.3-1.3-.2-2-.8-2.4-1.3-1.1-1.5-.7-3.4-.3-5.5.2-1.1.6-3.2.2-3.7-.6-.8-3.1-1.6-4.7-2.2-1.8-.7-3.3-1.2-4.1-1.9-1.4-1.2-2.2-2.4-2.6-3.8-.4.2-2.6 1-2.6 1-4.7 1.8-12 8.4-12.3 13.9l-.1 2.4-2.3-.5c-.5-.1-1-.2-1.4-.2-1 0-1.8.3-2.4.9-2.6 2.6-2.5 9.5-2.1 11.7.2.8-.1 1.5-.6 2-.4.4-1 .7-1.7.7-.6 0-1.2-.2-2-.3-.3-.1-.9-.2-1.4-.3-.1 1.3.1 3.5.2 5.4.3 4.8.5 7.6-.7 9.1-.6.9-1.6 2.1-3 2.1h-.4c-.7-.1-1.9-.6-2.4-2.7v-.3c-.5-6.2-2.6-13.1-5.3-13.8-.1 0-.3-.1-.4-.1-1.7 0-2.9 3.6-4.2 7.9-.6 2-1.2 3.8-1.9 5.4 2.6 2 3.7 4.8 3.1 8.2l-.2 1.1-1.1.4c-2.9 1.1-3.6 2.4-4.7 4.7-.4.9-.9 1.9-1.6 3-3.1 4.8-3.9 5.5-6.9 6-1 .2-2.5.4-4.9 1.4-1.7.7-3.1 1.8-4.6 3-1.9 1.5-3.8 3-6.3 3.8-.6.2-1.3.3-2.1.3-1 0-1.9-.1-2.9-.3-.8-.1-1.6-.2-2.3-.2-.4 0-.7 0-1 .1-2.6.9-5 2.1-7.6 3.5-3 1.6-6.1 3.2-9.8 4.3-6.8 2-12.2 4.3-16.1 8.8-.1.1-.6.7-.6.7-7.8 9.5-9.2 10.5-10.4 10.5-.3 0-.6-.1-.9-.2-.3-.1-.6-.3-.8-.6.1 1.9.3 3.9.4 5.1.3 2.8.5 5.4.4 7.5-.1 1.2-.5 2.2-.8 3.2-.5 1.3-.8 2.3-.6 3.7.2.9.8 1.5 1.7 2.3 1 1 2.3 2.2 2.8 4.3 2.6.9 4.1 2.3 4.7 4.1 1.2 3.6-1.5 7.4-5.3 12.7-.6.9-1.2 1.7-1.8 2.6-.4.6-.4 1-.3 1.1.3 1.5 3.4 3.5 6.2 5.2 3.5 2.2 7.4 4.7 9.2 8.1 4 7.4 7.1 13.2 10 21 1.3 3.7 2.6 5.6 4.5 8.4.7 1 1.5 2.2 2.3 3.5 2 3.2 2.4 6.7 2.7 10 .2 1.6.3 3.3.7 4.9 1.4 6.5 1 11.1.6 16-.5 2.9-.8 5.6-.7 8.9zm220.3 3.1l.4.4c.2-.4.4-1 .6-1.8-.2.2-.3.4-.4.6-.2.2-.4.5-.6.8zm-7.4-12.3c-.2.9-.5 1.7-.7 2.5-.3.7-.6 1.2-.9 1.7.6-.2 1.4-.4 2.2-.7l.2-.1c.2-.1.4-.2.5-.2-.1-.3-.4-1-.5-1.2-.3-.6-.7-1.3-.8-2zm-6-43.4c-.6 1 .9 5.9 1.5 7.7.4 1.4.8 2.8 1.1 3.9l.3 1.5c-.1-1.2-.1-2.4-.1-3.8-.1-5.1-.4-9.4-2.5-9.4-.2.1-.2.1-.3.1zm163.3-22.3c.2-3.8-1-7.1-2.4-10.7-.9-2.4-1.8-4.8-2.3-7.4-.4-2.1-.2-4.3 0-6.4.2-1.9.3-3.8 0-5.4-.5-2.8-1.2-3.7-2.3-5.1-.7-.9-1.5-1.9-2.3-3.4-1.3-2.3-3.3-4.2-5.5-6.4-2.2-2.1-4.6-4.4-6.8-7.6-2.6-3.7-4.1-6.9-5.5-9.7-1-2-1.9-3.8-2.9-5.4-1.3.5-2.5.7-3.6.7-1.5 0-2.6-.5-3.5-1.3-2.8-2.8-2.8-6-2.8-8.7 0-2 0-3.7-1-5.2-.9-1.3-1.5-2.9-2.2-4.6-1-2.5-1.9-5-4-6.8-2.9-2.6-10.8-6.8-15.1-8.8-1.3-.6-2.5-1.1-3.6-1.5-4.2-1.6-6.7-2.9-8-9.9-.7-3.9-1.7-7.6-2.7-11.2-1-3.7-2-7.5-2.8-11.4-.3-1.8-.5-3.6-.6-5.4-.4-5.2-.7-9.6-5.1-12-2.3-1.3-4.1-1.4-5.9-1.5-3.2-.2-6.5-.4-9.4-7-1.3-3-1.4-6.3-1.5-9.5-.1-2.6-.1-5.1-.8-7.3-.2-.6-.8-1.4-1.5-2.3-.9-1.2-2-2.5-2.6-4.2-.5-1.3-.7-2.7-.9-4-.2-1.2-.4-2.4-.8-3.3-1-2.4-1.7-3.2-1.9-3.5-.3.3-1.1 1.2-2.6 3.9-1.6 3-4.5 10.4-4.8 13.3-.1.8.4 2.4.8 3.8 1 3.4 2.6 9.1-2.5 11.6 0 2.8.3 5.7.7 8.4.8 6.3 1.5 12.8-1.8 19.4-3.1 6.2-3.7 8.5-4.1 15.5l-.1 1.8-1.8.1c-1.2.1-2.4.1-3.5.1-8.1 0-13.3-1.8-19.2-6.6-1.2-1-2.2-2-3.1-3-1.6-1.8-3.2-3.4-5.8-4.6-.9-.4-1.9-.8-2.8-1.2l.2 102.5h35.5v27.7l125.2 3.5zm-162.5-31.6l-.2-103.2c-2.7-1-5.7-2.2-8.6-4.2-.9-.6-2.2-1.4-3.6-2.2-4.5-2.6-7.8-4.6-9-6.6-2.9-4.6-1.2-6.9.1-8.8.7-1 1.3-1.9 1.5-3.3.1-.5-.3-2.1-.5-3-.5-2.1-.7-3.1-.3-4.1 1-2.5 2.4-3.2 3.8-3.6.6-.2 1.1-.3 1.6-.9 1-1.1 2-2 2.8-2.9 1.9-1.9 4.1-4 3.9-5.2-.1-.6-.9-1.5-2.3-2.3-.8-.5-1.6-.7-2.6-.7s-2 .2-3.3.5l-1.8.3c-3.3.5-8.2 1.2-13.1 1.2-8.1 0-14.6-1.8-19.9-5.7-.7-.5-1.5-1.2-2.3-1.9-1.2-1.1-3.5-3.2-4.6-3.2-.1 0-.3 0-.5.4-.7 1-.4 1.5-.3 1.8.6 1.1 2.5 2 4 2h.3l1.7-.1.4 1.6c.9 3.4-.4 5.4-1.7 6.5-1.8 1.5-4.3 1.8-6 1.8-2.1 0-4.5-.5-6.2-1.2-3.1-1.4-2.5-4.6-2.2-6.8.2-1.5.4-2.8-.1-3.1-1.2-.8-4.6-1.9-7.6-1.9-1.5 0-2.7.3-3.5.8-.4.3-1.3.9-.8 3.4.7.1 1.6.2 2.4.2 2.3.1 4.3.3 5.5 1.6.6.7.8 1.5.8 2.4-.3 3.1-3.1 3.9-4.9 4.2 0 4.9-1.8 7.8-3.6 10.7-.8 1.3-1.7 2.7-2.4 4.3-1.6 3.8-1.5 5.4-1 9.1.1 0 .2.1.2.1 1.3.6 4.3 2 3 7l-.4 1.4h-2.8l.5 113.6h83.6z"/><path fill="#cf0a2c" d="M343.6 67.2h.1c2.1.1 3.4 2.3 5 5.7.6 1.4.8 2.8 1 4.2.2 1.2.3 2.3.7 3.2.5 1.2 1.3 2.3 2.1 3.3.9 1.1 1.7 2.2 2.1 3.4.8 2.6.9 5.5 1 8.3.1 3 .1 5.8 1.2 8.2 2 4.6 3.5 4.7 6.3 4.9 2 .1 4.4.3 7.4 1.9 6 3.4 6.5 9.4 6.8 14.8.1 1.8.3 3.5.6 5.1.7 3.8 1.7 7.6 2.7 11.2 1 3.7 2.1 7.5 2.8 11.5 1 5.4 2.2 5.9 5.8 7.3 1.1.4 2.4.9 3.8 1.6 3.2 1.5 12.3 6.2 15.9 9.4 2.7 2.4 3.9 5.5 4.9 8.2.6 1.5 1.1 2.9 1.8 3.8 1.7 2.4 1.7 5 1.7 7.3 0 2.4 0 4.4 1.8 6.2.2.2.6.3 1.1.3.9 0 2.2-.4 3.6-1l1.1-.5.7.9c1.8 2.2 2.9 4.5 4.2 7.2 1.3 2.7 2.8 5.7 5.2 9.2 2 2.8 4.2 5 6.4 7 2.4 2.3 4.6 4.4 6.2 7.2.7 1.3 1.4 2.2 2 3 1.2 1.6 2.3 3 3 6.6.4 2.1.2 4.3 0 6.3-.2 1.9-.3 3.8 0 5.5.4 2.3 1.2 4.4 2.1 6.8 1.7 4.6 3.5 9.4 2.1 15.3-.6 2.5-1.9 4.2-3.1 5.8-.8 1.1-1.6 2.2-2.2 3.6-1.4 3.1-1.9 5.6-2.6 9.1l-.3 1.6c-2 9.3-7.1 16.1-12.4 23.3-2.9 3.9-5.9 7.9-8.4 12.4-1.5 2.8-2.7 5.9-3.9 8.9-1.3 3.3-2.5 6.4-4.1 9.1l-1.1 1.9c-2.3 3.8-4.4 7.4-6.4 11.4-.4.8-.5 1.7-.7 2.7-.2 1.2-.5 2.5-1.1 3.7-.9 1.7-2.2 2-3 2.1-.1 0-.2.1-.3.1v.1c1.3.3 2.2 1.4 2.2 2.8 0 1.3-.8 2.5-2 2.8l-.2.1h-.9c-1.6 0-3.2-.2-4.8-.4-1.4-.2-2.7-.4-3.9-.4-1.4 0-2.6.2-3.8.9-1.9 1.1-3.1 2.1-4.3 3.2-2.3 2.1-4.3 3.8-10.3 3.8-2.2 0-5.2-.9-8.6-1.9-3.6-1.1-7.8-2.4-10.9-2.4-1.3 0-2.5.2-3.3.8-1 .7-1.5 1.9-1.6 3.6l-.1 1.1-1 .3c-.9.2-1.8.3-2.6.3-3.4 0-6.1-1.7-8.6-3.2-2-1.2-3.8-2.4-6-2.8-2.4-.5-4.3-.6-5.9-.7-4-.2-6.6-.4-10.8-5.4-2.4-2.8-3.4-7.8-4.6-13.2-1.2-5.9-2.6-12.5-5.9-14.3-.1.4-.2.8-.3 1.1-.7 3-1.4 6.4-3.8 6.9-.2 0-.4.1-.5.1-1.9 0-3.3-2-3.8-2.6-1.2-1.6.1-3.3 1-4.4.5-.7 1.2-1.5 1.3-2.1.2-1 .3-2.1.2-3v-.2c.1-1-.4-2.1-1.3-2.9-.3-.2-.8-.6-1.4-.7.5 1.1 1.3 2.7.5 4.3l-.1.2c-.5.7-1.3 1.2-2.3 1.6l-.2.1c-2.1.8-4.3 1.5-6.1 1.5-.8 0-1.6-.2-2.1-.5-.7-.5-1.2-1.2-1.2-2.1-.1-1.8 1.5-2.4 2.2-2.7.2-.1.7-.3.8-.4.3-.4.5-.9.8-1.4.5-1.3.8-2.8 1.2-4.8.1-.8.3-1.7.4-2.6v-.2c.7-2.6 1-5.5.9-9.1 0-1 0-2-.1-3-.5-2.7-.7-5.4-.8-8.3v-.4c0-.8-.1-1.6-.2-2.4-.1-1.3-.2-2.9-.2-4.5-.1-5.6-.4-9.9-3-9.9-.4 0-.5.1-.6.2-.8 1.1.6 5.7 1.4 8.2.4 1.4.8 2.8 1.1 3.9.2.9.4 1.9.6 2.9.3 1.6.7 3.8.8 6 0 .8-.2 1.5-.3 2.2-.1.3-.1.6-.2.9-.2 1.1-.5 2-.8 2.8-1 2.9-2.6 5.3-4.7 7.2-.7.7-1.4 1.3-2.1 1.9-.4.4-.8.8-1.2 1.3-1 1.1-2 3.1-2.9 5.1-1.6 3.3-3.3 6.9-5.9 6.9-.4 0-.8-.1-1.3-.3l-.6-.2-.2-.6c-.8-2.2-1.5-4.4-2.1-6.5-1-3.5-2-6.8-3.7-9.9-.6-1.2-.4-2.5-.1-3.7.1-.5.3-1.6.2-1.9-.1-.2-.3-.2-.8-.2h-.9c-.4 0-.7.1-1.2.1-1.1 0-2.3-.2-3.2-1.3-1.4-1.6-1.7-3.3-1.9-4.9-.3-1.6-.5-2.9-1.8-4.1-1.5-1.4-5.8-1.9-9.6-2.3-3.2-.4-6.3-.7-8.2-1.6-5.8-2.7-10.1-4.4-15.7-4.4-1.3 0-2.7.1-4.2.3-5 .7-8.8 2.7-12.7 4.8-1.6.8-3.2 1.7-4.9 2.5-3.5 1.6-7.3 2.1-10.9 2.6-3.2.4-6.2.9-9.1 2-11.6 4.5-16.2 11.5-20.9 23.7l-.3.7-.7.2c-3 .9-6.1 1.2-9.1 1.2-1.6 0-3.1-.1-4.7-.1-1.6-.1-3.1-.1-4.6-.1-3.1 0-6.1.3-9 1.3-4.3 1.6-7.7 4.5-11.4 7.6-3.5 2.9-7.1 5.9-11.4 7.7-2.7 1.1-6.5 2-10.2 2-2.1 0-4.2-.3-6.1-.9-2.3-.8-4-2.2-5.5-3.4-1.9-1.5-3.4-2.8-5.7-2.8-.4 0-.8 0-1.2.1l-1.7.3-.1-1.7c-.2-4.4.1-7.9.4-11.3.4-4.8.8-9-.5-14.9-.4-1.8-.6-3.6-.8-5.3-.3-3.1-.6-6-2.2-8.5-.8-1.3-1.6-2.4-2.2-3.4-1.9-2.8-3.4-5-4.9-9.1-2.7-7.6-5.6-13.1-9.7-20.5-1.4-2.6-4.9-4.8-8-6.8-3.8-2.4-7.1-4.6-7.7-7.5-.3-1.3.1-2.5.9-3.8.6-.9 1.3-1.8 1.9-2.6 3-4.1 5.5-7.7 4.9-9.5-.3-.9-1.5-1.6-3.6-2.2l-1-.3v-1.1c-.1-1.5-.9-2.3-2-3.3s-2.3-2.2-2.7-4.1c-.5-2.3.2-4.2.7-5.6.3-.8.6-1.5.6-2.3.1-1.8-.1-4.5-.4-7-.5-5.6-1-10.5 1.4-12.3.4-.3 1.1-.7 2-.7.5 0 1 .1 1.7.3.4.1 1 .4 1.2 2.6 1.2-1.4 3.2-3.6 6.3-7.3.3-.4.5-.6.6-.7 4.5-5.2 10.3-7.7 17.7-9.9 3.3-1 6.3-2.5 9.1-4 2.6-1.4 5.2-2.8 8.1-3.7.7-.2 1.4-.3 2.1-.3.9 0 1.9.1 2.8.3.8.1 1.6.2 2.3.2.4 0 .8 0 1.1-.1 1.9-.6 3.5-1.8 5.1-3.1 1.7-1.3 3.4-2.7 5.5-3.5 2.8-1.1 4.5-1.4 5.6-1.6 1.7-.3 1.8-.3 4.5-4.5.6-.9 1-1.8 1.4-2.6 1.1-2.3 2.2-4.5 5.8-6.1.1-2.1-.8-3.6-3-4.8l-1.5-.8.9-1.4c.9-1.5 1.7-3.9 2.4-6.3 1.4-4.7 3.2-10.4 7.4-10.4.5 0 1 .1 1.5.2 5.2 1.5 7 10.2 7.6 14.7.1-1.5-.1-3.9-.2-5.5-.2-2.9-.4-5.7 0-7.3.4-1.4 1.5-1.8 2.8-1.8.9 0 1.8.2 2.6.4-.3-3.6 0-9.9 3.3-13.1 1-1 2.5-1.9 4.9-1.9h.6c1.5-6.7 9.1-13.4 14.4-15.3l1.1-.4c2.4-.9 3.5-1.3 4.2-1.3.4 0 .7.1 1 .3.8.5.8 1.4.8 1.9 0 .7 0 1.6 1.6 2.9.4.3 1.9.9 3 1.3 2.5.9 5 1.8 6.2 3.3 1.4 1.8.9 4.4.5 6.6-.2.8-.4 2.2-.3 2.7 1.7.2 3.1.3 4.2.3 3.6 0 5.2-.9 6.8-1.8 1.5-.8 3.2-1.8 6.3-1.9.1-1.1-.5-1.4-1.3-1.8-.8-.4-2-.9-2.1-2.3-.6-4.6-.7-6.8 1.2-11.3.8-1.9 1.7-3.4 2.6-4.8 1.9-3 3.5-5.5 3-10.3l-.1-1.3 1.3-.3c.3-.1.6-.1 1-.2 1.9-.4 2.7-.6 2.9-1.1-.5-.2-2-.3-2.9-.4-1.5-.1-3.1-.2-4.4-.6l-.7-.3-.2-.7c-1.4-4.7.2-7.1 1.8-8.3 1.5-1.1 3.5-1.5 5.6-1.5 3.8 0 7.9 1.3 9.6 2.5 2.3 1.6 1.9 4.5 1.5 6.5-.3 2-.4 2.8.2 3.1 1.3.6 3.1.9 4.8.9 1.5 0 3-.3 3.8-1 .4-.3.8-.8.7-1.8-2.4-.3-5-1.6-6.2-3.8-1-1.8-.8-3.7.6-5.5 1-1.3 2.1-1.7 2.9-1.8h.4c2.5 0 4.9 2.2 7 4.1.7.7 1.4 1.3 2 1.7 5.2 3.8 11.5 5 17.9 5 4.2 0 8.5-.5 12.6-1.2.6-.1 1.1-.2 1.7-.3 1.3-.3 2.6-.5 4-.5s2.9.3 4.4 1.2c2.5 1.5 3.7 3.1 4 4.9.3 2.8-2.1 5.3-4.9 8-.9.9-1.8 1.8-2.7 2.8-1.2 1.3-2.3 1.7-3.2 1.9-.8.2-1.1.3-1.5 1.4 0 .4.2 1.4.4 2.2.4 1.9.7 3.3.5 4.3-.3 2.3-1.3 3.7-2.1 4.8-1.1 1.6-1.6 2.3 0 4.9.8 1.3 5 3.8 7.8 5.4 1.5.9 2.9 1.7 3.8 2.3 2.7 1.8 5.6 2.9 8.3 4l4.5 1.8c3.2 1.5 5.1 3.5 6.9 5.4.9 1 1.8 1.9 2.8 2.7 5.2 4.2 9.6 5.8 17 5.8h2c.4-6.5 1.3-9.3 4.4-15.6 2.8-5.6 2.1-11.3 1.4-17.4-.4-3.3-.8-6.7-.6-10.3v-1.1l1-.3c3.1-.9 2.8-3.1 1.5-7.8-.5-1.8-1-3.6-.9-5.1.3-3.6 3.6-11.6 5.2-14.6.6-3.9 2.2-6.2 4.4-6.2m-19.7 80.9c-8.1 0-13.1-1.8-18.9-6.5-1.2-1-2.2-2-3.1-3-1.7-1.8-3.2-3.5-6-4.7-1.1-.5-2.3-1-3.5-1.5l.2 103.7h35.5v27.6l126.2 4c.4-4-.9-7.6-2.4-11.3-.9-2.3-1.8-4.8-2.2-7.3-.4-2.1-.2-4.2 0-6.2s.3-3.8 0-5.5c-.5-2.9-1.3-3.9-2.4-5.3-.7-.9-1.4-1.8-2.3-3.4-1.3-2.4-3.3-4.3-5.6-6.5-2.2-2.1-4.6-4.4-6.8-7.5-2.6-3.7-4.1-6.8-5.5-9.6-1.1-2.2-2-4.1-3.2-5.8-1.1.4-2.5.8-3.8.8-1.2 0-2.3-.3-3.2-1.2-2.7-2.7-2.7-5.7-2.6-8.4 0-2.1 0-3.9-1.1-5.5-.9-1.3-1.5-2.8-2.1-4.5-1-2.5-2-5.1-4.1-7-3-2.6-10.9-6.9-15.2-8.9-1.4-.7-2.6-1.1-3.6-1.5-4.2-1.6-6.4-2.8-7.7-9.5-.7-3.9-1.8-7.6-2.7-11.3-1-3.7-2-7.5-2.8-11.4-.3-1.8-.5-3.6-.6-5.4-.4-5.3-.7-9.8-5.3-12.4-2.4-1.3-4.3-1.4-6.1-1.5-3.2-.2-6.2-.4-8.9-6.7-1.2-2.9-1.3-6.2-1.4-9.3-.1-2.7-.1-5.2-.8-7.4-.2-.7-.9-1.6-1.6-2.5-.9-1.2-1.9-2.5-2.6-4.1-.5-1.3-.7-2.6-.9-3.9-.2-1.3-.4-2.5-.8-3.5-1.5-3.4-2.2-3.9-2.4-3.9-.1 0-.9.4-3 4.2-1.6 3-4.5 10.5-4.8 13.5-.1.9.4 2.5.8 4 1 3.6 2.5 8.9-2.5 11.1 0 3 .3 5.9.7 8.8.7 6.2 1.5 12.6-1.7 19.1-3.1 6.3-3.8 8.6-4.2 15.7l-.1 1.3-1.3.1h-3.6m-87.8-67.6h.3l1.2-.1.3 1.2c.8 3.2-.4 5-1.5 6-1.5 1.2-3.6 1.7-5.7 1.7-2.3 0-4.5-.5-6-1.2-2.7-1.2-2.3-4.1-1.9-6.3.3-1.9.4-3.1-.3-3.6-1.3-.9-4.9-2-7.9-2-1.5 0-2.8.3-3.8.9-.4.3-1.6 1.2-.9 4.2.8.2 1.9.2 2.8.3 2.2.1 4.1.2 5.1 1.5.5.6.7 1.3.6 2-.2 2.8-2.9 3.5-4.9 3.9.2 5-1.7 7.9-3.5 10.8-.9 1.4-1.7 2.7-2.4 4.4-1.6 4-1.5 5.6-1 9.6.1.1.3.2.5.2 1.3.6 3.9 1.9 2.8 6.4l-.3 1.2h-1.5c-.5 0-1 0-1.4.1l.5 114.6h84.6l-.2-104.1c-2.9-1.1-5.9-2.3-8.8-4.3-.9-.6-2.2-1.4-3.7-2.2-4.4-2.6-7.7-4.6-8.8-6.4-2.7-4.3-1.2-6.4.1-8.2.7-1 1.4-2 1.6-3.5.1-.6-.3-2.2-.5-3.2-.4-2-.6-3-.3-3.8.9-2.3 2.1-2.9 3.5-3.3.7-.2 1.2-.4 1.8-1.1.9-1 1.9-2 2.8-2.9 2.2-2.1 4.2-4.2 4.1-5.6-.1-1-1.4-2-2.5-2.7-.9-.6-1.9-.8-2.8-.8-1 0-2.1.2-3.3.5l-1.8.3c-4.2.7-8.6 1.2-13.1 1.2-6.9 0-13.8-1.3-19.6-5.6-.7-.5-1.4-1.2-2.2-1.9-1.5-1.3-3.7-3.4-5-3.4h-.1c-.2 0-.5.1-.8.6-.8 1.1-.6 1.9-.3 2.3.4 1.2 2.5 2.3 4.2 2.3m-76.1 43l-1.7-.4c-.5-.1-1-.2-1.5-.2-1.1 0-2 .4-2.8 1.1-2.8 2.7-2.7 9.8-2.2 12.2.1.6 0 1.2-.5 1.6-.4.4-.8.5-1.3.5s-1.2-.1-1.9-.3c-.5-.1-1.4-.3-2-.4-.2 1.3 0 3.8.2 6 .3 4.7.5 7.4-.6 8.8-.5.8-1.4 1.9-2.6 1.9h-.3c-.7-.1-1.6-.6-2-2.4v-.2c-.5-6.3-2.6-13.4-5.7-14.2-.2-.1-.4-.1-.5-.1-2 0-3.2 3.5-4.7 8.3-.6 2.1-1.3 4.1-2 5.7 2.7 1.9 3.8 4.6 3.2 8l-.2.8-.8.3c-3.1 1.2-3.9 2.7-5 4.9-.4.9-.9 1.9-1.6 2.9-3 4.7-3.7 5.3-6.5 5.8-1.1.2-2.5.4-5 1.4-1.7.7-3.2 1.8-4.7 3.1-1.8 1.5-3.7 3-6.2 3.7-.6.2-1.3.3-2 .3-.9 0-1.9-.1-2.8-.3-.8-.1-1.6-.2-2.3-.2-.4 0-.8 0-1.2.2-2.7.9-5.1 2.2-7.7 3.5-3 1.6-6 3.2-9.7 4.3-6.9 2-12.3 4.3-16.3 9-.1.1-.3.3-.6.7-7.2 8.8-9 10.3-10 10.3-.2 0-.5-.1-.7-.2-.7-.3-1.1-1-1-1.7.1-.6.1-1.9.1-2.8-1 1-.5 6.4-.2 9.6.3 2.8.5 5.4.4 7.4-.1 1.1-.4 2.1-.8 3.1-.5 1.3-.9 2.5-.6 4 .2 1.1.9 1.7 1.8 2.6 1.1 1 2.3 2.2 2.7 4.3 2.6.9 4.1 2.2 4.7 3.8 1.2 3.3-1.5 7.1-5.3 12.3-.6.8-1.2 1.7-1.8 2.6-.5.7-.5 1.2-.4 1.5.3 1.7 3.4 3.6 6.4 5.5 3.4 2.2 7.3 4.7 9 7.9 4 7.4 7.1 13.2 9.9 21 1.4 3.7 2.7 5.7 4.5 8.5.7 1 1.4 2.2 2.3 3.5 2 3.1 2.3 6.5 2.6 9.8.2 1.6.3 3.3.7 5 1.4 6.4 1 11 .6 15.9-.3 2.9-.5 5.8-.5 9.3 3.4 0 5.6 1.8 7.6 3.5 1.4 1.2 2.8 2.3 4.5 2.9 1.5.5 3.3.8 5.1.8 3.2 0 6.6-.7 9-1.7 3.9-1.6 7.2-4.4 10.7-7.3 3.7-3.1 7.6-6.3 12.3-8.1 3.3-1.2 6.7-1.5 10.1-1.5 1.6 0 3.1.1 4.6.1 1.6.1 3.1.1 4.6.1 2.6 0 5-.2 7.5-.8 4.1-10.4 8.8-19.5 22.3-24.7 3.2-1.2 6.5-1.7 9.8-2.1 3.6-.5 7-1 10.1-2.4 1.7-.8 3.3-1.6 4.8-2.4.1 0 .2-.1.2-.1v-61.2l-.5-115.9c-1.5.3-2.4.8-3.5 1.4-1.8 1-3.8 2.2-8.3 2.2-1.3 0-2.8-.1-4.6-.3-1.1-.1-1.7-.7-2-1.1-.9-1.3-.6-3.2-.2-5.1.3-1.5.7-3.4.1-4.2-.7-.9-3.1-1.7-4.9-2.4-1.8-.6-3.2-1.1-4-1.8-1.8-1.6-2.4-3-2.6-4-.6.2-1.3.5-2.1.8l-1.1.4c-4.8 1.8-12.3 8.6-12.6 14.3l.2 1.1m47.2 174.8c3.8-2 7.6-3.8 12.6-4.5 1.6-.2 3.2-.3 4.6-.3 6.2 0 11 1.9 17 4.7 1.5.7 4.5 1 7.3 1.3 4.4.5 9 1 11.3 3.1 2.1 1.9 2.5 4.1 2.8 5.8.2 1.3.4 2.5 1.3 3.4.2.2.5.3 1 .3h.9c.3 0 .7-.1 1.1-.1 1.1 0 2.4.2 3.3 1.5.9 1.3.6 2.8.3 4.1-.1.5-.3 1.5-.2 1.8 1.8 3.4 2.9 7 3.9 10.4.5 1.7 1.1 3.5 1.7 5.3.9-.8 2.3-3.7 2.9-5 1-2.1 2.1-4.4 3.4-5.8.5-.5 1-1 1.4-1.5l.1-.1c.7-.6 1.4-1.1 2-1.8l.1-.1c1.8-1.5 3.1-3.6 3.9-6 .3-.7.5-1.5.6-2.4 0-.3.1-.6.2-1 .1-.6.2-1 .2-1.5-.1-1.9-.4-3.9-.7-5.5-.2-.9-.4-1.9-.6-2.8-.2-1-.6-2.3-1-3.7-1.3-4.2-2.6-8.6-.9-10.9.5-.6 1.4-1.4 3-1.4 5.7 0 5.9 7.4 6 12.8 0 1.6.1 3 .2 4.3.1.8.1 1.7.2 2.5v.4c.2 2.8.3 5.5.8 8v.2c.1 1.1.1 2.1.1 3.2.1 3.8-.3 6.9-1 9.8-.1.9-.2 1.8-.4 2.6-.4 2.2-.8 3.9-1.3 5.4-.4.8-.7 1.5-1.1 2.1-.2.3-.5.6-.8.8.8-.2 2.1-.5 3.8-1.2l.2-.1c.4-.1.6-.3.8-.5 0-.4-.3-1.1-.6-1.6-.5-1-1.2-2.5-.1-3.6l.3-.3.4-.1c.5-.1 1-.2 1.6-.2 1.4 0 2.8.5 3.9 1.4 1.6 1.3 2.5 3.3 2.4 5.3.1 1.2 0 2.4-.2 3.7-.3 1.4-1.1 2.5-1.9 3.4-.3.3-.6.8-.8 1.1.6.8 1 1 1.1 1.1.6-.6 1.2-3.3 1.5-4.5.5-2.2.7-3.2 1.7-3.7.2-.1.5-.2.7-.2.2 0 .4 0 .5.1 5.7 1.4 7.4 9.3 9 17 1 4.7 2 9.6 3.9 11.8 2.2 2.6 3.7 3.5 5.4 4V237H207v61.3m197.1 67.6c.2-1.8 1.2-2.4 2.6-2.8.6-.1.8-.2 1-.6.4-.8.6-1.8.8-2.9.2-1.1.4-2.3 1-3.5 2-4 4.2-7.7 6.5-11.6l1.1-1.9c1.5-2.5 2.6-5.5 3.9-8.6 1.2-3.1 2.5-6.3 4.1-9.2 2.6-4.7 5.7-8.8 8.6-12.8 5.1-6.9 10-13.4 11.9-22.1l.3-1.6c.7-3.5 1.3-6.2 2.8-9.7.7-1.7 1.7-2.9 2.6-4.2 1.1-1.5 2.1-2.8 2.6-4.7.1-.4.2-.9.3-1.3l-126.1-4v66.2c6.4 2.6 9.6 5 13 7.6 2.1 1.6 4.3 3.2 7.4 5 4.1 2.3 7.8 4.4 12 5.9 1.5.5 2.9 1 4.4 1.3 3.1.8 6.4 1.2 9.6 1.5 1 .1 2.1.2 3.1.4l2.1.3c5.9 1.3 11.1 3.3 16.6 6.3.5.3.9.7 1.3 1 .8.7 1.6 1.5 2.2 2.4.4.2.8.5 1.2.8 1.3.9 2.2 1.9 3.1 2.8m-53.3 12c.3 0 .6 0 .9-.1.4-2.1 1.3-3.7 2.8-4.7 1.4-1 3.1-1.3 5-1.3 3.6 0 7.8 1.3 11.8 2.5 3.1.9 6 1.8 7.7 1.8 4.9 0 6.2-1.2 8.3-3.1 1.2-1.1 2.6-2.3 4.8-3.6 1.7-1 3.5-1.2 5.3-1.2 1.5 0 2.9.2 4.3.4 1.2.2 2.4.3 3.6.4-.1 0-.2 0-.2-.1l-1-.3-.1-1v-.2c-.2-.2-.3-.4-.5-.5-.9-1-1.8-2-3-2.7-.4-.3-.8-.5-1.3-.8l-.1-.1c-.6-.8-1.4-1.6-2.2-2.3l-1.2-.9c-5.3-2.9-10.5-4.9-16.3-6.2-.6-.1-1.3-.2-2-.3-1-.1-2-.2-3.1-.3-3.3-.4-6.6-.7-9.8-1.6-1.5-.3-2.9-.8-4.5-1.4-4.3-1.6-8.1-3.6-12.1-6-3.1-1.8-5.3-3.5-7.5-5.1-3.3-2.5-6.4-4.8-12.4-7.3V371c.7.1 1.5.1 2.4.2 1.6.1 3.7.2 6.3.7 2.7.5 4.9 1.9 7 3.2 2.5 1.5 4.6 2.8 7.1 2.8m-7.2-311.7c-2.9 0-4.8 3-6.6 6.3-1.6 3-4.9 11.1-5.3 15-.2 1.7.4 3.5.9 5.4 1.5 5.1 1.1 5.9-.8 6.5l-1 .3-.7.2v1.8c-.2 3.6.3 7.1.7 10.4.7 5.9 1.4 11.4-1.3 16.8-3.1 6.2-4 9.1-4.4 15h-1c-7 0-11.3-1.5-16.3-5.6-1-.8-1.8-1.7-2.7-2.6-1.8-2-3.8-4-7.2-5.6-1.5-.7-3-1.3-4.5-1.9-2.7-1.1-5.6-2.1-8.1-3.9-1-.7-2.4-1.5-3.9-2.4-2.4-1.4-6.8-3.9-7.5-5.1-1.3-2.1-1.1-2.3-.1-3.8.8-1.2 2-2.8 2.3-5.3.2-1.2-.1-2.6-.6-4.6-.1-.4-.3-1.3-.4-1.8.2-.4.3-.4.8-.6.9-.3 2.2-.7 3.6-2.2.9-.9 1.8-1.8 2.6-2.7 2.9-2.9 5.6-5.6 5.3-8.9-.2-2.1-1.7-4-4.4-5.6-1.5-.9-3.1-1.4-4.9-1.4-1.4 0-2.8.3-4.2.5-.6.1-1.1.2-1.7.3-3.1.5-7.8 1.2-12.4 1.2-7.2 0-12.8-1.6-17.3-4.8-.5-.4-1.2-1-1.9-1.6-2.3-2.1-4.8-4.4-7.7-4.4h-.5c-1 .1-2.5.5-3.7 2.2-1.6 2.1-1.8 4.5-.6 6.6 1.3 2.4 3.8 3.6 6 4.1l-.2.2c-.6.5-1.7.8-3.1.8-1.5 0-3-.3-4.2-.8 0-.5.2-1.7.2-2.1.4-2.2.9-5.6-1.9-7.5-1.9-1.3-6.2-2.7-10.2-2.7-2.6 0-4.6.6-6.1 1.7s-3.9 3.8-2.2 9.4l.2.7.1.5.5.2.7.3c.9.3 1.9.5 2.9.6l-.7.1-.9.2.1.9.1 1.3c.4 4.4-1 6.7-2.9 9.7-.9 1.5-1.9 3-2.7 5-1.9 4.8-1.9 7.1-1.3 11.8.3 1.9 1.9 2.7 2.7 3.1.1 0 .1 0 .1.1-2.4.4-3.9 1.2-5.2 1.9-1.6.9-2.9 1.6-6.3 1.6-1 0-2-.1-3.2-.2.1-.6.2-1.3.3-1.6.5-2.4 1.1-5.3-.7-7.4-1.4-1.8-4.1-2.7-6.7-3.6-.8-.3-2.4-.9-2.7-1.1-1.2-1.1-1.3-1.6-1.3-2.2 0-.5 0-1.8-1.2-2.7-.5-.4-1-.5-1.6-.5-.9 0-2 .4-4.6 1.4l-1.1.4c-4.9 1.8-12.8 8.2-14.8 15.3-2.6.1-4.3 1.2-5.4 2.2-3.5 3.4-3.8 9.7-3.7 12.6-.5-.1-1-.1-1.5-.1-2.7 0-3.5 1.6-3.7 2.6-.2.9-.3 2.1-.2 3.4-1.3-2.9-3.2-5.3-5.9-6.1-.6-.2-1.2-.3-1.8-.3-5 0-6.9 6.2-8.4 11.1-.7 2.3-1.5 4.7-2.3 6.1l-.9 1.4-.6.9 1 .5 1.5.8c1.6.8 2.4 1.9 2.5 3.2-3.4 1.7-4.6 4-5.7 6.2-.4.8-.8 1.7-1.4 2.5-2.4 3.8-2.5 3.8-3.8 4-1.2.2-2.9.5-5.8 1.6-2.3.9-4.1 2.3-5.8 3.7-1.6 1.3-3.1 2.5-4.8 3-.2.1-.5.1-.8.1-.6 0-1.4-.1-2.2-.2-1-.1-1.9-.3-2.9-.3-.9 0-1.7.1-2.4.4-3 1-5.7 2.4-8.3 3.8-2.8 1.5-5.7 3-8.9 4-7.6 2.2-13.6 4.8-18.2 10.2-.1.1-.3.4-.6.8-1.9 2.4-3.6 4.3-4.9 5.8-.3-.9-.9-1.2-1.4-1.4-.7-.2-1.4-.4-2-.4-1 0-1.9.3-2.6.9-2.8 2.2-2.3 7.3-1.8 13.2.2 2.5.5 5 .4 6.8 0 .6-.3 1.2-.5 2-.5 1.5-1.3 3.6-.7 6.2.5 2.3 1.9 3.6 3 4.6 1.1 1.1 1.6 1.6 1.7 2.7v1.8l.7.2 1 .3c2.5.7 2.9 1.4 3 1.6.5 1.4-2.3 5.2-4.7 8.6v.1c-.6.8-1.2 1.7-1.8 2.6-1 1.5-1.4 3-1.1 4.5.7 3.4 4.1 5.6 8.1 8.1 3 1.9 6.4 4.1 7.7 6.5 4.1 7.4 6.9 12.8 9.7 20.4 1.5 4.2 3 6.5 5 9.3.7 1 1.4 2.1 2.2 3.4 1.5 2.3 1.7 5.1 2 8 .2 1.8.4 3.6.8 5.5 1.3 5.8.9 9.9.5 14.6-.3 3.4-.6 6.9-.4 11.4l.1 1.7.1 1.1 1.1-.2 1.7-.3c.4-.1.7-.1 1-.1 2 0 3.3 1.1 5.1 2.6 1.6 1.3 3.3 2.7 5.8 3.6 1.9.7 4 1 6.4 1 3.6 0 7.5-.8 10.6-2.1 4.5-1.9 8.1-4.9 11.7-7.9 3.6-3 7-5.9 11.1-7.4 2.4-.9 5-1.3 8.6-1.3 1.5 0 3 .1 4.5.1 1.6.1 3.1.1 4.7.1 3.8 0 6.7-.4 9.4-1.2l.7-.2.5-.1.2-.5.3-.7c5.9-15.2 11.5-19.7 20.3-23.1 2.8-1.1 5.7-1.5 8.9-1.9 3.7-.5 7.6-1.1 11.2-2.7 1.8-.8 3.5-1.7 5-2.5 3.9-2.1 7.6-4 12.4-4.6 1.4-.2 2.8-.3 4.1-.3 5.5 0 9.6 1.7 15.3 4.3 2.1 1 5.2 1.3 8.6 1.7 3.4.4 7.7.8 9 2 1.1 1 1.3 2.1 1.5 3.6.3 1.6.6 3.6 2.2 5.4 1 1.1 2.3 1.7 4 1.7.4 0 .9 0 1.2-.1h.7c0 .2-.1.5-.2.9-.3 1.3-.6 2.9.2 4.4 1.6 3 2.6 6.3 3.6 9.7.7 2.2 1.3 4.4 2.2 6.6l.2.6.2.4.4.2.6.2c.6.2 1.1.4 1.7.4 3.2 0 5.1-4 6.8-7.5.9-1.9 1.8-3.8 2.7-4.9l1.2-1.2c.8-.6 1.5-1.3 2.2-1.9 2.3-2 3.9-4.6 5-7.6l.3-.9c0 .7 0 1.4.1 2 0 3.5-.2 6.3-.9 8.8v.2c-.1.9-.2 1.7-.3 2.5-.3 1.9-.7 3.4-1.1 4.6-.2.4-.4.7-.6 1-.1 0-.2.1-.4.2-.8.3-3.1 1.2-2.9 3.7.1 1.2.7 2.2 1.7 2.9.7.5 1.6.7 2.7.7 2 0 4.4-.8 6.5-1.6l.2-.1c1.2-.4 2.1-1.1 2.7-1.9l.1-.2c.2-.4.4-.9.4-1.3v.4c.1.8 0 1.8-.2 2.7-.1.4-.7 1.2-1.1 1.7-.9 1.2-2.6 3.4-1 5.6.5.8 2.2 3.1 4.6 3.1.2 0 .5 0 .7-.1 2.9-.6 3.8-4 4.5-7.1 2.1 2.5 3.3 8.1 4.3 12.7 1.2 5.5 2.2 10.6 4.8 13.6 4.5 5.3 7.5 5.5 11.5 5.7 1.6.1 3.4.2 5.8.7 1.9.4 3.7 1.5 5.6 2.7 2.6 1.6 5.5 3.4 9.1 3.4.9 0 1.9-.1 2.8-.4l1-.3.7-.2.1-.7.1-1.1c.1-1.4.5-2.4 1.2-2.9.6-.4 1.5-.6 2.7-.6 3 0 7.2 1.3 10.6 2.3 3.5 1.1 6.5 2 8.9 2 6.4 0 8.6-2 11-4.1 1.1-1 2.3-2 4.1-3.1.9-.5 2-.7 3.3-.7 1.2 0 2.4.2 3.8.4 1.6.2 3.2.4 4.9.4h1.2l.2-.1c1.7-.5 2.8-2 2.7-3.8 0-1-.4-1.9-1-2.6.7-.4 1.4-1 2-2.1.7-1.4 1-2.8 1.2-4 .2-.9.3-1.8.6-2.4 2-3.9 4.1-7.5 6.3-11.3l1.1-1.9c1.6-2.8 2.9-5.9 4.2-9.2 1.2-3 2.4-6 3.9-8.7 2.5-4.4 5.4-8.4 8.3-12.3 5.4-7.3 10.5-14.1 12.6-23.7l.3-1.6c.7-3.4 1.2-5.8 2.6-8.9.6-1.3 1.3-2.3 2.1-3.4 1.2-1.6 2.6-3.4 3.3-6.2 1.5-6.2-.3-11.1-2.1-15.9-.9-2.3-1.7-4.4-2-6.6-.3-1.6-.1-3.3 0-5.2.2-2.1.4-4.4 0-6.6-.7-3.9-1.9-5.4-3.2-7.1-.6-.8-1.2-1.6-1.9-2.9-1.6-2.9-3.9-5.1-6.3-7.4-2.1-2-4.3-4.1-6.3-6.9-2.4-3.4-3.9-6.4-5.2-9.1-1.4-2.8-2.5-5.2-4.4-7.4l-.7-.9-.5-.6-.7.3-1.1.5c-1.2.6-2.4.9-3.2.9h-.4c-1.5-1.5-1.5-3.2-1.4-5.5 0-2.3 0-5.2-1.9-7.9-.6-.9-1.1-2.2-1.7-3.6-1.1-2.8-2.3-6.1-5.2-8.6-3.7-3.2-12.9-8-16.1-9.5-1.5-.7-2.8-1.2-3.9-1.6-3.5-1.3-4.3-1.6-5.2-6.5-.8-4.1-1.8-7.9-2.8-11.6-1-3.6-2-7.3-2.7-11.1-.3-1.6-.4-3.2-.5-5-.4-5.3-.9-12-7.4-15.6-3.2-1.8-5.9-1.9-7.8-2-2.7-.2-3.8-.2-5.5-4.3-.9-2.2-1-5-1.1-7.9-.1-2.8-.1-5.8-1-8.5-.4-1.4-1.3-2.5-2.3-3.7-.8-1-1.6-2-2-3.1-.3-.8-.5-1.9-.6-3-.2-1.5-.4-3-1.1-4.5-1.4-3.1-2.9-6.2-5.8-6.3-.1.2-.2.2-.2.2zm-8.6 37.4c5.1-2.7 3.5-8.5 2.5-12-.4-1.3-.8-2.9-.7-3.6.3-2.7 3.1-10.2 4.7-13.1 1-1.9 1.7-2.8 2.1-3.3.3.5.8 1.3 1.5 2.9.4.9.5 2 .7 3.2.2 1.3.4 2.7.9 4.1.7 1.8 1.8 3.1 2.7 4.4.6.8 1.3 1.6 1.4 2.2.7 2.1.7 4.5.8 7.1.1 3.3.2 6.6 1.5 9.7 2.9 6.9 6.4 7.1 9.8 7.3 1.8.1 3.5.2 5.7 1.4 4.1 2.3 4.4 6.4 4.8 11.6.1 1.9.3 3.7.6 5.5.8 4 1.8 7.8 2.8 11.5 1 3.6 2 7.4 2.7 11.2 1.4 7.3 3.9 8.6 8.3 10.3 1 .4 2.2.8 3.5 1.5 4.2 2 12.1 6.2 15 8.8 1.9 1.7 2.9 4.2 3.8 6.6.7 1.7 1.3 3.3 2.2 4.7 1 1.4 1 2.9.9 4.9 0 2.7 0 6.1 2.9 9.1 1 1 2.3 1.5 3.9 1.5 1 0 2.2-.2 3.4-.6 1 1.5 1.8 3.1 2.7 5 1.4 2.8 2.9 6 5.6 9.8 2.2 3.2 4.7 5.5 6.9 7.6 2.2 2.2 4.2 4 5.4 6.3.9 1.6 1.7 2.6 2.4 3.5 1.1 1.4 1.7 2.2 2.2 4.9.3 1.6.1 3.4 0 5.3-.2 2.1-.4 4.3 0 6.5.5 2.6 1.4 5.1 2.3 7.5 1.3 3.3 2.4 6.5 2.4 10L329.1 263v-27.7h-35.5l-.2-101.2 2.1.9c2.6 1.2 4 2.7 5.7 4.5 1 1 2 2.1 3.2 3.1 6 4.9 11.3 6.7 19.5 6.7 1.1 0 2.2 0 3.5-.1l1.3-.1h.9l.1-.9.1-1.3c.4-7 1-9.2 4.1-15.3 3.4-6.7 2.6-13.3 1.8-19.6-.4-3-.7-5.7-.7-8.4zm-98.9-24.1c-1.5 0-3.2-.9-3.6-1.8-.1-.2-.3-.5.3-1.2l.2-.2c1 .1 3.3 2.2 4.3 3.1l-.9.1h-.3zm-25.3.9c-.3-1.9.4-2.3.7-2.5.7-.5 1.8-.7 3.2-.7 2.9 0 6.2 1.1 7.3 1.8.2.3 0 1.9-.2 2.6-.4 2.2-.9 5.8 2.5 7.4 1.8.8 4.2 1.3 6.4 1.3 2.6 0 4.8-.7 6.3-1.9 1.1-.9 2.8-3.1 1.8-7l-.1-.5c.2.2.5.4.7.6 5.3 3.9 11.9 5.7 20.2 5.7 5 0 9.9-.7 13.2-1.2.6-.1 1.3-.2 1.9-.3 1.2-.2 2.2-.4 3.2-.4.9 0 1.6.2 2.3.6 1.6 1 2 1.7 2.1 2 .1.9-2.1 3.1-3.8 4.7-.9.9-1.9 1.8-2.8 2.9-.5.5-.8.6-1.4.8-1.5.5-3.1 1.1-4.1 3.9-.4 1.1-.2 2.3.3 4.3.1.7.5 2.5.5 2.9-.2 1.3-.8 2.1-1.4 3.1-1.3 1.9-3.2 4.5-.1 9.4 1.3 2 4.5 4 9.2 6.7 1.4.8 2.7 1.6 3.6 2.2 2.8 1.9 5.8 3.1 8.4 4.1l.2 102.4h-82.6l-.5-112.6h2.7l.2-.8.3-1.2c1.3-5.3-2-6.9-3.3-7.5-.4-3.4-.4-4.9 1-8.5.6-1.5 1.5-2.9 2.3-4.2 1.7-2.7 3.6-5.8 3.7-10.6 1.9-.4 4.7-1.4 4.9-4.6.1-1.1-.2-2-.9-2.8-1.3-1.5-3.5-1.7-5.8-1.8-.7-.2-1.4-.2-2.1-.3zm-49.9 44.3l.1-1.2.1-1.8c.3-5.3 7.5-11.8 12-13.4l1.1-.4h.1l.9-.3c.5 1.2 1.3 2.4 2.6 3.5 1 .8 2.4 1.4 4.3 2 1.4.5 3.9 1.4 4.4 2.1.2.5-.2 2.5-.3 3.3-.4 2.1-.9 4.2.4 5.9.4.6 1.3 1.4 2.7 1.5 1.7.2 3.3.3 4.7.3 4.8 0 6.9-1.2 8.8-2.3.6-.4 1.3-.7 2-1l.5 114.6V298c-1.4.7-2.9 1.5-4.4 2.2-3 1.4-6.3 1.8-9.8 2.3-3.3.5-6.7.9-10 2.2-13.9 5.4-18.8 14.8-22.7 24.8-1.9.5-4 .7-6.7.7-1.5 0-3.1-.1-4.6-.1-1.5-.1-3.1-.1-4.7-.1-2.9 0-6.6.2-10.4 1.6-4.9 1.8-8.8 5.1-12.6 8.3-3.4 2.8-6.6 5.5-10.4 7.1-2.5 1-5.7 1.7-8.7 1.7-1.8 0-3.4-.2-4.8-.7-1.6-.6-2.9-1.6-4.2-2.7-1.8-1.5-4.1-3.4-7.3-3.7 0-3 .2-5.7.5-8.2.5-5 .9-9.6-.6-16.2-.4-1.6-.5-3.3-.7-4.9-.3-3.4-.7-6.9-2.8-10.2-.9-1.4-1.6-2.5-2.3-3.5-1.8-2.7-3.1-4.6-4.4-8.3-2.8-7.9-5.9-13.7-10-21.1-1.9-3.5-5.9-6-9.4-8.3-2.4-1.5-5.7-3.6-5.9-4.9 0-.1-.1-.3.3-.7.6-.9 1.2-1.7 1.8-2.5v-.1c3.9-5.4 6.7-9.4 5.4-13.2-.7-1.9-2.2-3.3-4.8-4.3-.6-2-1.9-3.3-2.9-4.3-.9-.9-1.4-1.4-1.5-2.1-.3-1.2.1-2.1.5-3.4.4-1 .8-2.1.8-3.4.1-2.2-.1-4.8-.4-7.6-.1-.8-.2-2.4-.3-4.1.3.1.6.3 1.1.3 1.4 0 2.8-1 10.8-10.7l.1-.1c.3-.3.4-.5.5-.6 3.8-4.5 9.1-6.7 15.8-8.7 3.7-1.1 6.8-2.7 9.8-4.3 2.5-1.3 4.9-2.6 7.5-3.5.2-.1.5-.1.9-.1.6 0 1.4.1 2.2.2.9.1 1.9.3 2.9.3.8 0 1.6-.1 2.3-.3 2.6-.8 4.6-2.3 6.5-3.9 1.5-1.2 2.9-2.3 4.5-2.9 2.4-.9 3.8-1.2 4.8-1.4 3.3-.6 4.2-1.5 7.2-6.3.7-1.1 1.2-2.1 1.7-3 1.1-2.2 1.7-3.4 4.5-4.4l.8-.3.5-.2.1-.6.2-.8c.7-3.4-.4-6.4-2.9-8.5.7-1.5 1.2-3.3 1.7-5.1.9-2.8 2.3-7.6 3.8-7.6h.3c2.2.6 4.4 6.7 4.9 13.4v.2c.6 2.4 2 3 2.8 3.1h.5c1.3 0 2.5-.8 3.4-2.3 1.2-1.7 1.1-4.4.7-9.4-.1-1.6-.2-3.4-.2-4.7.3.1.6.1.8.2.8.2 1.5.3 2.1.3.8 0 1.5-.3 2-.8.7-.6.9-1.6.7-2.5-.5-2.3-.4-8.9 1.9-11.3.6-.5 1.2-.8 2.1-.8.4 0 .8.1 1.3.2l1.7.4 1.3.9zM208.2 238h118v131.4c-1-.5-2.1-1.4-3.7-3.2-1.7-2-2.7-6.8-3.7-11.4-1.7-7.9-3.4-16.1-9.7-17.7-.3-.1-.5-.1-.8-.1-.4 0-.8.1-1.1.2h-.1v-.2c.1-2.2-1-4.5-2.8-6-1.3-1.1-2.9-1.7-4.5-1.7-.6 0-1.2.1-1.8.2l-.3.1.3-2.4c.8-2.9 1.1-6.1 1-10 0-1 0-2.1-.1-3.3v-.2c-.4-2.5-.6-5.1-.8-7.9v-.4c0-.8-.1-1.7-.2-2.5-.1-1.2-.2-2.7-.2-4.2-.1-5.5-.3-13.8-7-13.8-1.6 0-2.9.6-3.8 1.8-2 2.7-.6 7.3.7 11.8.4 1.3.8 2.6 1 3.6.2 1 .4 1.9.6 2.8.3 1.5.6 3.4.7 5.3 0 .3-.1.7-.2 1.2-.1.3-.2.7-.2 1-.2.8-.4 1.5-.6 2.2-.8 2.3-2 4.1-3.6 5.6l-.1.1c-.6.6-1.2 1.2-1.9 1.7l-.1.1-1.5 1.5c-1.4 1.5-2.5 3.8-3.5 6-.7 1.4-1.2 2.5-1.7 3.2-.4-1.1-.7-2.3-1.1-3.4-1-3.5-2.1-7-3.9-10.5 0-.3.1-1 .2-1.2.3-1.5.6-3.3-.5-4.9-.9-1.3-2.3-2-4.1-2-.4 0-.8 0-1.2.1h-1.2c-.6-.7-.8-1.7-1-2.9-.3-1.8-.7-4.3-3.1-6.4-2.5-2.3-7.3-2.8-11.9-3.3-2.6-.3-5.6-.6-7-1.3-5.9-2.7-10.9-4.8-17.4-4.8-1.5 0-3.1.1-4.8.3-4.5.6-8.1 2.1-11.5 3.8V238h.2zm120.9 92.1v-64.5l123.9 3.9v.1c-.4 1.7-1.3 2.9-2.4 4.4-.9 1.3-1.9 2.6-2.7 4.4-1.5 3.5-2.1 6.3-2.9 9.8l-.3 1.6c-1.8 8.5-6.6 14.9-11.7 21.7-3 4-6.1 8.1-8.7 12.9-1.7 3-2.9 6.2-4.1 9.3-1.2 3.1-2.4 6-3.8 8.5l-1.1 1.9c-2.3 3.9-4.5 7.5-6.5 11.6-.6 1.3-.9 2.6-1.1 3.7-.2 1-.3 1.9-.7 2.6v.1c-.1 0-.2.1-.3.1-.9.2-2.1.7-2.8 1.9-.6-.6-1.3-1.1-2-1.6-.4-.2-.7-.5-1.1-.7-.7-.9-1.4-1.6-2.3-2.4-.5-.4-.9-.7-1.4-1.1-5.6-3.1-10.9-5.1-16.9-6.4l-2.1-.3c-1-.1-2-.2-3.1-.4-3.2-.3-6.5-.7-9.5-1.5-1.4-.3-2.8-.8-4.3-1.3-4.2-1.5-7.8-3.5-11.8-5.8-3-1.7-5.2-3.4-7.3-4.9-3.7-2.6-6.8-5-13-7.6zm-36.4-32.2l-.3-.9c-1.1-3.8-1.7-6.2-1.6-7.1 1.5.4 1.8 4 1.9 8zm36.4 72.2v-36.7c5 2.2 7.8 4.3 10.8 6.6 2.2 1.6 4.4 3.3 7.6 5.1 4.1 2.4 7.9 4.5 12.3 6.1 1.6.6 3.1 1 4.6 1.4 3.2.9 6.6 1.2 9.9 1.6 1 .1 2.1.2 3.1.3.7.1 1.3.2 2 .3 5.6 1.2 10.7 3.2 15.9 6.1.4.3.7.5 1.1.8.8.7 1.4 1.4 2 2.2l.1.1.1.1.1.1.1.1h.1c.4.2.8.5 1.2.8 1.1.7 2 1.6 2.8 2.6.1.1.1.2.2.2-.4 0-.8-.1-1.1-.1-1.5-.2-3-.4-4.5-.4-2.2 0-4.1.4-5.8 1.4-2.3 1.3-3.8 2.6-5 3.7-2.1 1.9-3.2 2.8-7.6 2.8-1.7 0-4.6-.9-7.5-1.8-3.9-1.2-8.3-2.5-12.1-2.5-2.3 0-4.1.5-5.6 1.5s-2.5 2.6-3 4.6h-.1c-2.2 0-4.2-1.2-6.4-2.6-2.2-1.4-4.5-2.8-7.3-3.3-2.7-.5-4.7-.6-6.4-.7-.6-.3-1.1-.4-1.6-.4zm-33.2-33.9l.3-.6.3-.9c.1.2.1.3.2.4.1.2.2.5.3.7l-.2.1c-.2.1-.6.2-.9.3z"/><path fill="#2c3437" d="M388 433.3c-9.4 0-13.1-7.8-16.7-15.4-2.1-4.5-4.3-9.1-7.7-12.5h-.1l-.3-.4-.4-.3.1-.1c-1.6-2.5-2.2-5.1-1.8-8.2-.4.1-.8.2-1.1.2h-.3c-.7 0-1.3-.4-1.6-.9-.3-.4-.6-1.1-.4-2.6-1.1-1-1.9-2.4-2.2-3.9-.4-1.9.1-3.7 1.4-5 .8-.9 2.2-1.4 3.6-1.4h.6c1.3.1 2.3.7 2.9 1.7 1.4 2.3 1.5 6.6.1 9.3h.9c3.1 0 6.1 1.1 8.9 2.2 2.5.9 5.1 1.9 7.6 2h.3c2.5 0 5.2-1.4 7.7-2.7 2.7-1.4 5.4-2.8 8.2-2.8 1.3 0 2.4.3 3.5.9 8.5 4.5 4.7 14.2.9 23.6-1.8 4.6-3.7 9.3-4 13l-.1 1-1.2.5c-3.3 1.1-6.2 1.8-8.8 1.8zm-21.8-31c3.9 3.9 6.3 8.9 8.6 13.8 3.5 7.4 6.3 13.2 13.1 13.2 1.8 0 3.9-.4 6.3-1.2.6-4.1 2.4-8.6 4.1-12.9 3.9-9.8 5.9-15.9 1-18.5-.5-.3-1.1-.4-1.7-.4-1.8 0-4 1.1-6.3 2.3-2.7 1.4-6.1 3.2-9.7 3.2h-.4c-3.1-.1-6-1.2-8.8-2.2h-.1c-2.6-1-5.1-1.9-7.4-1.9-.1 1.7.4 3.2 1.3 4.6zm-5.8-15.7c-.4 0-.7.1-.8.2-.1.1-.5.5-.3 1.4.2 1 1 1.9 1.2 2l.3.1c.2-1.4 0-2.9-.4-3.7.1 0 0 0 0 0z"/><path fill="#cf0a2c" d="M360.3 383.2h.5c1.1.1 2 .6 2.5 1.4 1.4 2.3 1.4 6.8-.1 9.3-.1.1-.1.2-.2.3.6-.1 1.2-.1 1.8-.1 3 0 5.9 1.1 8.8 2.1 2.6.9 5.2 1.9 7.7 2h.3c2.7 0 5.4-1.4 8-2.8 2.6-1.4 5.3-2.8 7.9-2.8 1.1 0 2.2.2 3.3.8 8.1 4.3 4.3 13.8.7 22.9-1.8 4.6-3.7 9.3-4 13.2l-.1 1-.9.3c-3.3 1.3-6.2 1.8-8.6 1.8-9.1 0-12.7-7.7-16.3-15.2-2.2-4.6-4.5-9.4-8.1-12.9 0 0 0-.1-.1-.1-1.8-2.6-2.4-5.6-1.8-9-.5.3-1.1.5-1.8.5h-.3c-.5 0-1-.3-1.3-.7-.2-.2-.6-.8-.3-2.5-1-.9-1.9-2.3-2.2-3.8-.4-1.7.1-3.3 1.2-4.5.9-.8 2.2-1.2 3.4-1.2m.9 7.8c.4-1.7.2-3.8-.4-4.8-.1 0-.2-.1-.4-.1-.4 0-1 .1-1.2.3-.2.2-.7.7-.5 1.8.2 1.2 1.1 2.2 1.5 2.3l1 .5m20.4 10.3h-.4c-3-.1-5.9-1.2-8.6-2.2-2.7-1-5.3-2-7.7-2h-.4c-.2 2.1.3 3.9 1.4 5.5 3.9 3.9 6.3 8.8 8.6 13.7 3.6 7.5 6.4 13.5 13.6 13.5 1.9 0 4.1-.4 6.7-1.3.5-4.1 2.3-8.6 4.1-13.1 4-10.1 6.1-16.4.7-19.2-.6-.3-1.2-.5-1.9-.5-1.9 0-4.1 1.1-6.5 2.4-3 1.5-6.2 3.2-9.6 3.2m-21.3-19.1c-1.5 0-3.1.6-4 1.6-1.4 1.4-1.9 3.4-1.5 5.4.3 1.5 1.1 2.9 2.1 4-.2 1.5.2 2.2.5 2.7.5.7 1.2 1.1 2 1.1h1c-.2 2.7.4 5.2 1.7 7.5l-.1.1.7.7.6.8.1-.1c3.1 3.3 5.3 7.8 7.3 12.1 3.5 7.4 7.5 15.7 17.2 15.7 2.7 0 5.7-.6 9-1.9l.9-.3.6-.2v-.6l.1-1c.3-3.7 2.1-8.4 3.9-12.9 3.7-9.2 7.8-19.5-1.1-24.2-1.2-.6-2.4-.9-3.8-.9-2.9 0-5.7 1.5-8.4 2.9h-.1c-2.5 1.3-5.1 2.7-7.5 2.7h-.3c-2.4-.1-4.9-1.1-7.4-2-2.9-1.1-6-2.2-9.1-2.2h-.1c1-2.8.9-6.8-.5-9-.7-1.1-1.8-1.8-3.3-1.9-.1-.1-.3-.1-.5-.1zm-.4 5s.1 0 .2-.1c.2.6.3 1.4.2 2.2-.2-.3-.5-.8-.6-1.3-.1-.4.1-.7.2-.8zm21.7 15.1c3.7 0 7.2-1.8 10-3.3 2.2-1.2 4.4-2.3 6-2.3.5 0 1 .1 1.5.3 4.2 2.2 3.1 7.1-1.2 17.9-1.7 4.3-3.5 8.7-4.1 12.7-2.2.7-4.1 1.1-5.8 1.1-6.5 0-9.1-5.4-12.7-12.9-2.3-4.9-4.7-9.9-8.7-13.9-.8-1.2-1.2-2.5-1.2-3.9 2.1.1 4.3 1 6.7 1.8h.1c2.9 1.1 5.8 2.1 8.9 2.3.2.2.3.2.5.2z"/><path fill="#2c3437" d="M308.5 133.8c-.4 0-.9-.1-1.7-.3-.2-.1-1.3-.4-1.3-.4l-.4-.5c-2.9-3.6-1.9-6-1.3-6.9.9-1.3 2.4-2 4.5-2 .9 0 1.8.1 2.8.4l1.4.4.1 1.4c0 .3.2.9.3 1.5.5 2.1 1 4.1-.2 5.4-.5.5-1.2.8-1.9.8h-.4c-.2 0-.4-.1-.5-.1-.4.1-.8.3-1.4.3zm-.3-4.1l1-1c0-.1-.2-.8-.2-1h-.6c-.7 0-1 .2-1.1.2 0 .1 0 .7.7 1.7 0 0 .1.1.2.1z"/><path fill="#cf0a2c" d="M308.3 124.2c.8 0 1.7.1 2.7.4l1 .3.1 1.1c0 .3.2 1 .3 1.6.5 2 .9 3.8-.1 4.9-.4.4-.9.7-1.5.7h-.3c-.2 0-.5-.1-.7-.2-.5.3-.9.5-1.4.5-.4 0-.9-.1-1.5-.3-.2-.1-.4-.1-.7-.2l-.5-.1-.3-.4c-2.7-3.4-1.8-5.5-1.3-6.3 1-1.4 2.4-2 4.2-2m0 6l.3-.3 1-1 .2.1c-.1-.3-.2-.7-.2-1-.1-.3-.1-.6-.2-.9-.4-.1-.7-.1-1-.1-.9 0-1.4.2-1.5.4-.2.2-.2 1.1.8 2.4.1 0 .1 0 .2.1.1.3.3.3.4.3m0-7c-2.2 0-3.9.8-4.9 2.3-.6 1-1.7 3.6 1.3 7.5l.3.4.2.3.3.1.5.1c.2.1.5.1.6.2.8.2 1.3.3 1.8.3s1-.1 1.5-.4c.1 0 .3.1.4.1h.4c.9 0 1.7-.4 2.3-1 1.3-1.5.8-3.6.3-5.8-.1-.5-.3-1.2-.3-1.4l-.1-1.1.1-.8-.7-.2-1-.3c-1.1-.2-2.1-.3-3-.3zm-.5 5h.8v.4l-.5.5c-.2-.5-.3-.7-.3-.9z"/></svg>