<svg xmlns="http://www.w3.org/2000/svg" viewBox="0 0 85.5 85.7"><path d="M80.6 58.1l-16.1-8.3c-3.5-1.8-7.9-.9-10.4 2.3l-4.3 5.5c-4.2-2.4-8-5.1-12.2-9.4-4.4-4.4-7-8.1-9.5-12.5l5.5-4.3c3.1-2.5 4.1-6.8 2.3-10.4L27.6 5c-1.1-2.1-3-3.6-5.3-4.2-2.3-.6-4.7-.2-6.7 1.1L5.4 8.7C2.1 10.9.3 14.6.5 18.6c.3 4.2.7 7.4 1.3 9.7 3.1 12 10.5 24.3 20.9 34.7 10.4 10.4 22.7 17.8 34.7 20.9 2.3.6 5.6 1 9.7 1.3h.7c3.7 0 7.2-1.9 9.2-5l6.7-10.3c1.3-2 1.6-4.4 1-6.6-.6-2.2-2-4.1-4.1-5.2zm-1.9 8.6L72 77c-1 1.5-2.7 2.4-4.5 2.3-3.7-.2-6.7-.6-8.6-1.1C48 75.4 36.6 68.5 27 58.8c-9.7-9.7-16.5-21-19.4-31.9-.5-1.9-.9-4.9-1.1-8.6-.1-1.8.7-3.5 2.2-4.5L18.9 7c.5-.3.9-.4 1.3-.4.2 0 .4 0 .6.1.4.1 1.1.4 1.5 1.2l8.3 16c.5 1 .2 2.2-.6 2.9l-9.5 7.4 1.2 2.2c3.1 5.8 6.1 10.5 11.8 16.1C39 58 43.8 61.1 49.4 64.1l2.2 1.2 7.5-9.6c.7-.9 1.9-1.1 2.9-.6l16.1 8.3c.6.3 1 .8 1.2 1.5-.1.6-.2 1.3-.6 1.8z" stroke="#000" stroke-width="2" stroke-miterlimit="10"/></svg>