<svg xmlns="http://www.w3.org/2000/svg" viewBox="0 0 500 500"><path fill="#404040" d="M153 434.7c0-.2-.1-.5-.1-.7-.2-1.3-.9-2.5-1.9-3.3-1.6-1.2-2.8-2.7-3.7-4.4-.2-.4-.7-.9-1.2-1.1-1.8-.6-4.1-1-6.2.3-.7.5-1.3.7-2 .8-.5 0-1.2.2-1.6 1.3-.5 1.4-.2 2.3 1.1 3 .3.2.6.3.9.4l.2.1c.8.3 1.2.8 1.4 1.6-1.3 0-1.8 1.1-2 1.6-.4 1 .2 1.7.5 2l-1.5.4-.1.2c-.8 1.4-1 2.8-1.2 4.4h-.1c-.3 0-.6 0-.9-.1-1.5-.5-2.8.1-3.6.7l-.2.1-.1.2c-.6 1.8-.1 3.4 1.3 4.6l.1.1h.1c.4.1.7.1 1 .1l2.1.3c.3.1.6.1.9.1 1.5 0 2.7-.8 3.5-2.2.1-.1.1-.3.2-.4.2-.4.4-.8.7-1h1.5c1.2 0 2.1-.3 2.8-.9 1.4-1.1 3-1.5 4.4-1.8 2-.4 3.2-1.7 3.6-3.7.4-1 .3-1.8.1-2.7zm-12.2 4.1l.1-.1c.7-.6.6-1.4.6-2 0-.4 0-.8.2-1 .5-.7 1.1-1.6 1.4-2.8v-.2c-.5-1.6-1.4-2.9-2.7-4 .9-1 1.9-1.4 3.1-1.3 1.1.1 1.6.5 2 1.3.7 1.4 1.7 2.6 3 3.5 1.2.9 1.9 2.1 2 4 .1 1.3-.5 2-1.8 2.3-.2.1-.5.1-.7.1-.5.1-1 .2-1.5.4-.9.3-1.6.7-2.3 1.2-1 .8-1.9 1-2.9.7-1.2-.3-2.1 0-2.8 1.1 0 .1-.1.1-.1.2 0-.2.1-.4.1-.7v-.3c0-.8 0-1.5.4-2.2l1.9-.2zm-3 4.6c-.1 0-.1.1 0 0l-.1.3c-.6.9-.8 1.1-1.8.9-.2 0-.4-.1-.7-.1-.4-.1-.8-.1-1.2-.3-.1 0-.2-.1-.4-.3v-.1c.3 0 .5 0 .8.1.3 0 .6.1.9.1h.2c.5 0 .9 0 1.4-.1.3-.2.6-.3.9-.5zm156.4-195.7l-.4-.7c-.3-.6-.7-1.2-1.1-1.8-.3-.4-.7-.8-1.2-1.2-.3-.2-.7-.4-1-.6l-.6-.3c-.5-.3-.8-.6-.8-1-.2-2.1-2-2.2-2.6-2.2h-1l.1-.1c.4-.6.7-1.2 1.1-1.7.6-1 .7-2.1.2-3.2-.7-1.8-2-1.7-2.9-1.4-.5.2-1 .5-1.5.7-.2.1-.5.3-.7.4-2 1-3.3 2.7-3.8 5-.2 1.1-.3 2.2-.3 3.2 0 1.1-.3 1.9-.9 2.6-.3.4-.6.5-.6.5-1.4-.1-2.1.7-2.7 1.4l-.3.3c-.5.5-.8.8-1.2.8-1.6-.2-2.4.8-3 1.6-.4.4-.7.9-1 1.3-.3.4-.6.8-.9 1.1-.1.1-.1.2-.2.2-.3.3-.4.6-.7.6-.8-.5-1.3-1.2-1.6-2.1-.3-.8-.5-1.6-.8-2.4l-.3-1c-.3-.9-.1-1.6.4-2.2.4-.4.9-.9.8-1.7v-.8c0-.7-.1-1.5-.3-2.2-.7-2.2-1.4-3.6-4.8-2.9-.8.2-1.5.1-2.2-.4-.9-.6-1.5-1.4-1.6-2.4-.2-.9 0-1.8.5-2.5.1-.1.2-.2.2-.3.1-.1.2-.3.3-.4.4-.6.4-1.3-.1-2-.2-.3-.8-1.2-1.7-1l-.4.1c-.8.1-1.8.3-2.6 1-.6.6-1.2 1.1-1.9 1.6-1.3 1.1-2.7 2.3-3.9 3.7-.7.9-1.5 1.5-2.2 1.9-1.1.5-1.9 1.3-2.7 2.1l-.3.4c-.8.8-1.2 1.7-1.2 2.9 0 1.3-.1 2.6-.1 3.9-.1 1.4-.1 2.7-.1 4.1 0 1.6-.3 3.2-.6 4.7-.2.9-.5 1.6-1.1 2.4-.7.9-1.4 1.8-1.9 2.9-.9 2.1-2.5 3.6-4.1 5.3l-.1.1c-.5.5-1 .7-1.6.7H227c-.7 0-1.6.2-1.7 1.5-.2 1.9-.8 3.7-1.5 5.5-.2.5-.4 1.1-.6 1.6-.9 2.5-1.3 4.4-1.6 6.3-.3 2.1-.9 4.3-2.1 6.6-3.3 6.8-7.5 12.1-12.8 16.3-.7.5-1.3 1-2.1 1.2-1.3.3-2.6 1-3.9 2.1l-.2.2c-.3.3-.6.5-.9.6-1.1.2-1.7 1-2.3 1.7l-1 1.2c-1.1 1.3-2.2 2.7-3.4 4-1.1 1.3-2.3 2-3.6 2.4-1.4.4-2.6 1.3-3.6 2.7-.2.3-.4.6-.6.8-.1.2-.3.4-.4.6-.8 1.2-1.6 2-2.7 2.2-.4.1-.8.3-1 .5-.5.5-1 .7-1.9.7-1.1 0-2.1.3-3.2 1.2l-.5.3c-2.6 1.9-5.2 3.9-7.5 6.2-.8.8-1.6 1.5-2.5 2.2l-.2.1c-.4.3-.9.6-1.4.9-1 .5-1.7.5-2.4 0-1.1-.8-2.3-.7-3.3.2-.5.5-1.1.6-1.9.7-.4 0-.8.1-1.2.2l-.8.1-.1.2c-1.4 2.4-3.2 5.1-5.8 7-.9.6-1.3 1.6-1.1 2.6-1.2.6-1.3.7-2.5 2-.1.2-.3.3-.5.5s-.4.4-.6.7c-.5.6-1 1.2-1.3 1.9-.4.8-.8 1.7-1.1 2.5-.3.7-.6 1.1-1.3 1.3-.6.2-1.1.6-1.5.9l-.4.3c-5.1 4.3-10.3 8.7-14.2 14.4-.5.7-1.1 1.4-1.6 2.1-.5.6-.9 1.1-1.4 1.7-.9 1.2-1.7 2.4-2.2 3.3-1.4 2.2-2.3 4.3-2.8 6.4-.2.9-.7 1.7-1.4 2.5-.3.4-.7.7-1 1.1-.7.8-1.4 1.5-2.1 2.3-.7.7-1.1 1.6-1.5 2.4-.8 1.9-1.1 4-.8 6.8.1 1.4.4 3 1.7 4.2 1.3 1.1 2.2 2.5 3 3.9 1.4 2.3 3.5 3.3 6.1 2.9.8-.1 1.5-.1 2.2.2.2.1.4.1.6.2.5.2 1 .3 1.4.6 1 .5 2.1.7 3.3.6.7 0 1.5-.1 2.2 0 1.1.1 2.1-.4 2.9-1.3l.1-.1c.2-.2.4-.5.6-.8.2-.4.6-.5 1-.4.6.1 1.3.3 2 .6.8.4 1.2.9 1.4 1.8.5 2.6.7 2.7 3.1 3.5.6.2 1.4.4 2.3.4 1.2 0 2.7-.1 4.1-.4 1.3-.3 2.1.1 2.8 1.2l.1.2c.9 1.4.9 1.4.4 3.3l-.1.2.4.6c.2.3.4.5.6.8.8 1.3 2.1 1.9 3.8 2 .8 0 1.6 0 2.3-.1 1.2-.2 2.4-.5 3.5-.7l.4-.1c1.7-.4 2.4 0 3.2 1.6.1.2.2.4.4.6.1.1.1.2.2.3l.1.2h6.8c1.4 0 2.7-.1 4-1 .1 0 .3-.1.4-.1 1.1-.2 2.2-.7 3.2-1.1 1.2-.5 2.2-1 3.5-1.1.5 0 .9-.3 1.2-.6l.3-.2 2.4-1.8c1.1-.9 2.2-2.1 1.8-4.1 0-.1-.1-.5.4-.8.2-.2.4-.3.7-.5l2-1.6c1.5-1.2 3-2.4 4.5-3.5.6-.4 1.3-1.1 1.4-2.3 0-.4.1-.8.3-1.2.8-2.1 1.9-3.2 3.6-3.6 1.5-.4 3-.8 4.4-1.2.7-.2 1.3-.4 2-.6.1 0 .3-.1.4-.1.6-.1 1.3-.3 1.9-.9l.1-.1v-.6c0-.3 0-.7.1-1 .1-1.4-.1-3.2-2.2-4.1-.2-.1-.4-.2-.4-.3 0-.1 0-.3.2-.8.4-.7.8-1.3 1.2-1.8 1.7-2.1 2.8-4.2 3.6-6.6.3-.9.6-1.8.1-2.9-.2-.5-.2-1 0-1.8.6-1.8 1.4-3.8 2.7-5.4l1.2-1.5c.6-.8 1.2-1.6 1.9-2.4 1.1-1.4 1.7-2.9 1.6-4.6V359.5c0-1.3.2-2.4.7-3.4.7-1.4 1.4-3 1.5-4.8 0-.3.1-.6.3-.7.4-.4.7-.8 1-1.2 1-1.2 1.9-2.3 3.2-3.1l2.8-1.7c3.2-2 6.4-4 9.7-6 1.9-1.2 3.5-1.9 5.1-2.4 1.5-.4 3-1.1 3.1-3.1l.1-.1c.2-.6.6-.9 1.3-.9 2.3-.2 4.2.6 5.7 2.4 1.7 2 3.9 2.6 6.3 1.8 1.1-.4 2.5-.9 3.4-2.2.8-1.1 1-2.5.8-3.8-.3-1.5-1.2-2.7-2.4-3.5-1.1-.7-2.3-1-3.5-1.2-2.4-.5-3.3-1.6-3.3-4v-3c-.1-1.5.4-2.9.8-4.1.5-1.2 1.2-2 2.2-2.6.4-.2.7-.4 1.1-.6.3-.2.7-.4 1-.6 2.5-1.3 4.8-3 6.9-5 .8-.8 1.7-1.7 1.9-3.2.1-.5.3-1 .6-1.5l.3-.6c.3-.7.6-1.3 1-2 1-2 2.1-4.2 2.7-6.4.2-.8.7-1.3 1.6-1.6.1 0 .3-.1.4-.1.5-.1 1.2-.2 1.7-.9l.1-.2v-.2c-.2-1.1.5-2 1.5-3.1.6-.6 1.1-1.2 1.6-1.8.2-.3.5-.6.8-.9 1.1-1.2 1.7-2.5 1.8-3.8.1-1 .6-1.8 1.2-2.5.8-.9 1.5-1.9 2.3-2.9.6-.7 1.2-1.5 1.7-2.2 1-1.2 1.6-2.4 2-3.5l.1-.2-.1-.2c-.1-.1-.1-.2-.1-.3-.1-.2-.2-.4-.4-.5-1.2-1-1.8-2.2-1.7-3.8.1-1-.4-1.9-1.3-2.5-.4-.3-.7-.6-1.1-1-.1-.1-.3-.4-.1-.9.3-.7.6-1.1 1.1-1.3l.6-.3.6-.3c1.4-.6 2.5-1.6 3.3-3 .2-.4.4-.8.7-1.2.2-.3.3-.6.5-.9 1.4-1.8 1.4-3 .7-4.2zm-13.4-8.1c.5-1.9 2-2.8 3.6-3.5h.1v.1c-.4 1-1 1.9-1.9 2.7-.1.1-.3.2-.4.3-.2.2-.5.3-.7.6-.4.4-.7.9-.9 1.4-.1.2-.1.4-.1.6 0-.8.1-1.5.3-2.2zM147.3 350.7l.5-.6c.1-.1.3-.2.5-.3.1 0 .2-.1.3-.1l.6-.3c.3-.1.6-.3.9-.4.7-.4 1-1.1.8-1.9-.1-.2-.1-.4-.2-.6v-.1l.8-.8c.8-.7 1.6-1.5 2.3-2.3.7-.8 1.3-1.8 1.9-2.7.2-.3.5-.7.7-1 .4-.1.8-.1 1.3-.2 1-.1 2-.1 2.8-1.1 2.6 1.5 4.9.3 6.6-1 1.2-.9 2.4-1.9 3.6-3.1 1.8-1.8 3.8-3.3 5.8-4.8.5-.3.9-.7 1.4-1 .7-.5 1.4-.7 2.4-.7.8 0 1.7-.1 2.6-1 .2-.2.5-.4.7-.4 1.5-.3 2.4-1.3 3.3-2.4.3-.4.7-.9.9-1.3.9-1.5 2-2.4 3.6-2.9 1.7-.5 2.9-1.7 3.8-2.7 1.4-1.5 2.7-3.1 4.2-4.9.6-.7 1.1-1.2 1.8-1.5.5-.2.9-.5 1.3-.9l.1-.1c1.1-.9 2.2-1.5 3.3-1.8.8-.2 1.6-.6 2.5-1.4 2.5-2.1 5.5-4.7 7.8-7.7 4.1-5.3 6.6-10.1 7.9-15 .1-.5.3-1.2.4-1.8.3-2.7 1.2-5.3 2.1-7.8.4-1.2.8-2.4 1.2-3.7.2-.5.3-1 .5-1.5.5-.2 1.1-.1 1.8-.1h.3c1.4.1 2.6-.4 3.6-1.4l.5-.5c1.6-1.7 3.3-3.4 4.3-5.7.4-.9 1-1.7 1.6-2.5.7-.9 1.2-2 1.5-3.2.3-1.6.7-3.4.7-5.4 0-1 .1-2 .1-3 .1-1.4.2-2.8.1-4.2-.1-1.6.6-2.7 2.1-3.5 1.5-.8 2.9-1.9 4.2-3.5 1.1-1.3 2.4-2.4 3.7-3.4.2-.1.3-.3.5-.4 0 .1-.1.2-.1.3-.8 3.8 1.5 6.7 4.1 7.5.8.3 1.7.5 2.7.1.3-.1.5-.1.7-.2.3 0 .7 0 .8.4.5 1.2.9 2.2 0 3.2-.9 1.1-1.1 2.6-.7 4 .2.7.4 1.5.6 2.2l.3 1.2c.5 1.6 1.5 3 3.2 4.3L250 279.8l-19.2 16-70.2 69.5-2-2.7-14.2-8.2c.6-1.2 1.7-2.4 2.9-3.7zm63.8 28.4c-.4 1.1-.4 2 0 3 .2.5.1 1-.1 1.6-.6 1.9-1.4 3.5-2.6 4.9-.7.8-1.2 1.7-1.8 2.6l-.2.4c-.5.8-.6 1.6-.5 2.5.2 1 .8 1.8 1.8 2.2.8.3 1 .8.8 1.6-.4.2-.8.3-1.3.4-.2 0-.5.1-.7.2-1.8.5-3.7 1-5.6 1.5-1.1.3-2 .9-2.8 1.8-1.3 1.5-2 2.8-2.3 4.3-.1.7-.4 1.2-1.1 1.7-1 .8-2 1.6-3 2.3-1.2.9-2.3 1.8-3.5 2.7-1 .8-2.1 1.9-1.6 3.7.1.4 0 .8-.4 1.1l-.4.3c-1.3 1.1-2.5 2.2-4.3 2.5-.6.1-1.1.3-1.7.5-.2.1-.4.1-.5.2-.6.2-1.2.5-1.8.7l-1.1.4h-.1c-.1 0-.3.1-.4.2-1.6 1-3.4 1-5.3 1h-3.1l-.1-.2c-.2-.3-.4-.5-.6-.7-1.4-1.8-3.4-2.4-5.7-1.7-1.7.5-3.3.8-4.9.8-1.3.1-2-.3-2.4-1.2v-.1c0-.1 0-.3.1-.4.4-.8.3-1.6-.2-2.4-.2-.3-.4-.5-.5-.8-.4-.6-.9-1.3-1.3-2-.7-1.3-1.9-1.8-3.5-1.7-.3 0-.6.1-.9.1l-1.8.2c-.6.1-1.2.1-1.8.2-1.1.1-2.1-.1-3.2-.8l-.1-.4c-.1-.5-.2-1-.4-1.5s-.3-1-.7-1.4c-1.9-1.8-4-2.5-6.3-2.2-.6.1-1.5.3-2 1.3s-1.3 1.3-2.7 1.4c-1.2 0-2.6-.1-3.9-.7-2-.9-3.7-1.2-5.5-.8-1 .2-2-.3-2.8-1.3-.2-.2-.3-.4-.4-.7-.2-.3-.4-.6-.6-.8l-.4-.6c-.5-.7-1.1-1.4-1.7-2.1-.7-.7-1.1-1.5-1.3-2.4-.5-2.4-.3-4.7.7-6.8.2-.3.4-.6.7-.9l.3-.3c1-1.2 2.1-2.3 3.1-3.4.8-.8 1.3-1.8 1.6-2.9.9-3.6 2.7-6.9 5.4-10.1.9-1.1 1.9-2.3 2.8-3.5 2.1-3 4.7-5.6 6.8-7.5 1.4-1.3 2.8-2.6 4.3-3.8l1.7-1.5c.8-.7 1.6-1.4 2.6-1.6.8-.2 1.4-.8 1.7-1.7.1-.2.1-.3.2-.4 0-.1.1-.2.1-.2l13.8 7.9 33.8 46 .8-.6-31.2-42.6 21-20.8 6 16.7 25.7 10.6c-1.2 1.9-2 4-2.7 6zm59-82.2c-.3.5-.6 1.1-.8 1.6l-.3.6c-.3.6-.7 1.3-.8 2-.2.9-.7 1.6-1.6 2.5-1.8 1.7-3.8 3.1-5.8 4.2-.5.3-.9.5-1.4.8l-.9.5c-1.7.9-2.9 2.4-3.6 4.5-.5 1.3-1 3-.8 5v2.8c.1 4 2.1 5.4 5.1 6.2.2.1.5.1.7.2.7.2 1.4.3 2.1.7.8.5 1.2 1.2 1.2 2.2 0 .7-.2 1.3-.8 1.7-2 1.5-3.6 1.3-5.2-.5-2.1-2.4-4.8-3.3-8.2-3-1.2.1-2 .6-2.5 1.6-.3.5-.5 1-.8 1.6l-.3.6c-.1 0-.1.1-.2.1-.3.1-.6.3-.9.4-1.9.6-3.7 1.5-5.5 2.6-4.7 2.9-8.6 5.3-12.3 7.6-1.7 1.1-3 2.6-4.2 4-.4.4-.7.9-1.1 1.3-.3.4-.6 1-.6 1.5-.1 1.4-.5 2.7-1.4 4.4-.7 1.3-1 2.8-.9 4.5v6.2c0 1.4-.4 2.6-1.3 3.7-.6.7-1.2 1.4-1.7 2.2-.3.3-.5.7-.8 1L189 361.7l-6-16.7h-.1l48.6-48.2 5.3-4.4-.3.5 10.8 6.8 14.1-2.3 10.4-4.3c-.5 1.3-1.1 2.6-1.7 3.8zm21.7-46.8l-1.5 2.7c-.4.7-1.2 1.1-1.9 1.4-2.9 1.4-3.1 1.5-4 4.9v.2c.4 1.3 1.3 2.1 2.1 2.8.5.4.7.6.7 1-.1 2 .5 3.6 1.8 4.9-.2.6-.6 1.1-1 1.6l-1.4 1.7c-1 1.3-2.1 2.6-3.1 4-.7.9-1.1 1.7-1.2 2.7-.1 1.2-.6 2.3-1.7 3.4-.4.4-.8.9-1.2 1.3-.6.7-1.2 1.3-1.8 1.9-.6.6-1.2 1.3-1.2 2.3l-.6.3c-.5.3-1 .5-1.4.8-.9.5-1.5 1.3-1.7 2.2-.1.5-.3 1.1-.5 1.6l-11.1 4.7-13.7 2.3-10.4-6.5 13.6-11.3 15-24.8c.7.3 1.4.1 2-.6 1-1.2 2-2.5 3-3.7l.1-.1c.4-.5.7-.7 1.2-.6.6.1 1.2-.3 1.6-.5.6-.4 1.2-.9 1.7-1.5.4-.5.7-.6 1.1-.6.8.1 1.3-.4 1.8-.8 1.5-1.5 2.2-3.2 2.2-5.1v-.7c0 .6.3 1.2.7 1.6.7.5 1.8.8 2.5.2.9-.7 1.7-1.1 2.7-1.1l.3.6c.4 1 1.2 1.8 2.2 2.3 1.1.6 1.8 1.3 2.2 2.2.1.3.3.6.5.9.1.1.2.2.2.4.4.2.4.6.2 1zM389.7 145c-.9-.7-1.9-1.1-3-1.4h-.2c-.2-.1-.6-.2-.7-.3-.9-1.4-2.3-1.6-3.5-1.7-1.4-.1-2.8 0-4 0-1.4.1-2.5.6-3.5 1.5-.7.7-1.5 1.2-2.2 1.4-2.1.6-3.2 1.9-4.2 3.3-1.1 1.6-2.3 3.1-3.5 4.5l-.3.4c-.7.9-1.7 1.4-3.2 1.7-1.8.4-3.5-.1-4.8-.5-3.5-1.2-7.7-2.7-11.6-4.8-.7-.4-1.5-.8-2.2-1.1-2.5-1.2-5.2-2.4-8.2-2.5-.2 0-.4-.1-.7-.1-.2 0-.4-.1-.6-.1-1.1-.2-1.7-.8-2-2-.2-.9-.3-1.9-.3-3 0-1.9-.3-3.7-1-5.4-.4-1.1-.9-2.3-.9-3.4 0-1.9-.3-3.8-.5-5.7-.1-.9-.3-1.8-.4-2.8-.1-.7-.2-1.3-.3-1.9-.1-.5-.2-1.1-.3-1.6-.1-.9-.6-1.6-1.5-2.1-1.4-.8-2.4-1.5-3.3-2.2-.7-.5-1.3-1.1-1.9-1.7-.5-.5-1.1-1-1.6-1.4-.7-.6-1.6-1.3-2.5-1.7-.7-.3-1.6-.2-2.2.3-.6.5-.9 1.3-.7 2.1.2.7.5 1.4.9 2 1.2 1.5 1.6 3.4 1.3 5.7-.1.9 0 1.8.2 2.4.3 1.2.9 2.3 1.5 3.4.8 1.5 1 3 .5 4.5-.2.5-.8.8-1.5.8-.5 0-.8-.3-.9-.9-.1-.4-.1-.8-.1-1.2v-.5c-.1-1.4-.5-3.3-2.3-4.4-2-1.2-4.3-2.6-7.1-2.4-1.1.1-2.3.1-3.9.1-.3 0-.5-.1-.6-.3-.1-.2 0-.4.2-.5 1.5-1.5 1.1-3.1.6-4.5 0-.1 0-.1-.1-.2-.5-1-.4-2 .2-3.2.2-.4.5-.7.7-1.1.2-.2.3-.4.5-.6.1-.2.3-.4.4-.6.4-.5.8-1.1 1.1-1.7.6-1.3.4-2.6-.7-3.6-.7-.7-1.3-1.1-1.9-1.4-1-.5-1.6-1.1-2-2.1-.5-1.2-1.3-2.3-2.5-3.3-.7-.7-1.1-1.5-1.1-2.6 0-.5.1-1 .2-1.5 0-.3.1-.5.1-.8l.1-.7c.1-.6.2-1.3.2-2 .1-1.3.1-2.6 0-4v-.1c0-.6 0-1.4-.3-2-1.2-2.6-2.4-4.8-3.9-6.6-.5-.6-1-1-1.8-1.3-1-.4-2-.5-3.3-.3-.1 0-.4 0-.5-.1-.1-.1-.1-.3-.1-.5 0-.3.1-.5.2-.8.1-.2.1-.4.2-.6.2-.7.1-1.5-.3-2s-1-.9-1.7-1c-.5 0-.9-.1-1.4-.1h-.3l-.4-1.9-.1-.1c-.8-.7-1.7-.9-2.5-1.1-.3-.1-.5-.1-.7-.2-.9-.3-1.9-.6-2.8-.9l-1.4-.4c-1-.3-1.8-.9-2.5-1.7-.8-1-1.9-1.6-3.4-1.9h-.2l-.6.4c-.3.2-.6.4-1 .6-1.1.6-1.6.6-2.6-.3-.3-.3-.6-.6-.8-.9l-.4-.7c-.7-1.2-1.4-2.5-2-3.8-.6-1.4-.7-2.5-.1-3.7.2-.4.2-.8.2-1.2v-.5l.1-.4-.4-.1c-2.6-1-4.8-1-6.9 0l-1.9-.9-.2.2c-.7.6-1.6 1.5-2 2.7v.2c.2.8.8 1.3 1.3 1.8l.4.4L255 59c.8.8 1.6 1.6 2.3 2.4 1.2 1.6 2.4 3.2 3.5 4.8.8 1.1 1.6 2.2 2.3 3.3.9 1.2 1.1 2.5.7 4l-1.9.8-.1.2c-.5 1.6.1 2.7.8 3.7 3 3.9 6.2 8.1 9.4 12.4 1.4 1.8 2.7 3.6 4.1 5.4 1.1 1.5 2.2 2.9 3.3 4.4 2 2.7 3.3 5.3 3.9 7.9.3 1.2 1 2 1.6 2.7l.3.3c.8.8 1.7 1.7 2.4 2.6 2.3 3.1 4.1 5.9 5.6 8.7.4.8.6 1.6.6 2.3 0 .9.1 1.8.2 2.7 0 .3.1 1.4 1.1 1.7.9.3 1.3 1.1 1.7 2l.1.2c1.9 4.3 3.2 8.8 4.5 13.2l.6 2.1c.4 1.3.3 2.3-.2 3.3-.9 1.8-1.1 3.5-.5 5.3.2.5.3 1.3 0 2l-2.5 1.1v.8c0 .3.1.6.1.9.2.5.4 1.1.7 1.7.5 1 .4 2-.3 2.8-.9 1.1-1 2.2-1.1 3.3l-.1 1.3c-.3 2.7-.5 5.4-1.1 8.1-.3 1.5-1 2.9-2.2 4.3-1.1 1.4-2.3 2-3.7 1.7h-1.2c-.9-.1-1.8.2-2.6.8-2.1 1.5-4.4 3.1-7.1 5-.6.4-1 1-1.4 1.8-1.2 2.8-1.2 2.9-.2 5.8l.1.4c.1.3.2.6.3 1 .2.4.4.8.7 1.1l.1.1c1.5 1.4 3.1 2.9 5.4 3.4 2.4.5 4.7 1.7 7 3.7.6.6 1.3 1.1 1.9 1.7 1 1 2.2 1.9 3.8 2.9 1.2.7 2.2 1 3.2.9 1.7-.1 3.3.6 4.9 2.2 1.5 1.5 2.8 3.3 4 5.2.5.8.8 1.7.8 2.7.2 3 .1 6-.5 8.9l-.1.6c-.3 1.8-.7 3.6-1.6 5.2l-1.8 3.3c-.9 1.6-1.8 3.3-2.8 4.9l-.4.7c-1.2 2.1-2.4 4.1-4.7 5.1-.2.1-.3.2-.4.3-.5.6-1.3 1.5-.9 2.9.1.5.6 2.1 2.4 2.2.2 0 .4.1.7.1l.3.1c1.2.3 2 .8 2.7 1.6 1.2 1.6 1.9 1.9 3.8.7.1-.1.2-.1.3-.2.6-.3 1.2-.3 1.7-.1.5.2.9.7 1 1.4.1.5.2 1 .3 1.6v.1c.2 1.2.6 2.1 1.4 2.5.5.3 1.1.5 1.7.5.4 0 .8-.1 1.3-.2 1.8-.4 3.5-1.4 5.2-2.9 1.6-1.4 3.3-2.9 5.2-3.9.4-.2.7-.4 1-.7 2.7-2.5 5.1-4.9 6.4-8.2.6-1.4 1.3-2.8 2.5-4.6.7-1 1.5-2.2 1.9-3.4.9-2.9 2.5-5.2 4.2-7.7l.1-.1c.5-.7 1-1.1 1.6-1.4 1.7-.6 2.7-1.9 3-3.9.1-.3.1-.7.1-1 .1-.9.2-1.8.6-2.5.4-.8 1.2-1.5 2-2.2l.6-.6c.9-.8 1.4-1.7 1.7-2.9.6-2.3 1.4-4.5 2.4-6.6.5-1.1.8-2.1 1-3.1.1-1.3.6-2.1 1.3-2.8.2-.2.4-.4.5-.6.4-.5.4-1 .3-1.3-.1-.3-.3-.7-.9-.9-.2-.1-.5-.2-.8-.2-1.8-.3-2.6-1.3-2.9-3.4 0-.2-.1-.5-.1-.7 0-.3-.1-.7-.1-1 0-.3 0-.6.1-.8.9-1.9 2-4 3.8-5.4 2.2-1.9 4.8-2.9 7.8-3.2 2.1-.2 4.2-.2 6.2-.2h.4c.1 0 .3.1.5.2h.1v.1c0 .3-.1.5-.1.7-.3 1.2.3 2.1.8 2.7.9 1 2.3 1.1 3.3.4 1.1-.8 2.4-2.1 2.3-4.4v-.2l-2-1.4V184c-.1-1.6.3-3 1.2-4.2l.2-.3c.4-.5.7-1 1.1-1.4 1.1-1.2 2.3-2.4 3.6-3.6 1.5-1.4 2.4-2.9 3-4.6.7-2.1.9-4 .8-6v-.1c0-.7-.1-1 .2-1.4.5-.6.6-1.2.3-1.9-.1-.2-.1-.5 0-.8v-.2c0-.1 0-.3.1-.4 0-.2.1-.4.1-.7 0-.7.3-3 .5-3.6.1-.2.1-.4.2-.6.1-.3.2-.6.3-.8.3-.7.6-1.3 1-1.9.2-.3.4-.5.5-.7l.6-.9c.4-.6.7-1.2.9-1.9 1.1-1.3.8-2.2-.1-3zm-84.8 64.8c-.6-.3-1.3-.6-2.2-.5-2.1.3-3.6-.8-5.2-2.1-.4-.3-.8-.7-1.2-1.1l-.6-.6c-3.2-2.9-6-4.6-9.2-5.3-1.4-.3-2.5-1-3.6-2-.8-.7-1.3-1.5-1.6-2.5-.6-2.1-.1-3.6 1.6-4.8.7-.5 1.5-1.1 2.3-1.6 1.1-.8 2.3-1.6 3.4-2.4.8-.6 1.5-.8 2.3-.7h.5c3.3.4 4.6-1 6.6-3.7 1.2-1.5 1.7-3.2 2.1-5l8 6.7.4 27.8c-1.1-.7-2.2-1.5-3.6-2.2zm4.1-25.9l-8.7-7.4c.1-.6.2-1.2.3-1.7l.1-.7c.2-1.4.3-2.8.4-4.2l.1-1c.1-.9.1-1.8.8-2.3l.1-.1v-.2c.1-.3.2-.6.2-.8.4-1.2.8-2.6.1-4-.1-.3-.2-.5-.3-.8v-.1l1.9-1v-.2c.2-1.4.3-2.9-.1-4.3-.3-1.1-.2-2.2.3-3.3 0-.1.1-.2.1-.3.1-.2.1-.3.2-.5.6-1.1.7-2.3.3-3.6-1-3.3-2-6.7-2.9-10-.7-2.4-1.6-4.8-3-7.7l-.1-.1c-.3-.7-.7-1.4-1.6-1.8-.3-.1-.5-.3-.5-1v-.4c.2-2.3-.7-4.2-1.8-6.1-1.5-2.8-3.4-5.4-5-7.7-.7-.9-1.5-1.7-2.3-2.5l-.3-.3c-.7-.7-1.1-1.4-1.3-2.2-.6-2.7-1.8-5.2-3.7-7.7-1.2-1.7-2.5-3.3-3.7-5-1.5-2-2.9-3.9-4.4-5.9-1.7-2.3-3.4-4.5-5.1-6.7-1.1-1.4-2.2-2.8-3.2-4.2-.2-.3-.4-.6-.7-.9l-.1-.2c1.2-.5 1.9-1.6 1.9-3.2.1-1.6 0-3.4-1.4-5.1-1.1-1.4-2.1-2.8-3.1-4.2-.9-1.2-1.7-2.5-2.7-3.7-.6-.8-1.2-1.5-1.9-2.1l-1-1c-.2-.2-.4-.5-.6-.7.7-.1 1.5-.3 2.2-.7.5-.3 1.1-.3 1.8-.1v2.2c.1 1.6.7 3 1.4 4.2.2.3.3.6.5 1 .4.7.8 1.5 1.2 2.2.5.8 1.1 1.4 1.7 2 1.5 1.3 3.1 1.5 4.6.7l1.5-.8c.5.1.8.5 1.2 1 .8 1 1.8 1.6 3.2 2.1 1.5.5 3 1 4.7 1.5l1.2.3.3.1v.1c.1.2.1.5.1.7.3 1.9.5 2.1 2.3 2.3.4 0 .8.1 1.2.1v.5c0 .7-.1 1.4 0 2 .1.8.5 1.5 1.1 2 .6.5 1.5.7 2.3.5.1 0 .2 0 .3-.1h.1c1.1-.3 1.9 0 2.6 1 1.1 1.5 2.1 3.2 3.1 5.5.2.3.2.8.2 1.3v3.8c0 .8-.1 1.7-.3 2.5-.3 1.4-.4 2.6-.1 4 .3 1.4.8 2.4 1.7 3.2.9.8 1.7 1.7 2.1 2.8.8 1.7 1.8 2.7 3.2 3.2l.2-.4-.1.5c.8.5 1.2.9 1.2 1.2.1.4-.2.9-.8 1.6l-.2.3c-.7.8-1.3 1.6-1.8 2.6-.8 1.9-.9 3.6-.2 5.1.4.9.3 1.4-.3 2.1-.6.6-.8 1.5-.7 2.5.1 1 .7 1.9 1.5 2.4.4.2.9.3 1.5.4 1.3 0 2.9 0 4.5-.1 2-.1 3.7.8 5.5 2 .7.5.9 1.3 1.1 2.4 0 .2 0 .4.1.7 0 .5.1 1.1.2 1.6.6 2.2 2.6 3.2 4.8 2.6.6-.2 1.2-.4 1.7-.8.4-.2.7-.7.9-1.1.9-2.6.7-5.1-.5-7.3-.1-.2-.2-.3-.3-.5-.1-.2-.3-.4-.4-.6-.6-1.3-.8-2.3-.6-3.3.3-1.9-.2-3.6-.7-5.3l-.2-.6v-.1c.3.2.5.4.8.7.9.8 1.7 1.6 2.6 2.3.7.6 1.5 1.1 2.3 1.6.3.2.7.5 1.1.7.4.9.5 2 .7 3.2 0 .4.1.7.1 1.1.1.6.2 1.3.3 1.9.3 1.9.6 3.8.5 5.8 0 1 .3 2.2.9 3.6.7 1.7 1.1 3.4 1 5.4-.1 1.3.1 2.5.6 3.7.6 1.7 1.8 2.8 3.5 3.1.8.2 1.6.3 2.7.4.4.1.8.1 1.2.2l2.4 41.1-14 9.8-15.8-16.7zm21.7 64.5c-1.5 3-3.8 5.6-7 7.5-1.1.7-2.1 1.4-2.9 2.1-.7.6-1.4 1.1-2.1 1.7l-.8.7c-.9.8-2 1.1-3 1.3h-.5c-.1-.1-.2-.2-.3-.4-.2-.8-.3-1.6-.5-2.4-.2-1.3-1-2.3-2.3-2.8-.5-.2-.9-.4-1.4-.6l-.8-.3-2.7 1.1c-1.1-1.7-2.9-2.3-4.3-2.6l-1.2-.3s0-.1-.1-.1c.3-.3.6-.5 1-.7 1.3-.8 2.3-1.8 3-3 .4-.7.9-1.5 1.3-2.2l1.8-3c.3-.5.6-1.1.9-1.7 0-.1.1-.2.1-.2l17.5-2.4 7.4 2.6c-1.2 1.9-2.2 3.9-3.1 5.7zm4.8-8.7c-.2.5-.4 1.1-.8 1.7l-8-2.9-16.7 2.3c.2-.3.4-.6.5-.9 1.9-2.8 2.6-6 3.1-8.7.5-3.1.7-6.3.4-9.9-.1-1.2-.4-2.1-.9-3-1.2-1.9-2.5-3.6-3.7-5.1l-.4-28 15.5 15.1 15.9 30.5c-1.9 2.6-3.9 5.5-4.9 8.9zm38.9-49.9c0-.3.1-.6.2-1l.4.3c-.2.2-.4.5-.6.7zm8.7-26.7c.3 1.3.1 2.7-.2 4.1v.1c-.2 1.4-.7 3.2-2 4.5l-1.8 1.8c-.7.8-1.5 1.5-2.2 2.3-1.4 1.3-2.3 2.9-3.1 4.5-.3.6-.3 1.2-.4 1.8v1.6c0 .6 0 1.2-.1 1.8-1.5-.3-3.1-.2-4.6-.1-.9 0-1.7.1-2.6.1-2.9-.1-5.8.7-8.8 2.3-2.1 1.1-3.8 2.9-5.4 5.5-.1.2-.2.3-.3.5-.1.2-.2.5-.4.6-1.2 1.5-1.1 3.2-.9 4.8.1.8.3 1.7.5 2.4.4 1.7 1.3 2.8 2.7 3.3 0 0 .1 0 .1.1-.1.2-.1.4-.2.6-.2.6-.5 1.2-.5 1.9-.1 1.2-.4 2.3-1 3.4-1.1 2.3-1.9 4.3-2.3 6.3-.2.9-.7 1.7-1.5 2.3-.2.2-.4.3-.6.5-.8.7-1.6 1.4-2.1 2.3-.6 1.1-.7 2.3-.9 3.5v.3c-.2 1.6-.8 2.5-2.1 3-.4.2-.8.5-1.2.8l-15.5-29.8 14.2-9.9 43.5-28.8c0 .1-.1.2-.2.4-.2.3-.3.7-.1 1.2zm4.5-15.2c-.1.1-.1.2-.2.3-1.6 1.9-2.5 3.6-2.9 5.5v.2c-1.1 1.2-1.3 2.7-.7 4.2 0 .1.1.2.1.2-.3.7-.3 1.3-.4 2L340 189l-2.4-40.2c.7.2 1.3.4 1.9.7.9.4 1.8.9 2.7 1.3l6.3 3c3.3 1.5 6.4 2.6 9.5 3.3 1.4.3 2.9.3 4.6-.1 1.6-.4 2.8-1.1 3.9-2.2 1.6-1.6 3-3.5 4.3-5.5.7-1.2 1.5-1.8 2.5-2.1 1.2-.3 2.3-1 3.2-2 .6-.7 1.4-1 2.4-1h2.2c1.5-.1 2.3.3 2.7 1.3l.1.2.2.1c.3.1.6.2 1 .2.7.2 1.3.3 1.9.5.2.1.5.2.6.4.3.3.2.6 0 1z"/><path fill="#404040" d="M315.1 106.3c.6.3.9.5 1.1 1 .7 1.5 2.1 2 3.1 2.2h.4c.5 0 1-.2 1.3-.7.8-1.2.8-2.6-.1-3.6-.3-.4-.5-.7-.6-1.2-.4-1.2-.8-2.4-1.4-3.8-.4-1-1.3-1.6-2.4-1.6-1.1 0-1.9.6-2.2 1.5-.1.3-.3.7-.5.9-.5.5-.8 1.1-.7 1.8.1 1.8.7 2.9 2 3.5zm1.1-3.4c.2-.2.4-.5.6-.8v.1c.3.8.7 1.5.8 2.2-.4-.3-.9-.6-1.5-.7-.2 0-.2-.1-.2-.2s.1-.3.3-.6z"/></svg>