<svg xmlns="http://www.w3.org/2000/svg" viewBox="0 0 500 500"><path d="M136.4 447.9c-.3 0-.7 0-1-.1-.7-.1-1.3-.2-2-.3-.3 0-1.4-.2-1.4-.2l-.2-.2c-1.5-1.4-2-3.2-1.4-5.2l.1-.3.3-.2c.6-.4 1.5-.9 2.7-.9.4 0 .9.1 1.3.2.1 0 .3 0 .4.1.2-1.3.4-2.7 1.2-4.1l.2-.4 1-.3c-.4-.6-.4-1.3-.1-1.9.2-.5.7-1.5 1.8-1.8-.2-.4-.5-.6-.9-.7l-.2-.1c-.3-.1-.7-.2-1-.4-1.5-.9-1.9-2-1.3-3.6.5-1.3 1.5-1.6 2-1.6.6 0 1.1-.3 1.7-.7 1-.7 2.1-1 3.4-1 1.3 0 2.4.3 3.2.6.7.2 1.2.9 1.5 1.4.9 1.7 2 3 3.5 4.2 1.2.9 1.9 2.2 2.1 3.6 0 .2.1.5.1.7.2.9.3 1.8.1 2.9-.4 2.2-1.8 3.6-4 4.1-1.4.3-2.9.7-4.2 1.7-.8.6-1.8.9-3.1 1h-1.4c-.2.2-.3.4-.4.7-.1.1-.1.3-.2.4-.7 1.5-2.1 2.4-3.8 2.4zm2.8-8.4c-.2.5-.2.9-.2 1.4.5-.3 1-.5 1.6-.5.3 0 .6 0 .9.1.2.1.4.1.6.1.6 0 1.1-.2 1.8-.7.7-.5 1.4-.9 2.4-1.3.5-.2 1.1-.3 1.6-.4.2 0 .4-.1.7-.1 1.1-.3 1.5-.8 1.4-1.8-.1-1.8-.6-2.8-1.8-3.6-1.3-.9-2.4-2.2-3.2-3.7-.3-.7-.8-.9-1.6-1h-.3c-.8 0-1.4.3-2 .8 1.1 1.1 2 2.4 2.4 3.9l.1.2-.1.3c-.3 1.3-.9 2.3-1.5 3-.1.1-.1.4-.1.7 0 .6 0 1.6-.8 2.4l-.2.2h-1.7z"/><path fill="#cf202f" d="M143 424.6c1.1 0 2.2.3 3.1.6.6.2 1 .7 1.2 1.1.9 1.7 2.1 3.2 3.7 4.4 1.1.8 1.8 2 1.9 3.3 0 .2.1.5.1.7.2.9.3 1.7.1 2.7-.3 2-1.6 3.2-3.6 3.7-1.4.3-3 .7-4.4 1.8-.7.6-1.6.8-2.8.9h-1.6c-.3.2-.5.6-.7 1-.1.1-.1.3-.2.4-.7 1.4-2 2.2-3.5 2.2-.3 0-.6 0-.9-.1l-2.1-.3c-.3 0-.7-.1-1-.1h-.1l-.1-.1c-1.4-1.2-1.8-2.8-1.3-4.6l.1-.2.2-.1c.6-.4 1.4-.8 2.5-.8.4 0 .7.1 1.1.2.2.1.5.1.9.1h.1c.2-1.6.4-3 1.2-4.4l.1-.2 1.5-.4c-.3-.3-1-1-.5-2 .2-.5.7-1.6 2-1.6-.2-.9-.7-1.4-1.4-1.6l-.2-.1c-.3-.1-.6-.2-.9-.4-1.3-.7-1.6-1.6-1.1-3 .4-1 1.1-1.2 1.6-1.3.7 0 1.3-.3 2-.8.9-.8 2-1 3-1m-4.6 17.7c0-.1.1-.1.1-.2.6-.8 1.2-1.2 2-1.2.2 0 .5 0 .8.1.3.1.5.1.8.1.7 0 1.4-.3 2.1-.8.6-.5 1.4-.9 2.3-1.2.5-.2 1-.3 1.5-.4.2 0 .5-.1.7-.1 1.3-.3 1.9-1 1.8-2.3-.1-1.9-.7-3.1-2-4-1.3-.9-2.3-2.1-3-3.5-.4-.8-1-1.2-2-1.3h-.4c-1 0-1.9.4-2.7 1.3 1.3 1.1 2.2 2.4 2.7 4v.2c-.3 1.2-.8 2.1-1.4 2.8-.2.2-.2.6-.2 1 0 .6 0 1.4-.6 2l-.1.1-1.9.3c-.4.8-.4 1.5-.4 2.2v.3c0 .2 0 .4-.1.6m-2.5 1.6h-.7c-.3 0-.6 0-.9-.1-.3 0-.5 0-.8-.1v.1c.2.2.4.2.4.3l1.2.3c.2 0 .5.1.7.1.3.1.5.1.6.1.5 0 .8-.2 1.2-.9l.1-.2s0-.1.1-.1c-.3.2-.6.3-1 .4-.3.1-.6.1-.9.1m7.1-20.3c-1.4 0-2.6.4-3.7 1.1-.6.4-1 .6-1.4.6-1.1 0-2 .7-2.5 1.9-.7 1.8-.2 3.2 1.5 4.2.4.2.8.3 1.1.5l.2.1c.1 0 .2.1.2.1-.8.5-1.2 1.4-1.4 1.8-.2.5-.3 1.1-.1 1.8l-.2.1-.4.1-.2.4-.1.2c-.7 1.3-1 2.6-1.2 3.8-.4-.1-.9-.2-1.3-.2-1.3 0-2.3.6-3 1l-.2.1-.3.2-.1.3-.1.2c-.7 2.2-.1 4.2 1.5 5.7l.1.1.2.2h.4c.4.1.7.1 1.1.1.7.1 1.4.2 2 .3.4.1.8.1 1.1.1 1.9 0 3.5-1 4.3-2.7.1-.1.1-.3.2-.4.1-.2.2-.3.2-.4h1.2c1.4 0 2.5-.4 3.4-1.1 1.2-1 2.7-1.4 4-1.7 2.4-.5 3.9-2.1 4.3-4.5.2-1.2 0-2.2-.1-3.1 0-.2-.1-.4-.1-.7-.2-1.6-1.1-3-2.3-4-1.5-1.1-2.6-2.5-3.4-4.1-.3-.6-.9-1.3-1.8-1.6-.6-.2-1.8-.5-3.1-.5zm-1.2 5.1c.4-.3.8-.4 1.3-.4h.3c.8.1 1 .3 1.2.8.8 1.6 1.9 2.9 3.3 3.9 1 .7 1.5 1.7 1.5 3.3 0 .8-.1 1.1-1 1.3-.2.1-.4.1-.6.1-.5.1-1.1.2-1.7.5-1 .4-1.8.8-2.5 1.3-.6.4-1.1.6-1.5.6-.2 0-.3 0-.5-.1-.4-.1-.7-.2-1.1-.2h-.2l.6-.1h.3l.2-.2.1-.1c1-.9 1-2.1 1-2.8v-.4c.6-.8 1.2-1.8 1.5-3.1v-.1l.1-.3-.1-.2v-.1c-.4-1.4-1.2-2.7-2.2-3.7zm-2.2 11.3h.3-.3z"/><path d="M171.6 426.6h-6.1l-.3-.4-.2-.3c-.2-.3-.3-.5-.4-.7-.6-1.2-1-1.4-1.7-1.4-.3 0-.6 0-1 .1l-.4.1c-1.2.3-2.4.5-3.6.7-.6.1-1.2.1-1.8.1h-.6c-1.9-.1-3.3-.8-4.2-2.2-.2-.3-.4-.5-.6-.8l-.6-.8.1-.5c.5-1.7.5-1.7-.3-2.9l-.1-.2c-.6-.9-1.1-1.1-1.6-1.1-.2 0-.4 0-.7.1-1.4.3-2.9.4-4.1.4h-.2c-.7 0-1.5-.1-2.3-.4-2.6-.9-2.9-1.2-3.5-3.9-.1-.7-.5-1.1-1.1-1.5-.6-.3-1.3-.5-1.9-.6h-.2c-.1 0-.2 0-.4.2-.2.3-.5.6-.7.8l-.1.1c-.9 1-1.9 1.5-3.1 1.5h-.9c-.5 0-1 0-1.5.1h-.5c-1.1 0-2.1-.2-3-.7-.4-.2-.9-.4-1.4-.5-.2-.1-.4-.1-.6-.2-.4-.1-.8-.2-1.3-.2-.2 0-.4 0-.7.1-.4.1-.8.1-1.2.1-2.3 0-4.1-1.1-5.4-3.2-.8-1.3-1.7-2.7-2.9-3.8-1.4-1.3-1.7-3-1.9-4.5-.3-2.9-.1-5.1.8-7.1.4-.9.8-1.7 1.6-2.5.7-.7 1.4-1.5 2.1-2.3.3-.4.7-.8 1-1.1.6-.7 1-1.4 1.2-2.2.5-2.2 1.5-4.4 2.9-6.6.6-.9 1.4-2.2 2.3-3.4.4-.6.9-1.2 1.4-1.8.5-.6 1.1-1.4 1.6-2.1 4-5.7 9.2-10.1 14.3-14.5l.4-.3c.5-.4 1-.8 1.7-1 .5-.2.8-.4 1-1 .3-.9.7-1.8 1.1-2.6.4-.7.8-1.3 1.4-1.9.2-.3.5-.5.7-.7.2-.1.3-.3.4-.4 1.1-1.2 1.3-1.5 2.3-2 0-1.1.5-2 1.4-2.7 2.6-1.9 4.3-4.6 5.7-6.9l.2-.4 1-.1c.4-.1.8-.1 1.2-.2.8-.1 1.2-.2 1.6-.6.6-.6 1.3-.9 2.1-.9.7 0 1.3.2 1.9.7.3.2.5.3.7.3.3 0 .6-.1 1.1-.4.5-.3 1-.5 1.3-.8l.2-.1c.8-.7 1.7-1.4 2.4-2.1 2.3-2.4 5-4.3 7.5-6.3l.5-.3c1.2-.9 2.2-1.3 3.4-1.3h.2c.6 0 1-.2 1.4-.5.3-.3.8-.6 1.3-.7 1-.2 1.7-.9 2.4-2 .1-.2.3-.4.4-.6l.6-.9c1.1-1.5 2.3-2.4 3.8-2.9 1.2-.3 2.3-1.1 3.4-2.3 1.2-1.3 2.3-2.7 3.4-4l1-1.2c.6-.7 1.3-1.6 2.5-1.8.2 0 .5-.3.7-.5l.2-.2c1.4-1.1 2.7-1.8 4.1-2.2.7-.2 1.3-.6 1.9-1.1 5.3-4.1 9.4-9.4 12.7-16.1 1.1-2.3 1.8-4.4 2-6.5.2-2 .7-3.9 1.6-6.4.2-.5.4-1.1.6-1.6.7-1.8 1.3-3.5 1.5-5.4.1-.8.5-1.9 2.2-2h3.2c.5 0 .9-.1 1.2-.5l.1-.1c1.6-1.6 3.1-3.1 4-5.1.5-1.1 1.2-2.1 1.9-3 .5-.7.9-1.4 1-2.2.3-1.6.6-3.1.6-4.7 0-1.4.1-2.7.1-4.1 0-1.3.1-2.6.1-3.9 0-1.3.4-2.3 1.4-3.3l.3-.4c.8-.8 1.6-1.7 2.8-2.2.6-.3 1.3-.9 2-1.7 1.2-1.5 2.6-2.6 3.9-3.8.6-.5 1.3-1.1 1.9-1.6.9-.8 2-1 2.8-1.1l.4-.1h.3c1.1 0 1.7 1 1.9 1.3.7 1.2.4 2 0 2.6-.1.2-.2.3-.4.4-.1.1-.2.2-.2.3-.4.6-.6 1.3-.4 2.1.2.9.7 1.6 1.4 2.1.4.2.7.4 1.2.4.2 0 .4 0 .6-.1.6-.1 1.2-.2 1.7-.2 2.5 0 3.1 1.6 3.7 3.4.2.8.3 1.6.3 2.3v.8c.1 1-.5 1.7-.9 2.1-.4.5-.5 1-.3 1.7l.3 1c.2.8.5 1.6.7 2.4.3.7.7 1.3 1.2 1.7l.3-.3c.1-.1.1-.2.2-.2.3-.4.6-.7.8-1.1.3-.5.7-.9 1-1.4.6-.7 1.5-1.8 3-1.8h.5c.2 0 .5-.4.7-.6l.3-.3c.6-.7 1.4-1.6 2.8-1.6h.2c.1 0 .2-.2.3-.3.5-.6.7-1.3.8-2.3 0-1 .1-2.2.3-3.3.5-2.4 1.9-4.2 4-5.3.2-.1.5-.2.7-.4.5-.3 1-.6 1.6-.8.4-.2.8-.2 1.2-.2.8 0 1.8.3 2.4 1.9.5 1.3.4 2.5-.2 3.7-.2.4-.5.7-.7 1.1h.2c2.4.2 3 1.5 3.1 2.7 0 .1.1.3.6.6.2.1.3.2.5.3.4.2.7.4 1.1.7.5.4 1 .9 1.3 1.3.4.6.8 1.2 1.1 1.8l.4.7c.8 1.3.8 2.8 0 4.2-.2.3-.3.6-.5.9-.2.4-.5.8-.7 1.2-.8 1.5-2 2.6-3.5 3.3-.2.1-.4.2-.5.2-.2.1-.5.2-.7.3-.3.1-.6.3-.8 1-.1.3 0 .4 0 .4.3.3.7.7 1 .9 1 .7 1.6 1.8 1.5 2.9-.1 1.4.4 2.5 1.5 3.4.3.2.4.5.5.7 0 .1.1.2.1.2l.2.4-.2.4c-.4 1.2-1.1 2.4-2.1 3.7-.6.7-1.2 1.5-1.7 2.2-.8 1-1.5 1.9-2.3 2.9-.5.6-1 1.3-1.1 2.2-.1 1.5-.8 2.8-1.9 4.1-.2.3-.5.5-.7.8-.6.7-1.1 1.3-1.7 1.9-1.2 1.1-1.5 1.8-1.4 2.6l.1.4-.3.3c-.7.8-1.5 1-2 1.1-.1 0-.3.1-.4.1-.7.2-1.1.6-1.3 1.2-.6 2.3-1.7 4.5-2.8 6.5-.3.7-.7 1.3-1 2-.1.2-.2.4-.3.5-.3.5-.5 1-.6 1.4-.3 1.7-1.2 2.7-2.1 3.5-2.1 2-4.5 3.8-7 5.1-.3.2-.7.4-1 .5l-1.2.6c-.9.5-1.5 1.2-1.9 2.3-.5 1.1-.9 2.5-.8 3.9v3c0 2.2.7 3 2.9 3.5 1.2.3 2.4.6 3.6 1.3 1.3.8 2.3 2.2 2.6 3.8.3 1.5 0 3.1-.8 4.2-1 1.4-2.5 2-3.6 2.4-.7.2-1.5.4-2.1.4-1.8 0-3.4-.8-4.7-2.4-1.2-1.5-2.8-2.2-4.6-2.2h-.6c-.5 0-.7.2-.8.6v.1c-.1 2.3-1.9 3.1-3.4 3.5-1.5.4-3 1.1-5 2.3-3.2 2-6.4 4-9.7 6l-2.8 1.7c-1.2.7-2.1 1.8-3 3-.3.4-.7.8-1 1.3 0 0-.1.2-.1.4-.1 1.9-.9 3.6-1.6 5-.5 1-.7 2-.7 3.2v6.6c0 1.8-.5 3.4-1.7 4.9-.6.7-1.2 1.5-1.8 2.2l-1.3 1.6c-1.2 1.6-2 3.4-2.6 5.2-.2.6-.2 1-.1 1.4.6 1.2.2 2.3-.1 3.2-.8 2.4-2 4.7-3.7 6.8-.4.5-.8 1.1-1.2 1.7-.1.2-.1.3-.2.4h.1c2.5 1 2.7 3.1 2.6 4.6 0 .3 0 .7-.1 1v.8l-.3.3c-.7.7-1.5.9-2.2 1.1-.1 0-.3.1-.4.1-.6.2-2 .6-2 .6l-4.5 1.2c-1.5.4-2.5 1.3-3.2 3.3-.1.3-.2.7-.3 1-.1 1.4-1 2.2-1.6 2.7-1.5 1.2-3 2.3-4.4 3.5l-2.1 1.6c-.2.2-.4.4-.7.5-.2.2-.2.3-.2.3.5 2.3-.9 3.7-1.9 4.6-.8.7-1.6 1.3-2.4 1.8l-.3.2c-.4.3-.9.6-1.5.7-1.1.1-2.2.6-3.3 1.1-1 .5-2.1.9-3.3 1.2-.1 0-.2 0-.3.1-1.4 1-2.9 1.1-4.2 1.1l-.4.8zm.1-3.7c1.6 0 2.9-.2 4.1-.9.2-.1.4-.2.6-.2l1.1-.4c.6-.2 1.2-.5 1.8-.7.2-.1.3-.1.5-.2.6-.2 1.1-.5 1.8-.6 1.6-.2 2.8-1.3 4-2.4l.4-.3c.3-.2.3-.4.2-.6-.5-2.2.8-3.5 1.8-4.2 1.1-.8 2.2-1.7 3.2-2.5L157.6 364l-13.2-7.6v.1c-.4 1.1-1.1 1.7-2 2-.9.2-1.6.8-2.4 1.5l-1.7 1.5c-1.4 1.3-2.9 2.5-4.3 3.8-2 1.9-4.6 4.4-6.7 7.4-.9 1.3-1.8 2.4-2.8 3.6-2.6 3.2-4.4 6.4-5.3 9.9-.3 1.2-.9 2.2-1.7 3.1-1.1 1.1-2.1 2.3-3.1 3.4l-.3.3c-.3.3-.6.6-.7.8-1 2-1.2 4.2-.7 6.5.2.9.6 1.5 1.2 2.2.7.7 1.2 1.4 1.8 2.1l.4.6.6.9c.1.2.3.4.4.6.5.7 1.2 1.1 1.9 1.1h.3c.5-.1 1-.1 1.5-.1 1.4 0 2.7.3 4.2 1 1.2.6 2.5.6 3.7.6 1.4 0 1.9-.4 2.2-1.1.7-1.3 2-1.5 2.4-1.5.3 0 .6-.1 1-.1 2.1 0 3.9.8 5.7 2.4.5.4.7 1 .9 1.6.2.5.3 1.1.4 1.6v.2c.7.4 1.4.6 2.2.6h.5c.6-.1 1.2-.1 1.8-.2l1.8-.2c.3 0 .6-.1.9-.1h.6c1.5 0 2.6.7 3.4 1.9.4.7.8 1.3 1.2 1.9.2.3.4.5.5.8.6 1 .7 1.9.2 2.9v.1c.3.5.7.8 1.6.8h.3c1.6-.1 3.1-.3 4.8-.8.6-.2 1.3-.3 1.9-.3 1.7 0 3.2.7 4.4 2.1.2.2.4.5.5.7h2c.3.3 1.5.3 1.8.3zm21.1-14.2c.6-.4 1.1-.9 1.7-1.3.5-.4.8-.8.9-1.4.3-1.6 1-3 2.4-4.6.9-1 1.9-1.6 3.1-1.9 1.9-.5 3.7-1 5.5-1.5.2-.1.5-.1.7-.2.4-.1.7-.1.9-.3.1-.4-.1-.6-.5-.8-1.1-.5-1.8-1.3-2.1-2.5-.2-1 0-2 .5-2.9l.2-.4c.6-.9 1.1-1.8 1.8-2.6 1.1-1.3 1.9-2.9 2.5-4.7.2-.6.2-.9.1-1.3-.4-1-.4-2.1 0-3.3.6-1.8 1.4-3.8 2.5-5.6l-25.3-10.5-5.8-16.2-19.9 19.9 30.8 42.1zm21.6-37c.2-.2.4-.5.6-.7.6-.7 1.1-1.5 1.7-2.2.9-1 1.3-2.1 1.2-3.4v-6.2c-.1-1.8.3-3.4 1-4.8.8-1.6 1.3-3 1.3-4.3 0-.7.3-1.3.7-1.8.3-.4.7-.8 1-1.2 1.3-1.5 2.5-3.1 4.3-4.2 3.7-2.3 7.6-4.7 12.3-7.6 1.9-1.2 3.7-2 5.6-2.7.3-.1.6-.2.8-.3l.2-.4c.3-.6.5-1.1.8-1.6.6-1.1 1.6-1.7 2.9-1.9.5-.1 1-.1 1.4-.1 3 0 5.3 1.1 7.2 3.2.8.9 1.5 1.3 2.3 1.3.7 0 1.4-.3 2.2-.9.4-.3.6-.7.6-1.2 0-.8-.4-1.4-1-1.8-.6-.3-1.2-.5-1.9-.7-.3-.1-.5-.1-.8-.2-2.8-.8-5.4-2.1-5.5-6.7v-2.8c-.1-2 .4-3.8.8-5.2.8-2.2 2-3.8 3.9-4.8l.9-.5c.5-.3.9-.5 1.4-.8 2-1.1 3.9-2.5 5.7-4.1.8-.8 1.2-1.4 1.4-2.2.2-.8.5-1.5.9-2.1.1-.2.2-.4.3-.5.3-.5.5-1 .8-1.6.4-.8.9-1.7 1.3-2.6l-9.3 3.9-14.3 2.4-10.8-6.8-4.5 3.8-48.3 47.8 5.8 16.3 25.1 10.2zm-55.4-9.1l1.7 2.4 69.8-69.1 19.2-15.9 14.6-24.2c-1.6-1.3-2.5-2.6-3-4.3l-.3-1.2c-.2-.8-.4-1.5-.6-2.2-.4-1.6-.1-3.2.8-4.5.6-.8.5-1.4-.1-2.7 0 0 0-.1-.3-.1-.2 0-.4.1-.6.1-.4.1-.8.2-1.3.2-.7 0-1.3-.2-1.7-.3-2.6-.8-4.9-3.5-4.6-7.1-1.1.9-2.2 1.8-3.1 2.9-1.4 1.6-2.7 2.8-4.3 3.6-1.3.7-1.9 1.7-1.9 3 0 1.4 0 2.8-.1 4.2-.1 1-.1 2-.1 2.9 0 2-.4 3.9-.7 5.5-.3 1.3-.8 2.4-1.5 3.4-.6.8-1.2 1.6-1.6 2.4-1 2.4-2.8 4.2-4.4 5.9l-.5.5c-1 1-2.2 1.6-3.6 1.6h-2l-.4 1.2c-.4 1.3-.8 2.5-1.2 3.7-.9 2.5-1.8 5-2.1 7.7-.1.7-.2 1.3-.4 1.9-1.3 5-3.9 9.8-8 15.2-2.4 3.1-5.3 5.7-7.9 7.8-.9.8-1.8 1.2-2.7 1.5-1 .3-2 .8-3.1 1.7l-.1.1c-.4.3-.9.8-1.5 1-.6.2-1.1.7-1.6 1.3-1.5 1.8-2.8 3.4-4.2 4.9-.9 1-2.3 2.3-4.1 2.8-1.4.4-2.5 1.2-3.3 2.7-.3.5-.6 1-1 1.4-.9 1.1-1.9 2.3-3.6 2.5-.1 0-.3.1-.4.2-1 1-2.1 1.1-2.9 1.1-.9 0-1.5.2-2.1.6-.5.3-.9.7-1.4 1-2 1.5-4 3-5.7 4.8-1.2 1.2-2.4 2.3-3.6 3.2-1.1.8-2.6 1.8-4.4 1.8-.8 0-1.6-.2-2.3-.6-.9.8-2 .9-2.9.9-.4 0-.7 0-1 .1-.2.3-.4.5-.6.8-.6 1-1.3 1.9-2 2.8-.7.9-1.6 1.6-2.3 2.3 0 0-.4.4-.6.5 0 .1.1.2.1.4.3 1-.1 2-1 2.5-.3.2-.6.3-.9.4-.2.1-.4.2-.6.2-.1 0-.2.1-.3.1-.1.1-.3.1-.4.2l-.5.6c-1.1 1.1-2.1 2.2-2.6 3.5l13.8 8.2zm88.7-64.3l13.4-2.2 10.9-4.5c.2-.5.3-.9.4-1.3.3-1 .9-1.9 1.9-2.5.4-.3.9-.5 1.4-.8l.3-.2c.2-1 .8-1.8 1.3-2.4.6-.6 1.2-1.3 1.8-1.9.4-.4.8-.9 1.2-1.3.9-1 1.4-2 1.5-3.1.1-1 .5-2 1.3-2.9 1.1-1.3 2.1-2.6 3.1-4l1.4-1.7c.3-.4.6-.8.8-1.2-1.2-1.4-1.8-3.1-1.8-5 0-.1-.1-.3-.5-.6-.8-.7-1.8-1.6-2.3-3l-.1-.3.1-.3c1-3.5 1.2-3.8 4.3-5.2.6-.3 1.3-.7 1.7-1.2.5-.8 1-1.7 1.5-2.6.1-.2.1-.4 0-.7-.1-.1-.1-.2-.2-.3-.2-.3-.4-.6-.6-1-.3-.8-1-1.5-1.9-2-1.1-.6-1.9-1.4-2.4-2.6 0-.1-.1-.2-.1-.3-.8 0-1.4.4-2.1 1-.3.3-.8.4-1.3.4-.6 0-1.3-.2-1.8-.6-.2 1.6-1 3-2.2 4.2-.3.3-.9.9-1.9.9h-.3c-.2 0-.3 0-.7.4-.6.6-1.2 1.1-1.8 1.6-.4.3-1 .6-1.6.6h-.4c-.1 0-.2 0-.5.5l-.1.1c-1 1.2-1.9 2.5-3 3.7-.5.6-1.1.9-1.7.9h-.4l-14.9 24.6-13.1 10.9 9.4 5.9zm35.8-61.2c-.9.5-1.6 1.1-2 2 .1-.1.3-.2.4-.3.1-.1.3-.2.4-.3.4-.4.8-.9 1.2-1.4z"/><path fill="#cf202f" d="M255.3 228.6c.8 0 1.3.8 1.5 1 .5.7.5 1.4.1 2-.1.1-.2.3-.3.4-.1.1-.2.2-.2.3-.5.7-.7 1.6-.5 2.5.2 1 .8 1.9 1.6 2.4.5.3.9.4 1.4.4.2 0 .5 0 .7-.1.6-.1 1.1-.2 1.6-.2 2.1 0 2.7 1.3 3.2 3.1.2.7.3 1.5.3 2.2v.8c.1.8-.4 1.3-.8 1.7-.6.6-.7 1.3-.4 2.2l.3 1c.2.8.5 1.6.8 2.4.3 1 .9 1.7 1.6 2.1.3-.1.5-.3.7-.6.1-.1.1-.2.2-.2.3-.4.6-.8.9-1.1.3-.5.7-.9 1-1.3.6-.7 1.3-1.6 2.6-1.6h.5c.4 0 .7-.3 1.1-.8l.3-.3c.6-.7 1.3-1.4 2.5-1.4h.3c.1 0 .3-.2.6-.5.6-.7.8-1.5.9-2.6 0-1 .1-2.1.3-3.2.5-2.3 1.8-3.9 3.8-5 .2-.1.5-.2.7-.4.5-.3 1-.5 1.5-.7.3-.1.6-.2 1-.2.7 0 1.5.4 1.9 1.6.5 1.1.4 2.2-.2 3.2-.3.6-.7 1.1-1.1 1.7l-.1.1h1c.6 0 2.4.2 2.6 2.2 0 .4.3.7.8 1l.6.3c.3.2.7.4 1 .6.5.4.9.8 1.2 1.2.4.6.8 1.2 1.1 1.8l.4.7c.7 1.2.7 2.4 0 3.7-.2.3-.3.6-.5.9-.2.4-.5.8-.7 1.2-.8 1.4-1.9 2.5-3.3 3l-.6.3-.6.3c-.5.2-.9.6-1.1 1.3-.2.5 0 .8.1.9.4.4.7.7 1.1 1 .9.6 1.4 1.5 1.3 2.5-.1 1.6.5 2.9 1.7 3.8.2.1.3.3.4.5 0 .1.1.2.1.3l.1.2-.1.2c-.4 1.2-1.1 2.3-2 3.5-.6.7-1.2 1.5-1.7 2.2-.8 1-1.5 1.9-2.3 2.9-.6.7-1.1 1.5-1.2 2.5-.1 1.3-.7 2.6-1.8 3.8-.3.3-.5.6-.8.9-.5.6-1.1 1.2-1.6 1.8-1.1 1.1-1.7 1.9-1.5 3.1v.2l-.1.2c-.6.7-1.2.8-1.7.9-.1 0-.3.1-.4.1-.9.3-1.4.8-1.6 1.6-.6 2.3-1.7 4.4-2.7 6.4-.3.7-.7 1.3-1 2l-.3.6c-.3.5-.5 1-.6 1.5-.2 1.5-1.1 2.5-1.9 3.2-2.1 2-4.4 3.7-6.9 5-.3.2-.7.4-1 .6-.4.2-.7.4-1.1.6-1 .5-1.7 1.4-2.2 2.6-.5 1.2-.9 2.6-.8 4.1v3c0 2.4.8 3.5 3.3 4 1.1.3 2.4.6 3.5 1.2 1.2.7 2.1 2 2.4 3.5.3 1.4 0 2.8-.8 3.8-.9 1.2-2.3 1.8-3.4 2.2-.7.2-1.4.3-2 .3-1.6 0-3.1-.7-4.3-2.2-1.3-1.6-3-2.4-5-2.4h-.7c-.6.1-1 .3-1.3.9l-.1.1c-.1 2-1.6 2.7-3.1 3.1-1.6.4-3.1 1.1-5.1 2.4-3.2 2-6.4 4-9.7 6l-2.8 1.7c-1.3.8-2.2 1.9-3.2 3.1-.3.4-.7.8-1 1.2-.1.1-.2.4-.3.7-.1 1.8-.9 3.4-1.5 4.8-.5 1-.7 2.1-.7 3.4v6.7c0 1.7-.5 3.2-1.6 4.6-.6.8-1.2 1.6-1.9 2.4l-1.2 1.5c-1.3 1.6-2.1 3.6-2.7 5.4-.3.7-.3 1.3 0 1.8.5 1 .2 2-.1 2.9-.7 2.4-1.9 4.5-3.6 6.6-.4.5-.8 1.1-1.2 1.8-.3.5-.3.7-.2.8.1.1.3.2.4.3 2.2.8 2.3 2.6 2.2 4.1 0 .4 0 .7-.1 1v.6l-.1.1c-.6.6-1.3.8-1.9.9-.1 0-.3.1-.4.1-.7.2-1.3.4-2 .6-1.4.4-2.9.8-4.4 1.2-1.7.4-2.8 1.5-3.6 3.6l-.3 1.2c-.1 1.2-.9 1.9-1.4 2.3-1.5 1.2-3 2.4-4.5 3.5l-2 1.6c-.2.2-.4.4-.7.5-.5.4-.4.7-.4.8.4 2-.7 3.3-1.8 4.1l-2.4 1.8-.3.2c-.4.3-.8.5-1.2.6-1.2.1-2.3.6-3.5 1.1-1 .5-2.1.9-3.2 1.1-.2 0-.4.1-.4.1-1.3.9-2.6 1-4 1h-6.8l-.1-.2c-.1-.1-.2-.2-.2-.3-.2-.2-.3-.4-.4-.6-.6-1.2-1.1-1.7-2.1-1.7-.3 0-.7 0-1.1.1l-.4.1c-1.2.3-2.4.5-3.5.7-.5.1-1.1.1-1.8.1h-.6c-1.7-.1-3-.7-3.8-2-.2-.3-.4-.6-.6-.8l-.4-.6.1-.2c.5-1.9.5-1.9-.4-3.3l-.1-.2c-.6-.9-1.2-1.3-2-1.3-.2 0-.5 0-.8.1-1.4.3-2.8.4-4.1.4h-.2c-.8 0-1.6-.2-2.1-.4-2.4-.8-2.6-1-3.1-3.5-.2-.9-.6-1.4-1.4-1.8-.7-.3-1.4-.5-2-.6h-.3c-.3 0-.6.1-.8.4-.2.3-.4.5-.6.8l-.1.1c-.8.9-1.6 1.3-2.7 1.3h-1c-.5 0-1 0-1.5.1h-.5c-1 0-1.9-.2-2.8-.6-.4-.2-.9-.4-1.4-.6-.2-.1-.4-.1-.6-.2-.5-.2-.9-.2-1.4-.2-.2 0-.5 0-.7.1-.4.1-.8.1-1.1.1-2.1 0-3.8-1-5-2.9-.8-1.4-1.7-2.8-3-3.9s-1.6-2.7-1.7-4.2c-.3-2.8-.1-4.9.8-6.8.4-.8.8-1.7 1.5-2.4s1.4-1.5 2.1-2.3c.3-.4.7-.7 1-1.1.7-.7 1.1-1.6 1.4-2.5.5-2.2 1.4-4.3 2.8-6.4.6-.9 1.4-2.2 2.2-3.3.4-.6.9-1.2 1.4-1.7.6-.7 1.1-1.4 1.6-2.1 3.9-5.6 9.2-10.1 14.2-14.4l.4-.3c.4-.4.9-.7 1.5-.9.7-.2 1-.6 1.3-1.3.3-.9.7-1.7 1.1-2.5.4-.7.8-1.2 1.3-1.9.2-.2.4-.4.6-.7.2-.1.3-.3.5-.5 1.1-1.3 1.3-1.5 2.5-2-.1-1 .3-1.9 1.1-2.6 2.6-2 4.4-4.7 5.8-7l.1-.2.8-.1c.4-.1.8-.1 1.2-.2.8-.1 1.4-.2 1.9-.7.5-.5 1.1-.7 1.7-.7.5 0 1.1.2 1.6.6.3.3.7.4 1.1.4.4 0 .8-.1 1.3-.4.5-.3 1-.6 1.4-.9l.2-.1c.8-.7 1.7-1.4 2.5-2.2 2.3-2.3 4.9-4.3 7.5-6.2l.5-.3c1.1-.8 2-1.2 3.1-1.2h.1c.8 0 1.3-.2 1.8-.7.3-.3.6-.5 1-.5 1.2-.2 1.9-1 2.7-2.2.1-.2.3-.4.4-.6.2-.3.4-.6.6-.8 1-1.4 2.2-2.3 3.6-2.7 1.3-.4 2.5-1.2 3.6-2.4 1.1-1.3 2.3-2.7 3.4-4l1-1.2c.5-.7 1.2-1.4 2.3-1.7.3-.1.6-.3.9-.6l.2-.2c1.3-1.1 2.6-1.8 3.9-2.1.8-.2 1.4-.7 2.1-1.2 5.3-4.2 9.5-9.5 12.8-16.3 1.1-2.3 1.8-4.5 2.1-6.6.2-1.9.7-3.9 1.6-6.3.2-.5.4-1.1.6-1.6.7-1.9 1.3-3.6 1.5-5.5.1-1.3 1-1.5 1.7-1.5h3.2c.6 0 1.1-.2 1.5-.7l.1-.1c1.6-1.6 3.2-3.2 4.1-5.3.5-1.1 1.2-2 1.9-2.9.6-.7.9-1.5 1.1-2.4.3-1.6.6-3.2.6-4.7 0-1.4.1-2.7.1-4.1 0-1.3.1-2.6.1-3.9 0-1.2.4-2.1 1.2-2.9l.3-.4c.8-.8 1.6-1.6 2.7-2.1.7-.3 1.5-1 2.2-1.9 1.1-1.4 2.5-2.6 3.9-3.7.6-.5 1.3-1.1 1.9-1.6.8-.7 1.7-.9 2.6-1l.4-.1c-.2.3-.1.3-.1.3m-2 3.8c-.2.1-.3.3-.5.4-1.3 1-2.6 2.1-3.7 3.4-1.3 1.6-2.7 2.7-4.2 3.5-1.5.8-2.2 1.9-2.1 3.5 0 1.4 0 2.8-.1 4.2-.1 1-.1 2-.1 3 0 1.9-.4 3.8-.7 5.4-.2 1.2-.7 2.3-1.5 3.2-.6.8-1.3 1.6-1.6 2.5-1 2.3-2.7 4.1-4.3 5.7l-.5.5c-.9.9-2 1.4-3.2 1.4h-1.6c-.3 0-.6 0-.9.1-.2.5-.3 1-.5 1.5-.4 1.3-.8 2.5-1.2 3.7-.9 2.5-1.8 5.1-2.1 7.8-.1.6-.2 1.3-.4 1.8-1.3 4.9-3.8 9.7-7.9 15-2.3 3.1-5.3 5.6-7.8 7.7-.9.7-1.7 1.2-2.5 1.4-1.1.3-2.2.9-3.3 1.8l-.1.1c-.4.3-.8.7-1.3.9-.8.2-1.3.8-1.8 1.5-1.5 1.8-2.8 3.4-4.2 4.9-.9 1-2.1 2.2-3.8 2.7-1.5.4-2.7 1.3-3.6 2.9-.3.5-.6.9-.9 1.3-.9 1.1-1.7 2.1-3.3 2.4-.2 0-.5.2-.7.4-.8.9-1.8 1-2.6 1-1 0-1.7.2-2.4.7-.5.3-.9.7-1.4 1-2 1.5-4 3-5.8 4.8-1.2 1.2-2.4 2.2-3.6 3.1-1.1.8-2.5 1.7-4.1 1.7-.8 0-1.6-.2-2.4-.7-.8.9-1.9 1-2.8 1.1-.5 0-.9.1-1.3.2-.2.3-.5.7-.7 1-.6.9-1.2 1.8-1.9 2.7-.7.8-1.5 1.6-2.3 2.3-.3.2-.5.5-.8.8v.1c.1.2.1.4.2.6.2.8 0 1.5-.8 1.9-.3.1-.6.3-.9.4l-.6.3c-.1 0-.2.1-.3.1-.2.1-.4.2-.5.3l-.5.6c-1.2 1.3-2.3 2.5-2.9 4.1l14.2 8.2 2 2.7 70.2-69.5 19.2-16 14.9-24.7c-1.7-1.3-2.7-2.6-3.2-4.3l-.3-1.2c-.2-.7-.4-1.5-.6-2.2-.4-1.5-.1-2.9.7-4 .8-1.1.5-2 0-3.2-.1-.3-.5-.4-.7-.4h-.1c-.2 0-.5.1-.7.2-.4.1-.8.2-1.1.2-.6 0-1.1-.1-1.6-.3-2.6-.8-4.9-3.8-4.1-7.5-.1-.5-.1-.6 0-.7m31.1 3.7c-1.6.7-3.2 1.6-3.7 3.5-.2.7-.3 1.4-.3 2.1 0-.2.1-.4.1-.6.2-.5.5-1 .9-1.4.2-.2.4-.4.7-.6.1-.1.3-.2.4-.3 1-.7 1.6-1.6 1.9-2.7.1.1.1 0 0 0 .1 0 .1 0 0 0m-3.9 5.7v.7c0 2-.7 3.6-2.2 5.1-.4.4-.9.8-1.5.8h-.3c-.3 0-.6.2-1 .6-.6.6-1.1 1.1-1.7 1.5-.3.2-.8.5-1.4.5h-.4c-.4 0-.6.2-.9.7l-.1.1c-1 1.2-1.9 2.5-3 3.7-.4.5-.8.7-1.3.7-.2 0-.4 0-.7-.1l-15 24.8-13.6 11.3 10.4 6.5 13.7-2.3 11.1-4.7c.2-.5.4-1 .5-1.6.2-.9.8-1.6 1.7-2.2.4-.3.9-.5 1.4-.8l.6-.3c.1-1 .7-1.7 1.2-2.3.6-.6 1.2-1.3 1.8-1.9.4-.4.8-.9 1.2-1.3 1-1.1 1.6-2.2 1.7-3.4.1-.9.5-1.8 1.2-2.7 1.1-1.3 2.1-2.6 3.1-4l1.4-1.7c.4-.5.8-1 1-1.6-1.3-1.3-1.9-3-1.8-4.9 0-.4-.3-.7-.7-1-.8-.6-1.7-1.5-2.1-2.8v-.2c1-3.4 1.1-3.5 4-4.9.7-.3 1.4-.7 1.9-1.4l1.5-2.7c.2-.4.2-.8-.1-1.2-.1-.1-.2-.2-.2-.4-.2-.3-.4-.5-.5-.9-.4-1-1.1-1.7-2.2-2.2-1-.5-1.8-1.3-2.2-2.3l-.3-.6h-.1c-1 0-1.8.4-2.6 1.1-.3.2-.6.3-1 .3-.5 0-1.1-.2-1.5-.5-.7-.2-1-.9-1-1.5m-43.6 50.7l-5.3 4.4-48.6 48.2h.1l6 16.7 25.5 10.6c.3-.3.5-.7.8-1 .6-.7 1.1-1.5 1.7-2.2 1-1.1 1.4-2.3 1.3-3.7v-6.2c-.1-1.7.2-3.2.9-4.5.9-1.7 1.3-3.1 1.4-4.4 0-.6.3-1.1.6-1.5.4-.4.7-.8 1.1-1.3 1.2-1.5 2.4-3 4.2-4 3.7-2.3 7.6-4.7 12.3-7.6 1.8-1.1 3.6-2 5.5-2.6.3-.1.6-.2.9-.4.1 0 .1-.1.2-.1l.3-.6c.3-.6.5-1.1.8-1.6.5-1 1.3-1.5 2.5-1.6.5 0 .9-.1 1.4-.1 2.8 0 5 1 6.9 3.1.9 1 1.8 1.5 2.7 1.5.8 0 1.6-.3 2.5-1 .6-.4.8-.9.8-1.7 0-1-.5-1.7-1.2-2.2-.6-.4-1.3-.6-2.1-.7-.2-.1-.5-.1-.7-.2-3-.8-5-2.2-5.1-6.2v-2.8c-.1-1.9.4-3.7.8-5 .7-2.1 1.9-3.6 3.6-4.5l.9-.5c.5-.3.9-.5 1.4-.8 2.1-1.1 4-2.5 5.8-4.2.9-.9 1.4-1.6 1.6-2.5.2-.7.5-1.4.8-2l.3-.6c.3-.6.5-1.1.8-1.6.6-1.2 1.2-2.5 1.8-3.7l-10.4 4.3-14.1 2.3-10.8-6.8.1-.7m-45.2 117.2l-33.8-46-13.8-7.9c0 .1-.1.2-.1.2-.1.1-.1.3-.2.4-.3.9-.9 1.5-1.7 1.7-1 .3-1.8.9-2.6 1.6l-1.7 1.5c-1.4 1.3-2.9 2.5-4.3 3.8-2.1 1.9-4.7 4.5-6.8 7.5-.9 1.3-1.8 2.4-2.8 3.5-2.7 3.2-4.4 6.5-5.4 10.1-.3 1.1-.8 2.1-1.6 2.9-1.1 1.1-2.1 2.3-3.1 3.4l-.3.3c-.3.3-.6.6-.7.9-1 2.1-1.3 4.4-.7 6.8.2 1 .6 1.7 1.3 2.4.6.6 1.2 1.4 1.7 2.1l.4.6c.2.3.4.5.6.8.1.2.3.5.4.7.6.9 1.5 1.3 2.3 1.3h.4c.5-.1 1-.1 1.4-.1 1.3 0 2.6.3 4 1 1.3.6 2.6.7 3.9.7 1.4 0 2.2-.4 2.7-1.4.5-1 1.4-1.2 2-1.3.3 0 .6-.1.9-.1 1.9 0 3.7.7 5.4 2.3.4.3.6.9.7 1.4.2.5.3 1 .4 1.5l.1.4c.9.6 1.7.8 2.6.8h.6c.6-.1 1.2-.1 1.8-.2l1.8-.2c.3 0 .6-.1.9-.1h.5c1.3 0 2.3.6 2.9 1.7.4.7.8 1.3 1.3 2 .2.3.4.5.5.8.5.8.6 1.6.2 2.4-.1.1-.1.3-.1.4v.1c.4.8 1 1.2 2.1 1.2h.3c1.6-.1 3.2-.4 4.9-.8.6-.2 1.2-.3 1.8-.3 1.6 0 2.9.7 4 2 .2.2.4.5.6.7l.1.2h4c1.6 0 3-.1 4.4-1 .1-.1.3-.1.4-.2h.1l1.1-.4c.6-.2 1.2-.5 1.8-.7.2-.1.4-.1.5-.2.5-.2 1.1-.4 1.7-.5 1.7-.3 3-1.3 4.3-2.5l.4-.3c.4-.3.5-.7.4-1.1-.5-1.8.6-3 1.6-3.7 1.2-.9 2.3-1.8 3.5-2.7 1-.8 2-1.6 3-2.3.6-.5 1-1 1.1-1.7.2-1.5 1-2.8 2.3-4.3.8-.9 1.7-1.5 2.8-1.8 1.9-.5 3.7-1 5.6-1.5.2-.1.5-.1.7-.2.5-.1.9-.2 1.3-.4.2-.8 0-1.3-.8-1.6-1-.4-1.6-1.1-1.8-2.2-.2-.9 0-1.7.5-2.5l.2-.4c.6-.9 1.1-1.8 1.8-2.6 1.1-1.4 2-3 2.6-4.9.2-.6.3-1.1.1-1.6-.3-.9-.3-1.9 0-3 .7-2 1.5-4.1 2.8-6l-25.7-10.6-6-16.7-21 20.8 31.2 42.6-.7.5m63.6-182.1h-.4l-.4.1c-.9.1-2.1.3-3.1 1.2-.6.5-1.2 1.1-1.8 1.6-1.4 1.2-2.8 2.4-4 3.9-.6.8-1.2 1.3-1.8 1.6-1.3.6-2.2 1.5-3 2.3l-.3.4c-1 1-1.5 2.2-1.5 3.6 0 1.3-.1 2.6-.1 3.8v.1c0 1.3-.1 2.7-.1 4.1 0 1.5-.3 3-.6 4.6-.1.7-.4 1.3-.9 2-.7.9-1.5 1.9-2 3.1-.9 1.9-2.3 3.4-3.9 5l-.1.1c-.3.3-.5.4-.8.4h-3.4c-2.1.1-2.5 1.5-2.6 2.4-.2 1.8-.8 3.5-1.5 5.3-.2.5-.4 1.1-.6 1.6-.9 2.5-1.4 4.6-1.6 6.5-.3 2-.9 4.1-2 6.3-3.2 6.6-7.3 11.9-12.5 15.9-.6.5-1.1.9-1.7 1-1.5.4-2.9 1.1-4.3 2.3l-.2.2c-.2.1-.4.3-.5.4-1.4.3-2.2 1.3-2.8 2l-1 1.2c-1 1.2-2.2 2.6-3.4 3.9-1 1.1-2 1.8-3.1 2.1-1.6.5-3 1.5-4.1 3.1l-.6.9c-.1.2-.3.4-.4.6-.8 1.2-1.4 1.7-2.1 1.8-.6.1-1.1.4-1.5.8-.2.2-.5.4-1 .4h-.1c-1.3 0-2.5.4-3.7 1.4l-.5.3c-2.6 1.9-5.3 3.9-7.6 6.3-.7.7-1.6 1.4-2.4 2.1l-.2.1c-.3.3-.8.5-1.3.8-.4.2-.6.3-.8.3-.1 0-.2 0-.4-.2-.7-.5-1.4-.8-2.2-.8-.9 0-1.7.4-2.4 1-.3.3-.6.3-1.3.4-.4 0-.8.1-1.2.2l-.8.1-.5.1-.2.4-.1.2c-1.3 2.3-3 4.9-5.5 6.7-.9.7-1.5 1.7-1.6 2.8-.9.5-1.2.8-2.2 2l-.4.4c-.3.3-.5.5-.7.8-.5.7-1 1.3-1.4 2-.5.9-.9 1.8-1.2 2.7-.2.5-.3.6-.6.7-.8.2-1.4.7-1.8 1.1l-.4.3c-5.1 4.3-10.4 8.8-14.4 14.6-.5.7-1 1.4-1.6 2-.5.6-.9 1.2-1.4 1.8-.9 1.2-1.7 2.5-2.3 3.4-1.4 2.3-2.4 4.5-2.9 6.7-.2.7-.5 1.4-1.1 2-.3.4-.7.8-1 1.1-.7.7-1.4 1.5-2.1 2.3-.8.8-1.3 1.8-1.7 2.7-.9 2.1-1.2 4.3-.9 7.3.1 1.2.4 3.3 2.1 4.8 1.2 1 2 2.4 2.8 3.7 1.4 2.2 3.4 3.4 5.9 3.4.4 0 .8 0 1.3-.1h.6c.4 0 .7.1 1.1.2.2.1.4.1.6.2.5.2 1 .3 1.3.5 1 .5 2 .7 3.2.7h.6c.5 0 1-.1 1.4-.1h.9c1.3 0 2.5-.6 3.4-1.6l.1-.1c.2-.2.5-.5.7-.9.5.1 1.2.3 1.8.5.5.3.8.6.9 1.1.6 2.9 1.1 3.3 3.8 4.3.9.3 1.7.5 2.5.5h.3c1.3 0 2.8-.1 4.2-.5.2 0 .4-.1.6-.1.3 0 .7.1 1.2.8l.1.2c.7 1.1.7 1.1.3 2.5l-.1.2-.1.5.3.4.4.6c.2.3.4.5.5.8 1 1.5 2.5 2.4 4.6 2.4h.6c.7 0 1.3 0 1.9-.1 1.2-.2 2.4-.5 3.6-.7l.4-.1c.4-.1.6-.1.9-.1.4 0 .7 0 1.2 1.1.1.3.3.5.4.7.1.1.1.2.2.3l.2.2.3.4h7.3c1.5 0 3-.1 4.5-1.1h.1c1.3-.2 2.4-.7 3.4-1.2 1.1-.5 2.1-.9 3.2-1.1.7-.1 1.3-.5 1.7-.8l.3-.2c.8-.6 1.7-1.2 2.5-1.8 1.2-1 2.6-2.5 2.2-5 .2-.2.4-.4.7-.5l2-1.6.1-.1c1.5-1.2 2.9-2.3 4.4-3.5.4-.3 1.6-1.3 1.8-3 0-.3.1-.6.2-.9.7-1.8 1.5-2.6 2.9-3l4.5-1.2h.2c.6-.2 1.2-.3 1.9-.5.1 0 .2-.1.3-.1.7-.2 1.6-.4 2.5-1.2l.1-.1.3-.3v-1c0-.3 0-.7.1-1 .1-.9.3-3.6-2.5-4.9.3-.6.7-1.1 1-1.5 1.8-2.2 3-4.4 3.8-6.9.3-1 .7-2.2 0-3.6-.1-.1-.2-.3.1-1 .6-1.8 1.4-3.6 2.5-5.1l1.2-1.5.1-.1c.6-.7 1.2-1.5 1.8-2.2 1.3-1.6 1.9-3.3 1.8-5.3V359c0-1.1.2-2.1.6-3 .7-1.5 1.5-3.2 1.6-5.2v-.2c.4-.4.7-.8 1-1.2.9-1.1 1.8-2.2 2.9-2.9l2.8-1.7c3.2-2 6.4-4 9.7-6 1.9-1.2 3.3-1.9 4.8-2.2 1-.3 3.6-1 3.8-3.8.1-.2.2-.3.4-.3h.6c1.7 0 3.1.6 4.2 2 1.4 1.7 3.2 2.5 5.1 2.5.7 0 1.5-.1 2.3-.4 1.3-.4 2.8-1.1 3.9-2.5.9-1.3 1.3-3 .9-4.6-.4-1.7-1.4-3.3-2.8-4.1-1.2-.8-2.5-1.1-3.8-1.4-2-.4-2.5-1.1-2.5-3v-3c-.1-1.3.3-2.6.8-3.7.4-1 .9-1.6 1.7-2.1.4-.2.7-.4 1.1-.6.4-.2.7-.4 1-.6 2.6-1.4 5-3.1 7.1-5.2 1-1 2-2.1 2.2-3.8.1-.3.3-.8.5-1.2l.3-.6c.3-.7.6-1.3 1-2 1.1-2.1 2.1-4.2 2.8-6.6.1-.4.3-.7 1-.9.1 0 .2-.1.3-.1.6-.1 1.6-.3 2.3-1.3l.1-.2.3-.3-.1-.4v-.2c-.1-.6.2-1.2 1.3-2.2.6-.6 1.2-1.2 1.7-1.8v-.1c.2-.3.5-.5.7-.8 1.3-1.4 1.9-2.9 2.1-4.4.1-.7.4-1.3 1-1.9.8-1 1.5-1.9 2.3-2.9.6-.7 1.2-1.5 1.7-2.2 1-1.3 1.8-2.5 2.2-3.8l.1-.2.2-.4-.2-.4-.1-.2c0-.1-.1-.1-.1-.2-.1-.2-.3-.6-.7-.9-1-.8-1.4-1.7-1.3-3 .1-1.4-.5-2.6-1.7-3.4-.3-.2-.5-.5-.8-.7.2-.6.4-.7.5-.7.2-.1.5-.2.7-.3.2-.1.4-.2.5-.2 1.6-.7 2.9-1.8 3.8-3.5l.6-1.2c.2-.3.3-.6.5-.9.8-1.5.8-3.2 0-4.6l-.4-.7c-.4-.6-.7-1.3-1.1-1.9-.3-.5-.8-1-1.4-1.4-.4-.3-.7-.5-1.1-.7-.2-.1-.4-.2-.5-.3-.3-.2-.4-.3-.4-.3-.1-1-.6-2.6-2.9-3 .1-.2.2-.3.3-.5.8-1.3.9-2.7.3-4.1-.8-1.9-2.1-2.2-2.9-2.2-.4 0-.9.1-1.3.3-.6.2-1.2.5-1.7.8-.2.1-.4.2-.7.4-2.3 1.2-3.7 3.1-4.3 5.6-.2 1.1-.3 2.3-.3 3.4 0 .8-.2 1.5-.6 2-.1.1-.1.1-.1.2-1.6 0-2.5 1-3.2 1.7l-.3.3c-.1.1-.3.4-.4.5h-.4c-1.8 0-2.8 1.2-3.4 2-.4.5-.7.9-1.1 1.4-.3.4-.5.7-.8 1.1 0 .1-.1.1-.1.2-.3-.3-.5-.7-.7-1.2-.3-.8-.5-1.6-.7-2.4l-.3-1c-.2-.7-.1-1 .2-1.3.4-.4 1.1-1.3 1-2.5v-.7c0-.8-.1-1.6-.3-2.5-.5-1.5-1.2-3.8-4.2-3.8-.5 0-1.1.1-1.8.2-.2 0-.4.1-.5.1-.3 0-.6-.1-.9-.3-.6-.4-1.1-1-1.2-1.8-.1-.6 0-1.3.4-1.7l.2-.2c.1-.2.3-.3.4-.5.7-.9.7-2 0-3.1-1.4-1.3-2.1-1.8-3.1-1.8zm-24.6 42.5c1.5 0 2.8-.6 3.9-1.7l.5-.5c1.7-1.7 3.5-3.6 4.5-6 .3-.7.9-1.5 1.5-2.2.8-1.1 1.4-2.2 1.7-3.6.3-1.6.7-3.6.7-5.6 0-1 .1-2 .1-2.9.1-1.4.2-2.8.1-4.3 0-1.2.5-2 1.6-2.6 1.7-.9 3.1-2.1 4.5-3.8.7-.8 1.4-1.5 2.2-2.2.2 3.3 2.5 5.7 5 6.5.5.2 1.2.3 1.9.3.5 0 1-.1 1.4-.3.2-.1.3-.1.4-.1.5 1.1.5 1.5.1 2-1.1 1.4-1.4 3.1-.9 4.9.2.7.4 1.5.6 2.2v.1l.3 1.2c.5 1.6 1.4 3 2.8 4.2l-14.3 23.8-19.1 15.9-69.4 68.7-1.3-1.8-.1-.2-.2-.1-13.4-7.8c.5-1.1 1.4-2 2.3-2.9l.5-.5c.1 0 .2-.1.3-.1.1 0 .2-.1.3-.1.2-.1.3-.2.5-.2.3-.1.6-.3.9-.4 1.2-.6 1.7-1.8 1.3-3.1l.3-.3.1-.1c.8-.7 1.6-1.5 2.4-2.4.8-.9 1.4-1.8 2-2.7v-.1c.1-.2.3-.4.4-.6.2 0 .5-.1.8-.1.9-.1 2-.1 2.9-.8.7.3 1.5.5 2.3.5 1.9 0 3.5-1 4.7-1.9 1.2-.9 2.4-2 3.7-3.2 1.7-1.7 3.7-3.3 5.7-4.7.5-.4.9-.7 1.4-1 .5-.4 1-.5 1.8-.5.9 0 2.2-.2 3.3-1.3.1-.1.1-.1.2-.1 1.9-.3 2.9-1.6 3.8-2.7.4-.5.7-1 1-1.5.8-1.3 1.7-2.1 3-2.4 1.9-.5 3.3-1.9 4.3-3 1.4-1.6 2.7-3.2 4.2-4.9.6-.7.9-1 1.4-1.2.7-.2 1.2-.7 1.7-1l.1-.1c1-.8 1.9-1.3 2.9-1.6 1-.2 1.9-.7 2.9-1.6 2.6-2.1 5.6-4.7 8-7.9 4.2-5.5 6.7-10.3 8.1-15.4.2-.6.3-1.3.4-2 .3-2.6 1.2-5.1 2-7.6.4-1.2.8-2.5 1.2-3.7l.1-.2.2-.7h1.5zm51.9-25.2c.6 0 1.2-.2 1.6-.5.6-.5 1.1-.7 1.5-.8.5 1.2 1.4 2.1 2.6 2.8.9.5 1.4 1 1.7 1.7.2.4.4.8.6 1.1.1.1.1.2.2.3.1.1.1.1 0 .2-.5.9-.9 1.8-1.5 2.6-.3.5-.9.8-1.4 1.1-3.2 1.5-3.5 1.9-4.6 5.5v.1l-.1.3.1.3v.1c.5 1.5 1.5 2.5 2.4 3.3.1.1.3.2.4.3-.1 2 .5 3.6 1.7 5-.2.3-.4.5-.6.8l-1.4 1.7c-1 1.3-2.1 2.6-3.1 4-.9 1.1-1.3 2.1-1.4 3.2-.1 1-.5 1.9-1.4 2.8-.4.4-.8.9-1.2 1.3-.6.6-1.2 1.3-1.8 1.9-.6.6-1.2 1.3-1.4 2.4l-.1.1c-.5.3-1 .5-1.4.8-1.1.7-1.9 1.6-2.2 2.8-.1.3-.2.7-.3 1.1l-10.6 4.4-13.2 2.2-8.9-5.6 12.6-10.4.1-.1.1-.1 14.6-24.2h.2c.8 0 1.5-.4 2.1-1.1 1-1.2 2-2.5 3-3.7l.1-.1c.1-.1.2-.2.2-.3h.4c.8 0 1.5-.4 1.9-.7.7-.5 1.3-1 1.9-1.6l.3-.3h.3c1.2 0 1.9-.7 2.2-1.1 1.1-1.1 1.9-2.4 2.2-3.8.7.1 1.2.2 1.6.2zm-50.3 52.7l4.2-3.5 10.4 6.5.3.2.4-.1 14.1-2.3h.2l8-3.4c-.2.5-.5.9-.7 1.4v.1c-.3.5-.5 1.1-.8 1.6-.1.2-.2.3-.3.5-.4.7-.7 1.4-.9 2.3-.1.6-.4 1.2-1.3 2-1.7 1.6-3.6 3-5.6 4.1-.5.3-1 .5-1.4.8l-.9.5c-1.9 1.1-3.3 2.7-4.1 5.1-.5 1.4-1 3.3-.9 5.4v2.9c.1 4.9 3 6.4 5.9 7.2.2.1.5.1.8.2.7.2 1.3.3 1.8.6s.7.7.8 1.4c0 .4-.1.6-.4.8-.7.5-1.4.8-1.9.8-.4 0-1.1-.1-2-1.1-2-2.3-4.5-3.4-7.6-3.4-.5 0-1 0-1.5.1-1.5.2-2.6.9-3.3 2.1-.3.5-.5 1.1-.8 1.6 0 .1-.1.2-.1.3l-.6.3c-2 .6-3.8 1.5-5.7 2.7-4.7 2.9-8.6 5.3-12.3 7.6-1.9 1.1-3.2 2.7-4.4 4.3-.3.4-.7.8-1 1.2-.5.5-.8 1.3-.8 2.1-.1 1.2-.5 2.5-1.3 4.1-.8 1.5-1.1 3.1-1 5v6.2c0 1.2-.3 2.1-1.1 3-.6.7-1.2 1.5-1.7 2.2-.1.2-.2.3-.4.5L189.8 361l-5.6-15.7 48.1-47.7zm-69.7 69l19.3-19.1 5.4 15.3.1.4.4.2 24.6 10.2c-1 1.7-1.7 3.5-2.3 5.2-.4 1.3-.5 2.5 0 3.6.1.2.1.4-.1 1-.6 1.8-1.3 3.3-2.4 4.6-.7.9-1.3 1.8-1.9 2.7l-.2.4c-.6 1-.8 2.1-.6 3.2.3 1.4 1.1 2.4 2.4 2.9 0 0 .1 0 .1.1-.1 0-.3.1-.4.1-.3.1-.5.1-.8.2-1.6.5-3.4 1-5.5 1.5-1.3.3-2.4 1-3.3 2.1-1.4 1.6-2.2 3.1-2.5 4.8-.1.4-.2.7-.7 1.1-.4.3-.8.7-1.3 1l-30.3-41.5zM119 407.5c-.5 0-1.1-.3-1.5-.9-.1-.2-.3-.4-.4-.6l-.6-.9-.4-.6c-.5-.7-1.1-1.5-1.8-2.2-.6-.6-.9-1.2-1.1-1.9-.5-2.2-.2-4.3.7-6.2.1-.2.3-.4.6-.7l.3-.3c1.2-1.3 2.2-2.4 3.1-3.4.9-.9 1.5-2 1.8-3.3.9-3.4 2.6-6.6 5.2-9.7 1-1.1 1.9-2.3 2.8-3.6 2-3 4.6-5.5 6.6-7.3 1.4-1.3 2.8-2.6 4.2-3.8l1.7-1.5c.8-.7 1.4-1.2 2.2-1.4 1-.3 1.7-.9 2.2-1.9l12.6 7.2 33.3 45.4c-.9.7-1.9 1.5-2.8 2.2-.7.5-2.7 2-2 4.8l-.1.1-.4.3c-1.2 1.1-2.3 2-3.8 2.2-.7.1-1.3.4-1.9.6-.2.1-.3.1-.5.2-.6.2-1.2.5-1.9.7l-1 .4c-.2 0-.5.1-.7.3-1.1.7-2.3.8-3.9.8H168c-.1-.2-.3-.4-.4-.5-1.2-1.5-2.9-2.3-4.7-2.3-.7 0-1.3.1-2 .3-1.6.5-3.2.7-4.7.8h-.2c-.6 0-.9-.1-1.1-.4.4-.8.5-1.9-.3-3.2-.2-.3-.4-.5-.6-.8-.4-.6-.9-1.3-1.2-1.9-.8-1.4-2.1-2.2-3.8-2.2h-.6c-.3 0-.6.1-.9.1l-1.7.2c-.6.1-1.2.1-1.8.2h-.4c-.6 0-1.1-.1-1.7-.5-.1-.5-.2-1-.4-1.5-.2-.6-.4-1.3-1-1.8-1.9-1.7-3.8-2.5-6-2.5-.3 0-.7 0-1 .1-1.3.2-2.3.8-2.8 1.8-.2.4-.5.8-1.8.8-1.2 0-2.3-.1-3.5-.6-1.6-.7-3-1.1-4.4-1.1-.5 0-1.1.1-1.6.2-.2-.2-.3-.2-.4-.2z"/><path d="M314.5 265c-.8 0-1.4-.2-2-.6-.9-.6-1.4-1.6-1.6-2.9v-.1l-.3-1.5c-.1-.4-.3-.9-.8-1.1-.1-.1-.3-.1-.5-.1s-.5.1-.8.2c-.1 0-.2.1-.3.1-.9.5-1.5.8-2.1.8-1 0-1.6-.6-2.4-1.6-.6-.7-1.2-1.2-2.4-1.4l-.3-.1c-.2-.1-.4-.1-.6-.1-1.4-.1-2.4-.9-2.9-2.5s.5-2.7 1-3.3c.1-.1.3-.3.5-.4 2.1-.9 3.3-2.9 4.5-4.9l.4-.8c1-1.6 1.9-3.3 2.8-4.8l1.8-3.3c.9-1.5 1.2-3.3 1.5-5l.1-.6c.5-2.9.7-5.9.5-8.8-.1-.9-.3-1.7-.8-2.5-1.2-1.9-2.5-3.6-3.9-5.1-1.4-1.4-2.7-2.1-4.1-2.1h-.8c-1 0-2-.3-3.1-1-1.7-1-2.9-1.9-3.9-2.9-.6-.6-1.2-1.1-1.9-1.7-2.3-1.9-4.5-3.1-6.8-3.6-2.5-.5-4.1-2-5.7-3.5l-.1-.1c-.4-.4-.6-.8-.8-1.2-.2-.3-.3-.7-.4-1l-.1-.4c-1-3-1-3.3.3-6.2.4-.9.9-1.5 1.6-2 2.7-1.9 5-3.5 7.1-5 .8-.6 1.7-.9 2.6-.9h1.5c.2 0 .4.1.6.1 1 0 1.8-.5 2.7-1.6 1.1-1.4 1.7-2.7 2.1-4.1.6-2.6.9-5.4 1.1-8l.1-1.3c.1-1.1.2-2.4 1.2-3.6.5-.6.6-1.5.2-2.3-.3-.7-.6-1.2-.7-1.8-.1-.3-.1-.7-.2-1v-.4l-.1-.7 2.7-1.2c.2-.5.1-1.1-.1-1.5-.6-1.9-.4-3.8.5-5.7.5-.9.5-1.7.2-2.9l-.6-2.1c-1.3-4.4-2.6-9-4.5-13.2l-.1-.2c-.4-.9-.7-1.5-1.4-1.7-.8-.3-1.3-1-1.4-2.1-.1-.9-.2-1.8-.2-2.7 0-.7-.2-1.4-.6-2.1-1.4-2.8-3.2-5.6-5.5-8.7-.7-.9-1.5-1.7-2.3-2.5l-.3-.3c-.7-.7-1.5-1.6-1.8-2.9-.6-2.6-1.8-5.1-3.8-7.7-1-1.4-2-2.7-3-4.1l-.2-.3c-1.3-1.8-2.7-3.6-4.1-5.4-3.2-4.3-6.4-8.5-9.4-12.4-.8-1-1.5-2.3-.9-4.1l.1-.4 1.9-.7c.3-1.3.1-2.3-.7-3.3l-2.4-3.3c-1.1-1.6-2.3-3.2-3.5-4.8-.6-.8-1.4-1.6-2.2-2.4l-1.2-1.2-.4-.4c-.5-.5-1.1-1-1.4-2l-.1-.3.1-.3c.4-1.3 1.4-2.2 2.2-2.9l.5-.4 1.9.9c1.1-.5 2.2-.8 3.3-.8 1.2 0 2.4.3 3.8.8l.7.3-.1.8v.4c0 .4-.1.9-.3 1.4-.5 1-.4 2 .1 3.2.6 1.3 1.3 2.5 1.9 3.8l.4.7c.1.3.4.6.7.8.4.4.7.6 1 .6.2 0 .5-.1.9-.4l.9-.6.8-.6.4.1c1.6.3 2.8 1 3.7 2.1.6.7 1.3 1.2 2.2 1.5l1.4.4c.9.3 1.9.6 2.8.9.2.1.5.1.7.2.8.2 1.8.4 2.7 1.2l.7.2.4 1.7c.5 0 .9.1 1.3.1.9.1 1.6.5 2.1 1.2s.6 1.5.4 2.4c-.1.2-.1.4-.2.7-.1.3-.2.5-.2.7.5-.1 1-.1 1.4-.1.8 0 1.5.1 2.2.4.8.4 1.5.8 2 1.5 1.4 1.9 2.7 4.1 3.9 6.7.3.7.3 1.5.4 2.2v4.2c0 .7-.1 1.4-.2 2l-.1.7c0 .3-.1.6-.1.8-.1.5-.2 1-.1 1.5 0 1 .3 1.7 1 2.2 1.2 1.1 2.1 2.2 2.6 3.5.4.8.9 1.4 1.8 1.8.7.3 1.4.8 2.1 1.5 1.2 1.2 1.5 2.7.8 4.2-.3.7-.7 1.2-1.1 1.8-.1.2-.3.4-.4.6-.2.2-.3.4-.5.7-.3.4-.5.7-.7 1-.5 1-.6 1.9-.2 2.8 0 .1.1.2.1.3.5 1.4.9 3.3-.7 5h1.8c.8 0 1.5 0 2.2-.1h.7c2.7 0 4.8 1.3 6.7 2.5 2 1.2 2.4 3.3 2.6 4.8 0 .2 0 .4.1.6 0 .4.1.8.1 1.1.1.4.3.5.5.5h.1c.4 0 .8-.2.8-.4.5-1.4.3-2.8-.4-4.1-.6-1.1-1.2-2.2-1.5-3.5-.1-.6-.3-1.5-.2-2.5.3-2.2-.1-3.9-1.2-5.3-.5-.6-.8-1.4-1-2.1-.2-1 .1-2 .9-2.6.5-.4 1.1-.6 1.7-.6.4 0 .7.1 1 .2 1 .4 1.9 1.1 2.6 1.7.6.5 1.1.9 1.6 1.4.6.6 1.2 1.1 1.9 1.6.9.7 1.9 1.3 3.2 2.1 1 .6 1.6 1.4 1.7 2.4l.3 1.5c.1.7.2 1.3.3 2 .1.9.2 1.8.4 2.7.3 1.9.6 3.8.5 5.8 0 1.1.4 2.2.8 3.3.7 1.8 1.1 3.6 1.1 5.6 0 1 .1 2 .3 2.9.2.9.7 1.4 1.6 1.6.2 0 .4.1.6.1.2.1.4.1.6.1 3.1.1 5.9 1.3 8.4 2.5.7.4 1.5.7 2.2 1.1 3.9 2.1 8 3.6 11.5 4.8.9.3 2 .6 3.2.6.4 0 .9 0 1.3-.1 1.4-.3 2.3-.7 2.9-1.5l.3-.4c1.2-1.5 2.4-3 3.5-4.5 1-1.5 2.2-2.9 4.4-3.5.6-.2 1.3-.6 1.9-1.3 1-1.1 2.3-1.6 3.8-1.7.7 0 1.6-.1 2.4-.1h1.7c1 .1 2.7.1 3.8 1.8.1 0 .2.1.5.2h.2c1.1.3 2.2.7 3.2 1.5 1.1.9 1.4 2 1 3.3-.2.7-.6 1.4-.9 2-.2.3-.4.6-.7.9-.2.2-.4.5-.5.7-.3.5-.6 1.1-.9 1.8-.1.2-.2.5-.2.8-.1.2-.1.4-.2.6-.1.4-.5 2.8-.5 3.4 0 .3-.1.6-.1.8 0 .1-.1.2-.1.3v.8c.3.9.2 1.7-.4 2.4-.2.2-.2.4-.1 1v.1c.1 2.1-.1 4.1-.8 6.2-.6 1.8-1.6 3.3-3.1 4.8-1.2 1.2-2.4 2.4-3.5 3.6-.4.4-.8.9-1.1 1.4l-.2.3c-.9 1.2-1.3 2.4-1.1 3.9.1.6 0 1.2 0 1.8v.3l2 1.4v.5c.2 2.5-1.3 3.9-2.5 4.8-.5.4-1.1.6-1.7.6-.8 0-1.7-.4-2.2-1-.3-.4-1.3-1.5-.9-3.1 0-.1.1-.3.1-.4h-.5c-2 0-4.1 0-6.2.2-2.9.2-5.4 1.3-7.5 3-1.7 1.4-2.8 3.4-3.7 5.3 0 0-.1.2 0 .6 0 .3.1.6.1 1 0 .3.1.5.1.7.2 1.9.9 2.7 2.4 3 .3 0 .6.2.9.3.8.3 1 .9 1.2 1.3.1.4.1 1-.4 1.7-.2.2-.3.4-.6.7-.7.6-1 1.3-1.2 2.5-.1 1-.5 2.1-1 3.3-1 2.1-1.8 4.3-2.4 6.5-.3 1.3-.9 2.2-1.9 3.1l-.6.6c-.8.6-1.5 1.3-1.9 2-.3.6-.4 1.4-.5 2.3 0 .4-.1.7-.1 1.1-.4 2.1-1.5 3.6-3.3 4.3-.5.2-1 .6-1.4 1.2l-.1.1c-1.7 2.5-3.3 4.8-4.2 7.6-.4 1.4-1.3 2.6-1.9 3.6-1.2 1.7-1.9 3.1-2.5 4.5-1.3 3.4-3.7 5.8-6.5 8.4-.4.3-.8.6-1.2.8-1.9.9-3.6 2.4-5.1 3.8-1.8 1.6-3.5 2.6-5.4 3-1.2-.4-1.7-.3-2.1-.3zm-4.4-10c.5.2 1 .4 1.4.6 1.5.6 2.3 1.7 2.6 3.2.1.8.3 1.6.5 2.3v.1c1-.2 2.1-.6 2.9-1.2l.8-.7c.7-.6 1.4-1.2 2.1-1.7.9-.7 1.9-1.5 3-2.1 3-1.9 5.3-4.3 6.8-7.3.8-1.7 1.7-3.5 2.8-5.2l-6.7-2.4-17.2 2.4c-.3.6-.6 1.1-.9 1.7l-1.8 3-.1.1c-.4.7-.8 1.4-1.2 2-.7 1.2-1.8 2.3-3.1 3.1-.1.1-.2.1-.3.2.1 0 .2.1.3.1 1.4.3 3.2.9 4.4 2.5l2.5-1.1 1.2.4zm24.3-14.2l.6-1.2c1-3.3 2.9-6.1 4.8-8.7l-15.7-30.2-14.6-14.2.3 26.6c1.2 1.5 2.4 3.2 3.6 5 .6.9.9 1.9 1 3.2.2 3.6.1 6.9-.5 10-.5 2.8-1.2 6-3.1 8.9l15.8-2.2 7.8 2.8zm6.8-11.5c.3-.2.6-.4.9-.5 1.1-.4 1.7-1.2 1.8-2.6v-.3c.2-1.3.3-2.6 1-3.7.6-1 1.4-1.7 2.3-2.4.2-.2.4-.3.6-.5.7-.6 1.1-1.3 1.3-2.1.5-2 1.3-4.1 2.4-6.4.5-1.1.8-2.2 1-3.3.1-.7.3-1.3.5-2 0 0 0-.1.1-.2-1.4-.7-2.3-1.8-2.7-3.5-.2-.8-.4-1.6-.5-2.5-.2-1.7-.3-3.5 1-5.2.1-.1.2-.3.3-.6.1-.2.2-.3.3-.5 1.6-2.7 3.4-4.5 5.6-5.7 2.9-1.5 5.8-2.3 8.7-2.3h.7c.7 0 1.4 0 2.1-.1.8 0 1.5-.1 2.3-.1.7 0 1.3 0 1.9.1v-2.8c0-.6.1-1.3.4-2 .8-1.6 1.8-3.3 3.2-4.6.8-.7 1.5-1.5 2.2-2.2.6-.6 1.2-1.3 1.8-1.9 1.3-1.2 1.7-2.9 1.9-4.2v-.1c.2-1.3.4-2.6.2-3.9 0-.2-.1-.4-.1-.6L340 190.7l-13.9 9.7 15.1 28.9zM303 208.8c.8 0 1.5.3 2.1.6 1 .5 1.9 1.1 2.7 1.7l-.3-26.5-7.2-6.1c-.5 1.8-1.1 3.2-2 4.4-1.9 2.5-3.2 3.9-5.9 3.9-.4 0-.7 0-1.1-.1h-.7c-.6 0-1.2.2-1.8.6-1.1.8-2.3 1.6-3.4 2.4-.8.5-1.5 1.1-2.3 1.6-1.5 1.1-2 2.4-1.4 4.3.3.9.7 1.6 1.5 2.3 1 .9 2.1 1.6 3.4 1.8 3.2.8 6.1 2.4 9.4 5.4l.6.6c.4.4.7.7 1.1 1 1.4 1.1 2.7 2 4.3 2h.6c.2.1.3.1.4.1zm22-10l13.5-9.4-2.4-40.4c-.2 0-.5-.1-.8-.1-1.1-.1-1.9-.3-2.7-.4-1.9-.4-3.2-1.6-3.9-3.5-.5-1.3-.7-2.6-.6-3.9.1-1.9-.2-3.6-.9-5.2-.7-1.5-1-2.7-.9-3.8 0-1.9-.2-3.8-.5-5.7-.1-.6-.2-1.3-.3-1.9 0-.4-.1-.7-.1-1.1-.1-1.1-.2-2.1-.6-2.9l-.9-.6c-.9-.6-1.6-1.1-2.4-1.7l-2.1-1.8c.4 1.4.7 2.9.4 4.5-.2.9 0 1.9.6 3l.3.6.3.6c1.3 2.3 1.5 4.9.6 7.7-.2.5-.6 1.1-1.1 1.4-.6.4-1.2.7-1.9.8-.5.1-.9.2-1.3.2-1.9 0-3.5-1.2-4-3.2-.2-.6-.2-1.2-.3-1.7 0-.2 0-.4-.1-.6-.1-1.1-.4-1.7-.9-2-1.6-1.1-3.1-1.9-4.9-1.9h-.3c-1 0-2.1.1-3.4.1h-1.2c-.8 0-1.3-.1-1.8-.4-.9-.6-1.5-1.6-1.7-2.7-.2-1.1.1-2.1.8-2.9.5-.5.5-.8.2-1.5-.7-1.7-.7-3.5.2-5.5.5-1.1 1.2-1.9 1.8-2.7l.2-.3c.7-.8.7-1.1.7-1.2 0 0-.1-.3-1-.9h-.1c-1.5-.5-2.6-1.6-3.4-3.4-.5-1-1.1-1.9-2-2.6-1-.8-1.6-1.9-1.8-3.5-.3-1.4-.2-2.7.1-4.2.2-.8.2-1.6.3-2.4.1-1.2 0-2.4 0-3.5v-.3c0-.4 0-.8-.1-1.1-1-2.2-2-3.9-3.1-5.4-.4-.6-.9-.9-1.5-.9-.2 0-.4 0-.6.1h-.1c-.1 0-.3.1-.4.1-.2 0-.4.1-.6.1-.8 0-1.5-.2-2.1-.7-.7-.6-1.2-1.4-1.3-2.3-.1-.7 0-1.4 0-2.1-.2 0-.5 0-.7-.1-2.1-.1-2.5-.5-2.8-2.7 0-.1 0-.3-.1-.4l-1.2-.3c-1.7-.5-3.2-1-4.7-1.5-1.4-.5-2.5-1.2-3.4-2.2-.3-.4-.5-.6-.8-.7l-1.4.7c-.7.3-1.3.5-2 .5-.6 0-1.2-.1-1.7-.4 1.1 1.7 1.2 3.4 1.1 4.9-.1 1.6-.6 2.7-1.7 3.4.1.2.3.4.5.7 1 1.3 3.2 4.2 3.2 4.2 1.7 2.2 3.4 4.5 5.1 6.7 1.5 2 2.9 3.9 4.4 5.9 1.2 1.7 2.5 3.3 3.7 5 1.9 2.6 3.2 5.2 3.8 7.9.2.7.5 1.3 1.2 2l.3.3c.8.8 1.7 1.6 2.4 2.6 1.7 2.3 3.5 4.9 5.1 7.7 1.1 2 2 4 1.8 6.4v.3c0 .5.1.5.2.6 1.1.4 1.5 1.3 1.8 2l.1.1c1.4 2.9 2.4 5.4 3.1 7.8 1 3.3 1.9 6.7 2.9 10 .4 1.5.3 2.8-.3 4-.1.1-.1.2-.2.4-.1.1-.1.3-.2.4-.5 1.1-.6 2-.3 3 .4 1.6.3 3.1.1 4.6l-.1.5-1.7 1c.1.2.1.3.2.5.7 1.6.3 3.1-.1 4.4-.1.3-.2.5-.2.8l-.1.3-.3.2c-.5.4-.6 1-.7 2l-.1 1c-.1 1.4-.2 2.8-.4 4.3l-.1.7c-.1.5-.2 1-.2 1.5l8.7 7.4 15.9 14.7zm15.4-10.7l42.5-28.2c0-.6.1-1.2.3-1.8-.7-1.7-.4-3.3.7-4.7.4-1.9 1.3-3.7 3-5.7 0 0 .1-.1.1-.2l.2-.4s-.1-.1-.3-.1c-.6-.2-1.2-.3-1.8-.5-.3-.1-.6-.2-1-.2l-.5-.1-.2-.5c-.2-.6-.7-1-1.9-1h-2.6c-.9 0-1.5.3-2.1.8-1 1.1-2.2 1.8-3.5 2.1-.9.2-1.6.8-2.2 1.9-1.3 2.1-2.7 3.9-4.4 5.6-1.1 1.2-2.5 1.9-4.1 2.3-.9.2-1.8.3-2.7.3-.8 0-1.5-.1-2.2-.3-3.1-.8-6.2-1.9-9.6-3.3-2.1-1-4.3-2-6.3-3-.9-.4-1.8-.9-2.7-1.3-.4-.2-.8-.3-1.2-.5l2.5 38.8zm-83-131.4c.3.3.6.7 1 1 .7.7 1.3 1.4 1.9 2.2.1.1.2.2.2.3-.3-.8-.5-1.6-.5-2.5v-1.8h-.4c-.3 0-.5 0-.6.2-.6.2-1.1.4-1.6.6 0-.1 0 0 0 0z"/><path fill="#cf202f" d="M254.7 52.6l1.9.9c1.1-.5 2.2-.8 3.3-.8 1.1 0 2.3.3 3.6.8l.4.1-.1.4v.5c0 .4-.1.8-.2 1.2-.5 1.1-.5 2.3.1 3.7.6 1.3 1.3 2.6 2 3.8l.4.7c.2.3.5.6.8.9.5.5.9.8 1.4.8.3 0 .7-.1 1.2-.4.3-.2.7-.4 1-.6l.6-.4h.2c1.5.3 2.6.9 3.4 1.9.6.8 1.4 1.3 2.5 1.7l1.4.4c.9.3 1.9.6 2.8.9.2.1.5.1.7.2.8.2 1.6.4 2.5 1.1l.1.1.4 1.9h.3c.5 0 .9.1 1.4.1.7.1 1.4.4 1.7 1 .4.6.5 1.3.3 2-.1.2-.1.4-.2.6-.1.3-.2.5-.2.8 0 .2 0 .4.1.5.1.1.2.1.3.1h.2c.5-.1.9-.1 1.3-.1.7 0 1.4.1 2 .4.8.3 1.3.7 1.8 1.3 1.4 1.8 2.7 4 3.9 6.6.3.6.3 1.4.3 2v4.1c0 .7-.1 1.3-.2 2l-.1.7c0 .3-.1.5-.1.8-.1.5-.2 1-.2 1.5 0 1.1.4 1.9 1.1 2.6 1.2 1 2 2.1 2.5 3.3.4.9 1.1 1.6 2 2.1.6.3 1.3.8 1.9 1.4 1 1 1.3 2.4.7 3.6-.3.6-.7 1.2-1.1 1.7-.1.2-.3.4-.4.6-.1.2-.3.4-.5.6-.3.4-.6.7-.7 1.1-.6 1.2-.6 2.2-.2 3.2 0 .1.1.1.1.2.5 1.4.8 3-.6 4.5-.2.2-.2.4-.2.5.1.2.3.3.6.3h1.7c.8 0 1.5 0 2.2-.1h.7c2.5 0 4.6 1.3 6.5 2.4 1.8 1.1 2.2 3 2.3 4.4v.5c0 .4.1.8.1 1.2.1.5.4.8.9.9h.2c.6 0 1.1-.3 1.3-.8.5-1.5.3-3-.5-4.5-.6-1.1-1.2-2.1-1.5-3.4-.1-.6-.3-1.4-.2-2.4.3-2.3-.1-4.2-1.3-5.7-.4-.6-.8-1.3-.9-2-.2-.8.1-1.6.7-2.1.4-.3.9-.5 1.3-.5.3 0 .6.1.8.2.9.4 1.8 1.1 2.5 1.7.5.5 1.1.9 1.6 1.4.6.6 1.2 1.1 1.9 1.7.9.7 1.9 1.4 3.3 2.2.9.5 1.4 1.2 1.5 2.1.1.5.2 1.1.3 1.6.1.6.2 1.3.3 1.9.1.9.2 1.8.4 2.8.3 1.8.6 3.8.5 5.7 0 1.1.4 2.4.9 3.4.7 1.7 1 3.5 1 5.4 0 1 .1 2 .3 3 .2 1.1.9 1.8 2 2 .2 0 .4.1.6.1.2.1.5.1.7.1 3 .1 5.7 1.3 8.2 2.5.7.4 1.5.7 2.2 1.1 3.9 2.1 8.1 3.6 11.6 4.8 1 .3 2.1.6 3.4.6.4 0 .9 0 1.4-.1 1.5-.3 2.5-.8 3.2-1.7l.3-.4c1.2-1.5 2.4-3 3.5-4.5.9-1.4 2.1-2.7 4.2-3.3.7-.2 1.4-.7 2.2-1.4 1-1 2.1-1.5 3.5-1.5.7 0 1.6-.1 2.4-.1h1.7c1.2.1 2.6.3 3.5 1.7.1.1.5.2.7.3h.2c1.1.3 2.1.6 3 1.4.9.7 1.2 1.7.8 2.7-.2.7-.5 1.3-.9 1.9l-.6.9c-.2.2-.4.5-.5.7-.3.5-.7 1.2-1 1.9-.1.3-.2.5-.3.8-.1.2-.1.4-.2.6-.2.5-.5 2.9-.5 3.6 0 .3-.1.5-.1.7 0 .1-.1.3-.1.4v.2c0 .3-.1.6 0 .8.3.7.2 1.4-.3 1.9-.3.4-.3.8-.2 1.4v.1c.1 2-.1 4-.8 6-.6 1.7-1.5 3.2-3 4.6l-3.6 3.6c-.4.4-.8.9-1.1 1.4l-.2.3c-1 1.3-1.4 2.6-1.2 4.2.1.6 0 1.1 0 1.7v.5l2 1.4v.2c.2 2.2-1.2 3.6-2.3 4.4-.4.3-.9.5-1.4.5-.7 0-1.4-.3-1.8-.9-.5-.6-1.1-1.5-.8-2.7.1-.2.1-.4.1-.7v-.1h-.1c-.2-.1-.4-.2-.5-.2h-.4c-2.1 0-4.2 0-6.2.2-3 .2-5.6 1.3-7.8 3.2-1.7 1.5-2.9 3.5-3.8 5.4-.1.2-.1.6-.1.8 0 .4.1.7.1 1 0 .2.1.5.1.7.2 2.1 1.1 3.2 2.9 3.4.3 0 .5.1.8.2.6.3.8.6.9.9.1.3.1.7-.3 1.3-.1.2-.3.4-.5.6-.8.7-1.2 1.5-1.3 2.8-.1 1-.4 2-1 3.1-1 2.1-1.8 4.3-2.4 6.6-.3 1.2-.9 2.1-1.7 2.9l-.6.6c-.8.7-1.6 1.4-2 2.2-.4.7-.5 1.5-.6 2.5 0 .4-.1.7-.1 1-.3 1.9-1.4 3.3-3 3.9-.6.2-1.1.7-1.6 1.4l-.1.1c-1.7 2.5-3.4 4.9-4.2 7.7-.4 1.3-1.2 2.5-1.9 3.4-1.2 1.7-2 3.1-2.5 4.6-1.3 3.3-3.6 5.6-6.4 8.2-.3.3-.7.6-1 .7-2 1-3.6 2.4-5.2 3.9-1.7 1.5-3.4 2.5-5.2 2.9-.5.1-.9.2-1.3.2-.7 0-1.2-.2-1.7-.5-.7-.5-1.2-1.4-1.4-2.5v-.1c-.1-.5-.2-1.1-.3-1.6-.2-.7-.6-1.2-1-1.4-.2-.1-.5-.1-.7-.1-.3 0-.6.1-1 .2-.1.1-.2.1-.3.2-.8.5-1.4.7-1.9.7-.7 0-1.3-.5-2-1.4-.6-.8-1.4-1.3-2.7-1.6l-.3-.1c-.2-.1-.5-.1-.7-.1-1.8-.1-2.3-1.7-2.4-2.2-.4-1.3.4-2.3.9-2.9.1-.1.2-.2.4-.3 2.3-1 3.4-3 4.7-5.1l.4-.7c1-1.6 1.9-3.3 2.8-4.9l1.8-3.3c.9-1.6 1.3-3.4 1.6-5.2l.1-.6c.6-2.9.7-6 .5-8.9-.1-1-.3-1.9-.8-2.7-1.2-1.9-2.5-3.7-4-5.2s-2.9-2.2-4.4-2.2h-.8c-.9 0-1.8-.3-2.8-.9-1.6-1-2.8-1.9-3.8-2.9-.6-.6-1.3-1.2-1.9-1.7-2.3-2-4.6-3.2-7-3.7-2.3-.5-3.9-2-5.4-3.4l-.1-.1c-.3-.3-.5-.7-.7-1.1-.1-.3-.2-.6-.3-1l-.1-.4c-1-2.9-1-3 .2-5.8.3-.8.8-1.4 1.4-1.8 2.7-1.9 5-3.5 7.1-5 .7-.5 1.5-.8 2.3-.8h1.4c.2 0 .5.1.7.1 1.1 0 2.1-.6 3-1.8 1.1-1.4 1.8-2.9 2.2-4.3.6-2.7.9-5.4 1.1-8.1l.1-1.3c.1-1.1.2-2.3 1.1-3.3.6-.8.7-1.8.3-2.8-.3-.6-.5-1.2-.7-1.7-.1-.3-.1-.6-.1-.9v-.8l2.5-1.1c.3-.7.2-1.5 0-2-.6-1.8-.4-3.5.5-5.3.5-1 .6-2 .2-3.3l-.6-2.1c-1.3-4.4-2.6-9-4.5-13.2l-.1-.2c-.4-.9-.7-1.7-1.7-2-1-.3-1-1.4-1.1-1.7-.1-.9-.2-1.8-.2-2.7 0-.8-.2-1.5-.6-2.3-1.4-2.8-3.2-5.6-5.6-8.7-.7-.9-1.5-1.8-2.4-2.6l-.3-.3c-.7-.7-1.4-1.5-1.6-2.7-.6-2.7-1.9-5.3-3.9-7.9-1.1-1.5-2.2-2.9-3.3-4.4-1.3-1.8-2.7-3.6-4.1-5.4-3.2-4.3-6.4-8.4-9.4-12.4-.7-1-1.4-2.1-.8-3.7l.1-.2 1.9-.8c.4-1.5.2-2.8-.7-4-.8-1.1-1.6-2.2-2.3-3.3-1.1-1.6-2.3-3.3-3.5-4.8-.7-.9-1.5-1.7-2.3-2.4l-1.2-1.2-.4-.4c-.5-.4-1-.9-1.3-1.8v-.2c.4-1.2 1.3-2 2-2.7l-.6.1M325 199.5l14-9.8-2.4-41.1c-.4-.1-.8-.1-1.2-.2-1.1-.1-1.9-.3-2.7-.4-1.7-.4-2.9-1.4-3.5-3.1-.4-1.2-.6-2.4-.6-3.7.1-2-.2-3.7-1-5.4-.6-1.4-.9-2.6-.9-3.6 0-1.9-.2-3.9-.5-5.8-.1-.6-.2-1.3-.3-1.9 0-.4-.1-.7-.1-1.1-.1-1.2-.2-2.3-.7-3.2-.4-.3-.7-.5-1.1-.7-.8-.5-1.6-1.1-2.3-1.6-.9-.7-1.8-1.5-2.6-2.3-.3-.2-.5-.4-.8-.7v.1l.2.6c.5 1.7 1 3.4.7 5.3-.2 1 0 2.1.6 3.3.1.2.2.4.4.6.1.2.2.3.3.5 1.2 2.2 1.4 4.7.5 7.3-.1.4-.5.9-.9 1.1-.6.4-1.2.6-1.7.8-.4.1-.8.2-1.2.2-1.7 0-3.1-1-3.6-2.8-.2-.5-.2-1.1-.2-1.6 0-.2 0-.4-.1-.7-.1-1.1-.4-1.9-1.1-2.4-1.7-1.1-3.3-2-5.1-2h-.3c-1.1.1-2.3.1-3.3.1h-1.2c-.7 0-1.2-.1-1.5-.4-.8-.5-1.3-1.4-1.5-2.4-.1-.9.1-1.8.7-2.5s.7-1.2.3-2.1c-.7-1.6-.6-3.2.2-5.1.4-1 1.1-1.8 1.8-2.6l.2-.3c.6-.7.9-1.2.8-1.6-.1-.4-.4-.7-1.2-1.2l.1-.5-.2.4c-1.4-.5-2.4-1.5-3.2-3.2-.5-1.1-1.2-2-2.1-2.8-.9-.8-1.4-1.8-1.7-3.2-.2-1.3-.2-2.6.1-4 .2-.8.3-1.7.3-2.5.1-1.2 0-2.5 0-3.5v-.3c0-.5 0-.9-.2-1.3-1-2.3-2-4-3.1-5.5-.5-.7-1.2-1-1.9-1-.2 0-.5 0-.7.1h-.1c-.1 0-.2.1-.3.1h-.5c-.6 0-1.3-.2-1.8-.6-.6-.5-1-1.2-1.1-2-.1-.7 0-1.3 0-2v-.5c-.4 0-.8-.1-1.2-.1-1.8-.1-2.1-.3-2.3-2.3 0-.2-.1-.4-.1-.7v-.1l-.3-.1-1.2-.3c-1.6-.5-3.1-1-4.7-1.5-1.3-.4-2.4-1.1-3.2-2.1-.4-.5-.7-.8-1.2-1l-1.5.8c-.6.3-1.2.5-1.8.5-1 0-1.9-.4-2.8-1.2-.6-.5-1.2-1.2-1.7-2-.4-.7-.8-1.5-1.2-2.2-.2-.3-.3-.6-.5-1-.6-1.2-1.3-2.6-1.4-4.2v-2.2c-.3-.1-.6-.1-.9-.1-.3 0-.6.1-.9.2-.7.5-1.5.6-2.2.7.2.3.4.5.6.7.3.3.6.7 1 1 .6.7 1.3 1.4 1.9 2.1.9 1.2 1.8 2.4 2.7 3.7 1 1.4 2 2.9 3.1 4.2 1.3 1.7 1.4 3.6 1.4 5.1-.1 1.6-.7 2.7-1.9 3.2l.1.2c.2.3.4.6.7.9 1.1 1.4 2.2 2.8 3.2 4.2 1.7 2.2 3.4 4.5 5.1 6.7 1.5 2 2.9 3.9 4.4 5.9 1.2 1.7 2.5 3.3 3.7 5 1.9 2.5 3.1 5.1 3.7 7.7.2.8.6 1.5 1.3 2.2l.3.3c.8.8 1.6 1.6 2.3 2.5 1.6 2.2 3.5 4.9 5 7.7 1 1.9 2 3.8 1.8 6.1v.4c0 .7.2.9.5 1 .9.4 1.3 1.1 1.6 1.8l.1.1c1.4 2.9 2.3 5.4 3 7.7 1 3.3 1.9 6.7 2.9 10 .4 1.3.3 2.5-.3 3.6-.1.1-.1.3-.2.5 0 .1-.1.2-.1.3-.5 1.2-.6 2.2-.3 3.3.4 1.5.3 3 .1 4.3v.2l-1.9 1v.1c.1.3.2.6.3.8.6 1.5.2 2.8-.1 4-.1.3-.2.5-.2.8v.2l-.1.1c-.7.6-.8 1.4-.8 2.3l-.1 1c-.1 1.4-.2 2.8-.4 4.2l-.1.7c-.1.6-.2 1.2-.3 1.7l8.7 7.4 15.7 16.7m55.4-55.2h-1.2c-1 0-1.8.3-2.4 1-.9 1-2.1 1.7-3.2 2-1 .3-1.8.9-2.5 2.1-1.3 2-2.7 3.9-4.3 5.5-1.1 1.1-2.3 1.8-3.9 2.2-.9.2-1.7.3-2.5.3-.7 0-1.4-.1-2.1-.2-3.1-.8-6.2-1.8-9.5-3.3-2.1-.9-4.3-2-6.3-3-.9-.4-1.8-.9-2.7-1.3-.6-.3-1.2-.5-1.9-.7L340 189l43.5-28.8c0-.6 0-1.3.4-2 0 0 0-.1-.1-.2-.6-1.6-.4-3 .7-4.2v-.2c.4-1.8 1.3-3.5 2.9-5.5.1-.1.1-.2.2-.3.2-.4.3-.7.3-.8-.1-.2-.4-.3-.6-.4-.6-.2-1.2-.4-1.9-.5-.3-.1-.6-.1-1-.2l-.2-.1-.1-.2c-.4-.9-1.1-1.3-2.4-1.3h-1.3m-39.3 85.8c.4-.4.8-.7 1.2-.8 1.3-.5 1.9-1.4 2.1-3v-.3c.1-1.2.3-2.5.9-3.5.5-.9 1.3-1.6 2.1-2.3.2-.2.4-.3.6-.5.8-.7 1.2-1.4 1.5-2.3.5-2 1.3-4.1 2.3-6.3.5-1.1.9-2.3 1-3.4.1-.6.3-1.2.5-1.9.1-.2.1-.4.2-.6l-.1-.1c-1.4-.5-2.3-1.6-2.7-3.3-.2-.8-.4-1.6-.5-2.4-.2-1.6-.3-3.3.9-4.8.1-.2.3-.4.4-.6.1-.2.2-.3.3-.5 1.6-2.6 3.3-4.4 5.4-5.5 2.8-1.5 5.6-2.3 8.4-2.3h.7c.7 0 1.5 0 2.2-.1.7 0 1.5-.1 2.2-.1.8 0 1.5 0 2.3.2.1-.6.1-1.2.1-1.8v-1.6c0-.6.1-1.2.4-1.8.8-1.6 1.7-3.2 3.1-4.5.8-.7 1.5-1.5 2.2-2.3l1.8-1.8c1.4-1.3 1.8-3.1 2-4.5v-.1c.2-1.3.5-2.7.2-4.1-.1-.5-.1-.9.1-1.2.1-.1.1-.2.2-.4l-43.5 28.8-14.2 9.9 15.7 29.8m-48.8-43.8c-.3 0-.7 0-1.1-.1h-.7c-.7 0-1.4.2-2.1.7-1.1.8-2.3 1.6-3.4 2.4-.8.5-1.5 1-2.3 1.6-1.7 1.2-2.2 2.8-1.6 4.8.3 1 .8 1.8 1.6 2.5 1.1 1 2.3 1.7 3.6 2 3.1.7 6 2.4 9.2 5.3l.6.6c.4.4.8.7 1.2 1.1 1.5 1.2 2.8 2.1 4.6 2.1h1.1c.7 0 1.4.3 1.8.5 1.4.7 2.5 1.5 3.4 2.4l-.4-27.8-8-6.7c-.4 1.8-1 3.5-2.1 5-1.6 2.2-2.8 3.6-5.4 3.6m17.6 54.5l16.7-2.3 8 2.9c.4-.6.6-1.2.8-1.7 1.1-3.4 3.1-6.3 4.9-8.8l-15.9-30.5-15.4-15.1.4 28c1.2 1.5 2.5 3.2 3.7 5.1.5.8.8 1.8.9 3 .2 3.6.1 6.8-.4 9.9-.5 2.8-1.2 5.9-3.1 8.7-.3.2-.5.5-.6.8m64.5-51c.2-.2.4-.4.6-.7l-.4-.3c-.1.4-.2.7-.2 1m-68 66.5l2.7-1.1.8.3c.5.2 1 .4 1.4.6 1.3.6 2.1 1.5 2.3 2.8.1.8.3 1.6.5 2.4 0 .2.1.3.3.4.1 0 .2.1.3.1h.2c1-.3 2.1-.6 3-1.3l.8-.7c.7-.6 1.4-1.2 2.1-1.7.9-.7 1.9-1.4 2.9-2.1 3.1-1.9 5.5-4.5 7-7.5.9-1.8 1.9-3.8 3.1-5.7l-7.4-2.6-17.5 2.4c0 .1-.1.2-.1.2-.3.6-.6 1.1-.9 1.7l-1.8 3c-.4.7-.9 1.4-1.3 2.2-.7 1.2-1.7 2.1-3 3-.4.2-.7.5-1 .7 0 0 0 .1.1.1l1.2.3c1.4.2 3.1.7 4.3 2.5M254.5 51.4l-.5.4-.2.2c-.8.7-1.9 1.7-2.3 3.1v.1l-.1.3.1.3v.1c.3 1.1 1 1.8 1.5 2.3.1.1.2.2.4.3.4.4.8.8 1.2 1.3.8.8 1.5 1.5 2.2 2.3 1.2 1.6 2.4 3.2 3.5 4.8l2.4 3.3c.6.8.8 1.7.6 2.7l-1.4.6-.4.2-.1.4-.1.2c-.7 2 .2 3.5 1 4.6 3 3.9 6.2 8.1 9.4 12.4 1.4 1.8 2.7 3.6 4.1 5.4l.2.3c1 1.4 2 2.7 3 4.1 1.9 2.6 3.1 5 3.7 7.5.3 1.5 1.2 2.4 1.9 3.2l.3.3c.8.8 1.6 1.6 2.3 2.5 2.3 3 4.1 5.8 5.5 8.6.3.7.5 1.3.5 1.9 0 1 .1 1.9.2 2.8.2 1.7 1 2.3 1.8 2.6.5.2.7.5 1.1 1.4l.1.2c1.9 4.2 3.2 8.7 4.4 13.1l.6 2.1c.3 1.1.3 1.8-.1 2.5-1 2-1.2 4-.6 6.1.1.3.2.6.1 1l-2.1.9-.7.3.1.7v.7c0 .4.1.7.2 1.1.2.6.4 1.1.8 1.8.3.6.2 1.3-.1 1.7-1.1 1.3-1.2 2.7-1.4 3.9l-.1 1.3c-.2 2.6-.5 5.4-1.1 8-.3 1.3-1 2.6-2 4-1 1.3-1.8 1.4-2.3 1.4h-.5c-.2 0-.4-.1-.6-.1h-1.1c-1 0-2 .3-2.9 1-2.1 1.5-4.4 3.1-7.1 5-.8.5-1.3 1.2-1.7 2.2-1.3 3-1.3 3.4-.3 6.5l.1.3c.1.3.2.7.4 1.1.2.5.5 1 .9 1.4l.1.1c1.6 1.5 3.3 3.1 5.9 3.6 2.2.5 4.4 1.6 6.6 3.5.6.5 1.3 1.1 1.9 1.7 1.1 1.1 2.3 2 4 3 1.2.7 2.2 1 3.3 1h.9c1.3 0 2.4.6 3.7 1.9 1.4 1.5 2.7 3.2 3.9 5 .4.7.6 1.4.7 2.2.2 2.9.1 5.8-.5 8.7l-.1.6c-.3 1.7-.6 3.4-1.5 4.9l-1.8 3.3c-.8 1.5-1.8 3.2-2.8 4.8l-.4.8c-1.2 2.1-2.2 3.8-4.2 4.7-.3.1-.5.3-.7.5-.5.6-1.7 1.9-1.1 3.8.7 2.3 2.2 2.8 3.3 2.9.1 0 .3.1.5.1l.3.1c1 .2 1.6.6 2.1 1.2.7.9 1.5 1.8 2.8 1.8.7 0 1.4-.3 2.4-.9.1 0 .1-.1.2-.1.2-.1.4-.1.6-.1.1 0 .2 0 .3.1.3.1.4.5.5.8.1.4.2.9.3 1.4v.1c.2 1.5.8 2.6 1.8 3.2.6.4 1.4.7 2.3.7.5 0 1-.1 1.5-.2 2-.5 3.8-1.5 5.6-3.1 1.6-1.4 3.2-2.8 5-3.7.4-.2.9-.5 1.3-.9 2.8-2.6 5.2-5.1 6.6-8.5.5-1.3 1.3-2.7 2.4-4.4.7-1 1.6-2.3 2-3.7.8-2.7 2.4-5 4.1-7.5l.1-.1c.4-.5.7-.8 1.1-1 2-.8 3.3-2.4 3.7-4.7.1-.4.1-.7.2-1.1.1-.8.2-1.6.5-2.1.4-.6 1.1-1.3 1.8-1.9.2-.2.5-.4.7-.6 1-.9 1.6-2 2-3.3.6-2.2 1.4-4.4 2.4-6.4.6-1.2.9-2.4 1-3.4.1-1 .4-1.7 1-2.2.3-.2.5-.5.6-.7.5-.7.6-1.4.5-2.1-.2-.7-.7-1.3-1.4-1.6-.3-.1-.6-.3-1-.3-1.1-.2-1.8-.6-2-2.5 0-.2-.1-.5-.1-.7 0-.4-.1-.7-.1-1v-.4c.9-1.8 1.9-3.7 3.5-5.1 2-1.7 4.5-2.7 7.2-2.9 2-.2 4-.2 6-.2-.4 1.8.7 3 1.1 3.4.7.8 1.6 1.2 2.6 1.2.7 0 1.4-.2 2-.7.7-.5 2.9-2.2 2.7-5.2v-.7l-.4-.3-1.6-1.1V184c-.1-1.3.2-2.5 1-3.5l.2-.3c.3-.5.7-.9 1.1-1.3 1.1-1.2 2.3-2.4 3.5-3.6 1.6-1.5 2.6-3.1 3.2-5 .7-2.2 1-4.3.8-6.4v-.8c.7-.8.9-1.9.5-2.9v-.8c.1-.3.1-.6.1-1 0-.6.3-2.8.4-3.2.1-.2.1-.4.2-.7.1-.3.1-.5.2-.7.3-.7.6-1.3.9-1.8.1-.2.3-.4.5-.6.3-.3.5-.6.7-1 .4-.7.7-1.4 1-2.1.5-1.4.1-2.8-1.1-3.8-1.1-.9-2.2-1.3-3.3-1.6h-.2c-.1 0-.2-.1-.3-.1-1.2-1.7-3.2-1.9-4.1-1.9h-1.7c-.9 0-1.7 0-2.4.1-1.6.1-3.1.7-4.2 1.9-.6.6-1.2 1-1.7 1.2-2.4.7-3.7 2.2-4.7 3.7s-2.3 3-3.4 4.5l-.3.4c-.5.7-1.3 1.1-2.6 1.3-.4.1-.8.1-1.2.1-1.2 0-2.3-.3-3.1-.6-3.5-1.2-7.6-2.7-11.5-4.7-.8-.4-1.5-.8-2.2-1.1-2.6-1.2-5.4-2.5-8.6-2.6-.1 0-.3-.1-.4-.1-.2-.1-.4-.1-.7-.2-.7-.1-1-.5-1.2-1.2-.2-.9-.3-1.8-.3-2.8 0-2-.3-3.9-1.1-5.8-.4-1-.8-2.1-.8-3.1 0-2-.3-4-.6-5.8-.1-.9-.3-1.8-.4-2.7-.1-.7-.2-1.4-.3-2l-.3-1.5c-.2-1.2-.8-2.1-2-2.8-1.3-.8-2.3-1.4-3.2-2.1-.6-.5-1.2-1.1-1.8-1.6-.5-.5-1.1-1-1.6-1.5-.8-.6-1.7-1.3-2.7-1.8-.4-.2-.8-.3-1.2-.3-.7 0-1.4.3-2 .7-.9.8-1.3 2-1 3.1.2.8.6 1.7 1.1 2.3 1 1.3 1.4 2.9 1.1 5-.1 1.1 0 2 .2 2.7.3 1.4 1 2.5 1.6 3.6.7 1.2.8 2.5.4 3.7 0 0-.1.1-.4.1h-.1v-.1c-.1-.3-.1-.6-.1-1 0-.2 0-.4-.1-.6-.1-.9-.4-3.7-2.8-5.1-2-1.2-4.2-2.6-7-2.6h-.7c-.7.1-1.3.1-2.1.1h-.8c1.1-1.7.7-3.4.2-4.7 0-.1-.1-.2-.1-.3-.2-.4-.4-1.2.2-2.3.1-.3.4-.6.6-1 .2-.2.4-.5.5-.7.1-.2.2-.4.4-.5.4-.6.8-1.2 1.2-1.9.8-1.7.5-3.4-.9-4.8-.7-.7-1.5-1.3-2.2-1.6-.7-.3-1.2-.8-1.5-1.6-.6-1.4-1.5-2.6-2.8-3.7-.5-.5-.8-1-.8-1.8 0-.4.1-.9.1-1.4 0-.3.1-.6.1-.9l.1-.7c.1-.7.2-1.4.2-2.1.1-1.3.1-2.7 0-4.1v-.1c0-.7 0-1.6-.4-2.4-1.2-2.7-2.5-4.9-4-6.8-.6-.7-1.3-1.2-2.2-1.6-.8-.3-1.6-.5-2.4-.5h-.7c.1-.2.2-.5.2-.7.3-1 .1-2-.5-2.8-.5-.8-1.4-1.3-2.5-1.4-.3 0-.6-.1-.9-.1l-.3-1.2-.1-.3-.3-.2-.1-.1c-1-.8-2-1.1-2.9-1.3-.2-.1-.5-.1-.7-.2-.9-.3-1.9-.6-2.8-.9l-1.4-.4c-.9-.3-1.5-.7-2-1.3-1-1.2-2.3-2-4-2.3h-.2l-.4-.1-.3.2-.6.4-.9.6c-.4.2-.6.3-.7.3-.1 0-.4-.2-.7-.5-.2-.2-.5-.4-.6-.7l-.4-.7c-.7-1.2-1.4-2.5-1.9-3.7-.5-1.1-.5-2-.1-2.8.3-.5.3-1.1.3-1.5v-.4l.1-.4.1-.8-.7-.3-.4-.1c-1.4-.6-2.7-.8-4-.8-1.2 0-2.2.2-3.3.7l-1.4-.7-.3-.3zm3.8 5.5c.3-.1.6-.3.9-.5 0 0 .1-.1.3-.1v1.9c-.3-.3-.5-.6-.8-.9l-.4-.4zm9.8 12.3c.8 0 1.5-.2 2.2-.6l1.1-.6c.1.1.2.3.4.5.9 1.1 2.1 1.9 3.6 2.4s3 1 4.6 1.5h.1c.3.1.6.2 1 .3v.1c.3 2.4.9 3 3.3 3.1h.2c0 .6-.1 1.1 0 1.7.1 1.1.6 2 1.5 2.7.7.5 1.5.8 2.4.8.2 0 .5 0 .7-.1.1 0 .3-.1.4-.1h.1c.2 0 .3-.1.5-.1.3 0 .7.1 1.1.7 1.1 1.4 2 3.1 3 5.3.1.2.1.6.1.9v3.8c0 .8-.1 1.6-.3 2.3-.4 1.5-.4 2.9-.1 4.4.3 1.6 1 2.8 2 3.7.8.7 1.5 1.5 1.9 2.5.9 1.8 2.1 3.1 3.6 3.6.4.3.6.5.7.6-.1.1-.2.4-.5.8l-.2.3c-.7.8-1.4 1.7-1.9 2.8-.9 2.2-1 4.1-.2 5.9.3.6.2.7-.1 1-.8.9-1.1 2.1-.9 3.3.2 1.3.9 2.4 1.9 3.1.5.3 1.2.5 2.1.5h1.2c1.3 0 2.4 0 3.4-.1h.3c1.6 0 3 .8 4.6 1.8.3.2.5.7.6 1.6 0 .2 0 .4.1.6 0 .5.1 1.2.3 1.8.6 2.1 2.4 3.5 4.5 3.5.5 0 1-.1 1.5-.2.7-.2 1.3-.5 2-.9.6-.4 1.1-1 1.3-1.6 1-2.9.8-5.6-.6-8.1l-.3-.6c-.1-.2-.2-.4-.3-.5-.5-1.1-.7-1.9-.5-2.7.2-1.1.1-2.2-.1-3.2.3.3.6.5.9.8.8.6 1.5 1.1 2.4 1.7.3.2.6.4.8.6.3.7.4 1.6.5 2.6 0 .4.1.8.1 1.1.1.6.2 1.3.3 1.9.3 1.9.5 3.8.5 5.6 0 1.2.3 2.5 1 4.1.7 1.5 1 3.2.9 5-.1 1.4.2 2.8.6 4.1.8 2 2.2 3.3 4.3 3.8.8.2 1.7.3 2.7.5h.4l2.4 39.8-12.9 9-15.3-14.8-.3-.3-8.3-7c.1-.4.1-.8.2-1.2l.1-.7c.2-1.4.3-2.9.4-4.3l.1-1c.1-1 .1-1.4.5-1.6l.1-.1.3-.2.1-.3v-.2c.1-.3.1-.5.2-.8.4-1.3.9-2.9.1-4.7l1.1-.6.4-.2.1-.5v-.2c.2-1.5.4-3.1-.1-4.8-.2-.9-.2-1.7.3-2.7.1-.1.1-.2.2-.4.1-.1.1-.2.1-.3.7-1.3.8-2.8.4-4.4-.9-2.9-1.8-6-2.9-10-.7-2.4-1.7-4.9-3.1-7.9l-.1-.1c-.3-.7-.8-1.7-2-2.2v-.5c.2-2.6-.8-4.7-1.9-6.6-1.6-2.8-3.5-5.5-5.1-7.8-.7-1-1.6-1.8-2.4-2.6l-.3-.3c-.6-.6-.9-1.1-1-1.7-.6-2.8-1.9-5.5-3.9-8.1-1.2-1.7-2.5-3.3-3.7-5-1.5-2-2.9-3.9-4.4-5.9-1.7-2.3-3.4-4.5-5.1-6.7l-.3-.5c-1-1.3-1.9-2.5-2.9-3.8-.1-.1-.1-.2-.2-.2.9-.8 1.5-1.9 1.5-3.5.1-1.2 0-2.7-.6-4.1 0-.3.3-.3.5-.3zm112.3 76.1h1.3c1.1 0 1.3.3 1.5.7l.1.2.2.5.5.1.2.1c.3.1.6.2 1 .2.5.1 1.1.2 1.5.4-1.7 2-2.7 3.8-3.1 5.8-1.1 1.4-1.4 3.1-.8 4.9-.2.5-.3 1-.3 1.5l-41.6 27.5-2.2-37c.1.1.3.1.4.2.9.4 1.8.9 2.7 1.3 2.1 1 4.2 2 6.4 3 3.4 1.5 6.6 2.6 9.7 3.4.7.2 1.5.3 2.3.3.9 0 1.8-.1 2.8-.3 1.7-.4 3.2-1.2 4.4-2.4 1.6-1.7 3.1-3.6 4.4-5.7.6-1 1.2-1.4 1.9-1.6 1.4-.3 2.7-1.1 3.7-2.3.4-.5.9-.7 1.7-.7h.9l.4-.1zm-53.5 55.3l13.5-9.4 41.8-27.7c.2 1.1 0 2.3-.2 3.5v.1c-.2 1.2-.6 2.8-1.7 3.9-.6.6-1.2 1.3-1.8 1.9l-2.2 2.2c-1.5 1.4-2.5 3.1-3.3 4.8-.4.7-.4 1.5-.5 2.2v2.4c-.4 0-.9-.1-1.4-.1-.8 0-1.6 0-2.3.1-.7 0-1.4.1-2.1.1h-.7c-3 0-6 .8-8.9 2.4-2.3 1.2-4.1 3.1-5.8 5.9-.1.2-.2.4-.3.5-.1.2-.2.4-.3.5-1.4 1.8-1.4 3.8-1.1 5.6.1.9.3 1.7.6 2.5.4 1.7 1.3 2.9 2.6 3.6-.2.6-.4 1.2-.5 1.9-.1 1.1-.4 2.1-.9 3.1-1.1 2.3-1.9 4.5-2.4 6.5-.2.7-.5 1.3-1.1 1.8-.2.2-.4.3-.6.5-.8.7-1.8 1.5-2.4 2.6-.7 1.2-.9 2.7-1 3.9v.3c-.2 1.4-.7 1.8-1.5 2.2-.2.1-.3.2-.5.2l-15-28zm-34.6-13.3c3.2 0 4.7-2 6.3-4.1 1-1.3 1.5-2.6 1.9-3.8l6.4 5.4.3 25.3c-.6-.4-1.2-.8-1.9-1.2-.6-.3-1.4-.6-2.3-.6h-1c-1.4 0-2.6-.9-4-1.9-.4-.3-.7-.6-1.1-1l-.6-.6c-3.3-3-6.3-4.8-9.6-5.5-1.2-.3-2.2-.8-3.2-1.7-.7-.6-1.1-1.3-1.3-2.1-.5-1.7-.2-2.7 1.2-3.7.7-.5 1.5-1 2.2-1.6 1.1-.8 2.3-1.6 3.4-2.4.5-.4 1-.5 1.5-.5h1.8zm18 25.7l-.3-25.2 13.7 13.3 15.5 29.8c-1.9 2.5-3.7 5.3-4.7 8.5-.1.2-.2.5-.3.8l-7.3-2.6-.2-.1h-.2l-14.6 2c1.6-2.7 2.2-5.6 2.6-8.1.6-3.1.7-6.4.5-10.1-.1-1.3-.4-2.4-1.1-3.4-1.2-1.8-2.4-3.5-3.6-4.9zm-.7 30.4l16.8-2.3 6 2.1c-.9 1.6-1.8 3.2-2.5 4.7-1.4 2.9-3.6 5.3-6.6 7.1-1.1.7-2.1 1.5-3 2.2-.7.6-1.4 1.2-2.1 1.7l-.8.7c-.6.5-1.4.8-2.2 1-.1-.7-.3-1.3-.4-1.9-.3-1.7-1.3-2.9-2.9-3.6l-1.5-.6-.8-.3-.4-.1-.4.2-2 .8c-1.1-1.3-2.5-1.9-3.7-2.2 1.1-.8 1.9-1.7 2.6-2.8.4-.7.8-1.4 1.2-2l.1-.1 1.8-3c.2-.6.5-1.1.8-1.6z"/><path d="M319.7 110.1c-.2 0-.3 0-.5-.1-1.1-.2-2.7-.8-3.5-2.5-.1-.3-.3-.5-.9-.7-1-.4-2.2-1.4-2.2-3.7 0-.9.3-1.6.9-2.2.2-.1.3-.4.4-.7.3-1.2 1.3-1.9 2.6-1.9s2.4.7 2.9 1.9c.6 1.4 1 2.6 1.4 3.8.1.4.3.7.5 1 1 1.3 1 2.9.1 4.2-.4.5-1 .9-1.7.9zm-3-6.7c0-.1-.1-.2-.1-.2s-.1.1-.1.2c.1-.1.2-.1.2 0z"/><path fill="#cf202f" d="M316.7 98.7c1.1 0 1.9.6 2.3 1.6.6 1.4 1 2.5 1.4 3.8.1.5.3.8.6 1.2.8 1.1.9 2.5.1 3.6-.3.4-.7.7-1.3.7h-.4c-1-.2-2.5-.7-3.1-2.2-.2-.5-.5-.8-1.1-1-1.3-.5-1.9-1.6-1.9-3.3 0-.8.2-1.4.7-1.8.2-.2.4-.5.5-.9.2-1.1 1-1.6 2.2-1.7-.1 0-.1 0 0 0m1 5.7c-.2-.7-.5-1.4-.8-2.2v-.1c-.2.3-.4.5-.6.8-.2.3-.3.5-.2.6 0 0 0 .1.2.2.5.2 1 .4 1.4.7m-1-6.7c-1.6 0-2.8.9-3.2 2.3l-.2.4c-.7.7-1.1 1.6-1 2.6 0 2.5 1.3 3.7 2.5 4.1.5.2.5.3.6.5.9 2.2 3.1 2.7 3.8 2.8.2 0 .4.1.6.1.9 0 1.6-.4 2.1-1.1 1-1.5 1-3.4-.1-4.8-.2-.3-.3-.5-.4-.9-.4-1.3-.8-2.4-1.4-3.8-.6-1.3-1.9-2.2-3.3-2.2z"/></svg>