<svg id="Layer_1" xmlns="http://www.w3.org/2000/svg" viewBox="0 0 19 21.5"><style>.st0{fill:#cf0a2c}</style><path class="st0" d="M1 1.5v4.4H0V1.5C0 .6.6 0 1.5 0h3.9c.3 0 .5.2.5.5 0 .8.6 1.5 1.4 1.5S8.8 1.4 8.8.5c0-.3.2-.5.5-.5h3.9c.8 0 1.5.6 1.5 1.5v4.4h-1V1.5c0-.3-.2-.5-.5-.5H9.7c-.2 1.1-1.2 2-2.4 2s-2.1-.9-2.4-2H1.5c-.3 0-.5.2-.5.5zm6.3 17.1h1v1h-1c-.8 0-1.5.6-1.5 1.5 0 .3-.2.5-.5.5H1.5C.6 21.5 0 20.9 0 20V6.8h1V20c0 .3.2.5.5.5H5c.2-1.1 1.1-1.9 2.3-1.9z"/><path class="st0" d="M1 5.9h1v1H1zm1.9 0h1v1h-1zm2 0h1v1h-1zm1.9 0h1v1h-1zm2 0h1v1h-1zm1.9 0h1v1h-1zm2 0h1v1h-1zM4.9 7.8h1v7.3h-1zm-2 0h1v9.8h-1zm7.8 6V8.7c0-.3-.2-.5-.5-.5s-.5.3-.5.5v5.1c-.4.2-.7.6-.7 1.2 0 .5.3 1 .8 1.2v3.2c0 .3.2.5.5.5s.5-.2.5-.5v-3.2c.4-.2.8-.6.8-1.2-.1-.6-.4-1-.9-1.2zm3.8-3.8V8.7c0-.3-.2-.5-.5-.5s-.5.2-.5.5V10c-.4.2-.8.6-.8 1.2s.3 1 .8 1.2v6.9c0 .3.2.5.5.5s.5-.2.5-.5v-6.9c.4-.2.8-.6.8-1.2s-.4-1-.8-1.2zm4.5 6.8c0-.5-.3-1-.8-1.2V8.7c0-.3-.2-.5-.5-.5s-.5.2-.5.5v6.9c-.4.2-.8.6-.8 1.2s.3 1 .8 1.2v1.3c0 .3.2.5.5.5s.5-.2.5-.5V18c.5-.2.8-.6.8-1.2z"/></svg>