<svg xmlns="http://www.w3.org/2000/svg" viewBox="0 0 35.4 20.3"><path fill="#fff" d="M17.7 12.8c-.1 0-.1.1-.1.2s.1.2.1.2h.1s.1 0 .1-.1V13c.1 0 .1-.1.1-.2s-.1-.2-.1-.2c.1 0 .1-.1.1-.2s-.1-.2-.1-.2.1-.1 0-.1-.1-.1-.1 0c-.1 0-.1.1-.1.2s.1.2.1.2c-.1 0-.1.1-.1.2-.1-.1-.1 0 0 .1 0 0 .1 0 0 0 .1 0 0 0 0 0zm2.1 0c-.1 0-.1.1-.1.2s.1.2.1.2h.1s.1 0 .1-.1V13c.1 0 .1-.1.1-.2s-.1-.2-.1-.2c.1 0 .1-.1.1-.2s-.1-.2-.1-.2.1-.1 0-.1c0 0-.1-.1-.1 0-.1 0-.1.1-.1.2s.1.2.1.2c-.1 0-.1.1-.1.2-.2-.1-.1 0 0 .1zm2 0c-.1 0-.1.1-.1.2s.1.2.1.2h.1s.1 0 .1-.1V13c.1 0 .1-.1.1-.2s-.1-.2-.1-.2c.1 0 .1-.1.1-.2s-.1-.2-.1-.2.1-.1 0-.1c0 0-.1-.1-.1 0-.1 0-.1.1-.1.2s.1.2.1.2c-.1 0-.1.1-.1.2-.1-.1-.1 0 0 .1 0 0 .1 0 0 0 .1 0 0 0 0 0zM23 14h-6.3c-.2 0-.4.2-.4.4s.2.4.4.4h.1c.2.8.7 1.5 1.4 1.9l-.7 2.9c-.1.2.1.5.3.5h.1c.1 0 .2 0 .2-.1.1-.1.2-.2.2-.3l.2-1H21l.2 1c0 .1.1.2.2.3.1 0 .1.1.2.1h.1c.1 0 .2-.1.3-.2.1-.1.1-.2.1-.3l-.7-2.9c.7-.4 1.2-1.1 1.4-1.9h.2c.2 0 .4-.2.4-.4s-.2-.4-.4-.4zm-4.3 4.7l.3-1.5c.3.1.5.1.8.1.3 0 .6 0 .8-.1l.3 1.5h-2.2zm13-2.7c-.2-.2-.4-.2-.8-.2-.1 0-.2 0-.2-.1-.1-.3.2-1 .4-1.3v-.1c0-.1.2-.7 0-1.1-.1-.2-.3-.3-.6-.3s-.5.1-.8.2c-.4.2-.9.3-1.3.4-.4 0-.8-.2-1.2-.4-.2-.1-.5-.2-.7-.2-.2 0-.4.1-.6.3-.3.4-.1 1 0 1.1v.1c.1.2.5.9.4 1.3 0 .1-.1.1-.2.1-.4-.1-.6 0-.8.2-.1.1-.2.3-.1.5s.2.3.4.4l.4 2.7c0 .3.2.5.5.6.1 0 .2.1.3.1.2 0 .3-.1.5-.2l1.3-1.1 1.3 1.1c.1.1.3.2.5.2.1 0 .2 0 .3-.1.3-.1.4-.3.5-.6l.4-2.7c.2-.1.3-.2.4-.4-.1-.2-.1-.4-.3-.5zm-1.6 1.1l-1.5 1.2-1.5-1.2c.4 0 .9.1 1.5.1s1.1 0 1.5-.1zm-3 2.5c-.1.1-.3.1-.4 0 0 0-.1-.1-.1-.2l-.4-2.4h.1l2 1.6-1.2 1zm3.6-.2c0 .2-.2.3-.4.3-.1 0-.1 0-.2-.1l-1.2-1 2-1.6h.1l-.3 2.4zM35 9h-2.3l-2-1-1-4-3-2-7.1-2h-2.9l-2 1h-2l-7 2-3 6H.4c-.2 0-.4.2-.4.4v.2c0 .2.2.4.4.4H35c.2 0 .4-.2.4-.4v-.2c0-.2-.2-.4-.4-.4zM6.4 3.8L12.8 2h2.1l2-1h2.5l6.8 1.9 2.5 1.7 1 4.1.8.3h-2.8v-.1l-2.1-4.1-.9.4L26.6 9h-8.4l2.9-5.8-.9-.4-3.1 6.1V9h-3.4l1.9-3.8-.9-.4-2.1 4.1V9H8.8l1.9-3.8-1-.4-2 4.1V9H3.8l2.6-5.2z"/></svg>