<svg xmlns="http://www.w3.org/2000/svg" viewBox="0 0 200 105"><path d="M138.6 27.2h-24.3v-5.6c0-3.1-2.5-5.6-5.6-5.6H90c-3.1 0-5.6 2.5-5.6 5.6v5.6H60c-5.2 0-9.4 4.2-9.4 9.4v48.7c0 5.2 4.2 9.4 9.4 9.4h78.6c5.2 0 9.4-4.2 9.4-9.4V36.6c0-5.2-4.2-9.4-9.4-9.4zm-9.3 17.7l6.7 6.7-6.7 6.7V44.9zM118.1 68c-1.1-.6-2.4-1-3.7-1-4.1 0-7.5 3.4-7.5 7.5s3.4 7.5 7.5 7.5c1.4 0 2.6-.4 3.7-1v10H80.6v-3.7H90c1 0 1.9-.8 1.9-1.9v-7.5c0-1-.8-1.9-1.9-1.9h-9.4V57.1H93c.6 0 1.2-.3 1.6-.9.3-.5.4-1.2.1-1.8l-6.8-14.3c-.6-1.3-2.8-1.3-3.4 0l-3.9 8.1V31H118v37zm0 6.4c0 2.1-1.7 3.7-3.7 3.7s-3.7-1.7-3.7-3.7 1.7-3.7 3.7-3.7 3.7 1.7 3.7 3.7zm-37.5 5.2h7.5v3.7h-7.5v-3.7zm1.7-26.2l3.9-8.1 3.9 8.1h-7.8zm5.8-31.7c0-1 .8-1.9 1.9-1.9h18.7c1 0 1.9.8 1.9 1.9v5.5H88.1v-5.5zM69.4 72.2h-7.5v-7.5h7.5v7.5zm-15 13.1V36.6c0-3.1 2.5-5.6 5.6-5.6h9.4v29.9H60c-1 0-1.9.8-1.9 1.9V74c0 1 .8 1.9 1.9 1.9h9.4v15H60c-3.1 0-5.6-2.5-5.6-5.6zm18.7 5.6V31h3.7v59.9h-3.7zm48.7 0V31h3.7v59.9h-3.7zm22.5-5.6c0 3.1-2.5 5.6-5.6 5.6h-9.4V63.5s.1 0 .1-.1L140 52.9c.7-.7.7-1.9 0-2.6l-10.6-10.6s-.1 0-.1-.1V31h9.4c3.1 0 5.6 2.5 5.6 5.6v48.7z" fill="#da1f26"/></svg>