<svg xmlns="http://www.w3.org/2000/svg" viewBox="0 0 150 115.2"><path fill="#fff" d="M0 55.1h150v4H0zm28-41.6v10.4h16V13.5H28zm12 6.3h-8v-2.4h8v2.4zm31.7 25.9h4.9v5.4h4v-5.4h4.9v5.4h4v-5.4h4.9v5.4h4v-5.4h4.9v5.4h4v-5.4h4.9v5.4h4v-5.4h4.9v5.4h4v-5.4h5v5.4h4v-5.4h4.9v5.4h4V36.3h-4v5.4h-4.9v-5.4h-4v5.4h-5v-5.4h-4v5.4h-4.9v-5.4h-4v5.4h-4.9v-5.4h-4v5.4h-4.9v-5.4h-4v5.4h-4.9v-5.4h-4v5.4h-4.9v-5.4h-4v5.4h-4.9v-5.4h-4v14.8h4z"/><path fill="#fff" d="M11 28.5C11 15 22 4 35.5 4S60 15 60 28.5v22.7h4V28.5C64 12.8 51.2 0 35.5 0S7 12.8 7 28.5v22.7h4V28.5z"/><path fill="#fff" d="M23.3 51.1h6.9l5.4-5.3 5.3 5.3h6.8v-20H23.3v20zm20.4-2.8L38.5 43l5.2-5.1v10.4zm-2.9-13.2l-5.2 5.1-5-5.1h10.2zm-13.5 2.3l5.5 5.5-5.5 5.4V37.4zm105.4 70l-4.7 3.4H75.2l-4.3-1-3.7.8-4.6-3.2-4.7 3.4h-7.2l-4.6-2.2-3.7 1.8-4.5-4.3-4.9 4.7h-7l-4.6-2.2-4.6 2.2-16.8-.2v4l17.7.2 3.7-1.8 3.7 1.8h9.5l3.3-3.2 3.7 3.6 4.5-2.2 3.7 1.8h9.3l3.5-2.5 3.7 2.6 4.6-1 3.9.9h54.4l3.5-2.5 3.5 2.5H150v-4h-12.5z"/><path fill="#fff" d="M124.6 106.8V98l1.7-2.1h4.6c1.3 1.7 2.9 3.2 4.7 4.3l1.2.7c.6.4 1.3.5 2 .3l2.4-.7c1.1-.3 1.8-1.4 1.7-2.5l-.2-12.4c0-1.3-.9-2.4-2.1-2.8l-5.7-1.7-8.8-7.5c-1.2-1-2.7-1.5-4.2-1.5H87.1c-3.3 0-6 2.7-6 6v13.7h4V78.1c0-1.1.9-2 2-2h.1V83c0 .8.1 1.6.3 2.4l1.3 4.6-2.1 6.3c-.1.4-.2.8-.2 1.2v9.3h4v-5.5l3.9-2.1 2.8 7.6h4.3L98 97.3l2.8-1.5h14.4l-1.3 11h4l1.2-9.7 1.6.9v8.8h3.9zm-6.6-15H99.8l-8.9 4.8 2.2-6.5-1.6-5.8c-.1-.4-.2-.8-.2-1.3v-6.9H122c.6 0 1.1.2 1.6.6l9.5 8 5.8 1.7.2 10.6-.6.2-.6-.4c-1.6-1-3-2.4-4-4l-.6-.9h-8.6l-2 2.5-4.7-2.6z"/></svg>