<svg xmlns="http://www.w3.org/2000/svg" viewBox="0 0 87 87"><path fill="#DA1F26" d="M43.5 42.6c6.7 0 12.1-5.4 12.1-12.1s-5.4-12.1-12.1-12.1-12.1 5.4-12.1 12.1 5.4 12.1 12.1 12.1zm0-18.2c3.4 0 6.1 2.7 6.1 6.1s-2.7 6.1-6.1 6.1-6.1-2.7-6.1-6.1 2.7-6.1 6.1-6.1z"/><path fill="#DA1F26" d="M86.5 43.5c0-23.7-19.3-43-43-43s-43 19.3-43 43 19.3 43 43 43c9.6 0 18.5-3.2 25.7-8.5.2-.1.4-.3.5-.4 10.2-7.9 16.8-20.3 16.8-34.1zm-80 0c0-20.4 16.6-37 37-37s37 16.6 37 37c0 9.8-3.9 18.8-10.1 25.4-2-13.3-13.6-23.4-27.4-23.1-13.5.3-24.5 10.3-26.3 23.1-6.3-6.6-10.2-15.6-10.2-25.4zm15.9 30.4v-1.3c.2-11.7 9.9-21 21.6-20.7 11.7.2 21 9.9 20.7 21.6v.3c-6 4.2-13.3 6.7-21.2 6.7-7.8 0-15.1-2.5-21.1-6.6z"/></svg>