<svg xmlns="http://www.w3.org/2000/svg" viewBox="0 0 14 14"><path d="M12.8 9.3L10.3 8c-.5-.2-1.2-.1-1.6.4l-.6.9c-.7-.4-1.2-.8-1.9-1.5S5.1 6.6 4.7 5.9l.8-.7c.5-.4.6-1 .4-1.6L4.7 1.2C4.5.9 4.2.6 3.9.5c-.4-.1-.7 0-1 .2l-1.6 1c-.6.4-.8 1-.8 1.6 0 .6.1 1.1.2 1.5.5 1.8 1.6 3.7 3.2 5.3 1.6 1.6 3.5 2.7 5.3 3.2.4.1.9.2 1.5.2h.1c.6 0 1.1-.3 1.4-.8l1-1.6c.2-.3.2-.7.2-1 0-.3-.3-.6-.6-.8zm-.3 1.4l-1 1.6c-.2.2-.4.4-.7.4-.6 0-1-.1-1.3-.2-1.7-.4-3.4-1.5-4.9-3-1.5-1.5-2.6-3.3-3-5-.1-.2-.1-.7-.2-1.3 0-.3.1-.5.3-.7l1.6-1c.1 0 .1-.1.2-.1h.1c.1 0 .2.1.2.2l1.3 2.5c.1.2 0 .3-.1.4L3.6 5.7l.2.3c.5.9.9 1.6 1.8 2.5.8.8 1.6 1.3 2.4 1.8l.3.2L9.5 9c.1-.2.3-.2.5-.1l2.5 1.3c.1 0 .2.1.2.2-.1.1-.1.2-.2.3z" fill="#fff" stroke="#fff" stroke-miterlimit="10"/></svg>