<svg xmlns="http://www.w3.org/2000/svg" viewBox="0 0 30 15.3"><path fill="#fff" d="M27 8.3l-7-2h-2l-2-1h-2.9l-1.9.5C10.9 4.2 9.5 3 7.9 3 6 3.1 4.4 4.6 4.4 6.5c0 .6.2 1.1.4 1.6l-.8.6c-.1-.1-.2-.2-.3-.2-.1 0-.2 0-.3.1l-1 .6c-.2.1-.3.4-.2.6.1.2.3.3.4.3h.1L2 13.3l-2 1v1h30v-1l-3-6zM5.4 6.5c0-1.3 1.1-2.4 2.4-2.4 1.2 0 2.2.9 2.3 2L6 7.3l-.3.2c-.2-.3-.3-.6-.3-1zM25 14.3v-.1l-2.1-4.1-.9.4 1.9 3.8H20v-.1l-2.1-4.1-.9.4 1.9 3.8h-3.4v-.1l-3.1-6.1-.9.4 2.9 5.8H6.1L8 10.5l-.9-.4L5 14.2v.1H2.2l.7-.3 1-4.1 2.5-1.7 6.8-1.9h2.5l2 1h2.1l6.4 1.8 2.6 5.2H25zM10 2.7c.1 0 .2.1.3.1.2 0 .3-.1.4-.3l.6-1c0-.2 0-.5-.3-.7-.1 0-.2-.1-.3-.1-.2 0-.3.1-.4.3l-.5 1c-.2.2-.1.5.2.7z"/><path fill="#fff" d="M12 4.5c.1 0 .2 0 .3-.1l1-.6c.2-.1.3-.4.2-.7-.2-.1-.3-.2-.5-.2-.1 0-.2 0-.3.1l-1 .6c-.2.1-.3.4-.2.7.2.1.3.2.5.2zM7.8 2.1c.3 0 .5-.2.5-.5V.5C8.3.2 8 0 7.8 0c-.3 0-.5.2-.5.5v1.1c0 .3.2.5.5.5zm-2.9.5c.1.1.3.2.4.2.1 0 .2 0 .3-.1.2-.1.3-.4.2-.7l-.6-1C5.1.9 5 .8 4.8.8c-.1 0-.2 0-.3.1-.2.1-.3.5-.2.7l.6 1zM1.8 7.1H3c.3 0 .5-.2.5-.5s-.2-.5-.5-.5H1.8c-.3 0-.5.2-.5.5 0 .2.3.5.5.5zM2.4 4l1 .6c.1 0 .2.1.3.1.2 0 .3-.1.4-.3.1-.2.1-.6-.2-.7l-1-.6c-.1 0-.2-.1-.2-.1-.2 0-.4.1-.5.3-.2.3-.1.6.2.7z"/></svg>