<svg xmlns="http://www.w3.org/2000/svg" viewBox="0 0 200 105"><path d="M112.3 40.9c1.3-1.5 2.5-2.7 3.9-4.2 7.6 6.7 13.1 14.3 12.8 24.9-.4 14.4-11 26.6-24.9 28.6-14.6 2-28.3-6.4-32.6-20.5-3.2-10.6-1.1-20.3 6.4-28.4C84.7 34 92.2 27.2 99.5 20c1.5 1.8 2.7 3.2 3.7 4.4-6.9 6.7-13.7 13.3-20.4 20-7.3 7.3-9 17.6-4.7 26.8 4.1 8.9 13.5 14.3 23.7 13.5 10.1-.8 19.1-9 21.1-18.9 2-9.7-2.2-16.8-8.7-23.2-.6-.6-1.2-1-1.9-1.7z" fill="#da1f27"/><path d="M104.6 48.7c1.3-1.3 2.5-2.4 3.6-3.5 9.9 7.9 11.4 16.9 6.3 25.2-5.3 8.7-16.9 11-25.2 5.2-8.7-6.1-10.7-17.6-3.6-25.9 6.7-7.6 14.4-14.3 21.8-21.6 1.4 1.6 2.5 2.9 4.1 4.7-.7.3-1.3.5-1.8 1-6.1 5.8-12.2 11.5-18.2 17.3-5.2 5.1-6.1 10.8-2.8 16.1 2.9 4.7 8.8 7 14 5.4 5.5-1.6 9.4-6.8 8.8-12.3-.3-2.3-1.6-4.6-2.8-6.7-.9-1.7-2.6-3.1-4.2-4.9z" opacity=".9" fill="#da1f27"/><path d="M106.4 60.8c-.1 4-3 6.8-7 6.7-3.9-.1-6.9-3.3-6.8-7.3.1-3.7 3.2-6.6 7-6.5 4.2 0 6.9 2.9 6.8 7.1z" opacity=".7" fill="#da1f27"/></svg>