<svg xmlns="http://www.w3.org/2000/svg" viewBox="0 0 90 68"><path d="M21 .038c-6.3 0-12 4.7-12 11v16.2c-2.9 1.5-5 4.3-5 7.8v5H2.7c-1.5.2-2.7 1.5-2.7 3v12c0 1.7 1.3 3 3 3h1v7c0 1.7 1.3 3 3 3h10c1.7 0 3-1.3 3-3v-7h50v7c0 1.7 1.3 3 3 3h10c1.7 0 3-1.3 3-3v-7h1c1.7 0 3-1.3 3-3v-12c0-1.7-1.3-3-3-3h-1v-5c0-3.5-2.1-6.2-5-7.8v-16.2c0-6.3-5.7-11-12-11H21zm0 6h48c3.4 0 6 2.4 6 5v15h-5.5c.3-.9.5-2 .5-3v-2c0-4.9-4.1-9-9-9H51c-2.3 0-4.4.9-6 2.3-1.6-1.4-3.7-2.3-6-2.3H29c-4.9 0-9 4.1-9 9v2c0 1 .2 2.1.5 3H15v-15c0-2.6 2.6-5 6-5zm8 12h10c1.7 0 3 1.3 3 3v2c0 1.7-1.3 3-3 3H29c-1.7 0-3-1.3-3-3v-2c0-1.8 1.3-3 3-3zm22 0h10c1.7 0 3 1.3 3 3v2c0 1.7-1.3 3-3 3H51c-1.7 0-3-1.3-3-3v-2c0-1.8 1.3-3 3-3zm-37 14h62c2.3 0 4 1.7 4 3v5H10v-5c0-1.4 1.7-3 4-3zm-8 14h78v6H6v-6zm4 12h4v4h-4v-4zm66 0h4v4h-4v-4z" fill="#4e5356"/></svg>