<svg xmlns="http://www.w3.org/2000/svg" viewBox="0 0 80 90"><path fill="#4e5356" d="M65.8 67.6h-3.1v-3.3c-.1-1.7-1.5-2.9-3.2-2.8s-2.9 1.5-2.8 3.2v3h-3.2c-1.7.1-2.9 1.5-2.8 3.2.1 1.7 1.5 2.9 3.2 2.8h2.9v3c0 1.7 1.3 3 3 3s3-1.3 3-3v-3.1h3.1c1.7 0 3-1.3 3-3-.1-1.6-1.4-2.9-3.1-3z"/><path fill="#4e5356" d="M60 50h-.1l-.6-2.9L77 31.2c1.2-1.1 1.3-3 .2-4.2-.5-.5-1.2-.9-1.9-1L51 23.2 41.8 1.8C41.3.7 40.2 0 38.9 0c-1.1 0-2.2.7-2.6 1.8L27 23.2 2.7 26C1 26.2-.2 27.7 0 29.3c.1.7.4 1.4 1 1.9l17.7 15.9L14 70.4c-.3 1.6.7 3.2 2.4 3.5.7.1 1.5 0 2.1-.4l20.5-12 2.3 1.4c-.8 2.2-1.3 4.6-1.3 7.1 0 11 9 20 20 20s20-9 20-20-9-20-20-20zm-15.7 7.7l-3.8-2.2c-.9-.6-2.1-.6-3.1 0L21.3 65 25 46.6c.2-1-.2-2.1-.9-2.8L10 31.2 29.3 29c1.1-.1 2-.8 2.4-1.8L39 10.5l7.2 16.7c.4 1 1.3 1.7 2.4 1.8L68 31.2 54 43.8c-.8.7-1.1 1.8-.9 2.8L54 51c-3.9 1.2-7.2 3.6-9.7 6.7zM60 84c-7.8 0-14-6.2-14-14s6.2-14 14-14 14 6.2 14 14-6.2 14-14 14z"/></svg>