<svg xmlns="http://www.w3.org/2000/svg" viewBox="0 0 232.1 298.5"><path d="M226.9 96c-6.5-10.3-17.5-17.3-21-29.8-.7-2.7-1.2-7.2-4.9-7-5.4.3-3.4 5-3.3 8.2.2 4.3-3.2 5.9-5.7 8.3-15.3 15.2-32.7 13.9-51.5 7.6-29.2-9.7-58.8-14.2-88.3-.4-6.5 1.2-11.7 9-17.7 8.3C1.1 87.3 40.1 53 46.9 48.3c21.6-8.1 43.9-8.7 66.4-5.8 15 2.1 29.4 6.8 44.1 10.9-9.2-11.3-23.1-13-34.8-18.8-28.4-12.2-56.3-13.1-83.8 2.6-6.5 1.9-11.6 6.2-16.7 10.4-29.3 24.4-29.7 45.8-.5 70.5 7.1 6 10.1 13.4 14 20.9 3.2 9.5 14.2 14.8 14 26.1-6.6 12.9-17.8 21.6-28.3 31-5 4.4-6.6 9-5 15.1 4.8 18.3 12.2 36.8-6.6 55.8 22.5-9 26.5-14.6 21.6-34-3.6-14.1.2-23.8 10.6-32.4 5.7-4.8 11.4-9.7 16.9-14.7 6.7-6.1 40.4-41.5 41.5-44.1 16.2 0 32.5-.5 48.4-3.9 7-1.5 9.5 1.3 11.1 7 2.7 9.6 6.3 19.1 1.6 29.2-1.2 2.7-2.7 6.2 1.6 7.7 5.2 1.8 3.7-4.3 6-6.2 1.3-1.1.2-4.9.1-7.5-.3-10.9-.1-21.8 5.5-31.7 8.1-5 12.1-13.5 16.6-21.2 9.6-16.2 9.4-16.6 25.5-7.2 4.7 2.7 8.6 4.8 12.6-.3 3.5-4.8.1-7.9-2.4-11.7z" fill="#f36f21"/></svg>