<svg xmlns="http://www.w3.org/2000/svg" viewBox="0 0 232.1 298.5"><path d="M178.3 82.7c.5 2.6-.3 5-1.3 7.3-9.2 21.1-20.9 40.6-39.3 55-9.5 7.5-20 13.1-32.4 14.1-4.7.4-8.2-1.3-10.4-5.4-2.5-4.7-2-9.7-.3-14.5.5-1.4 1.7-1.4 2.9-.6 10.3 6.4 19.5 2.7 28.3-3.1 14.2-9.4 25.6-21.6 35.4-35.4 4.6-6.5 8.7-13.4 16-17.3.4-.1.7-.1 1.1-.1z" fill="#febf00"/><path d="M5 184.8c2.2-6.2 5-11.6 8.3-16.7 21.3-33 51.9-53 89.1-63.8 2.4-.7 5-.8 7.4-.4 2.9.4 5.6 1.6 6.3 4.8.6 3.1.7 6.4-2.1 8.8-2.5 2.1-5.3 3.9-7.3 6.7-1.3 1.8-3.7 1.4-5.6.8-4.1-1.1-7.8-.2-11.6 1.2-23.5 8.6-45.8 19.1-63.7 37.1-5.7 5.8-11 12.1-16.5 18.1-1.1 1.2-1.8 2.9-4.3 3.4z" fill="#003d8e"/><path d="M182.8 99.7c-1.5-1.8-2.6-1.4-4 .2-4.2 4.8-4.9 11.7-.5 17.5 5.8 7.7 5.1 15.5 1.4 23.5-7.7 16.3-19.5 29.6-32.5 41.9-10.1 8.9-25.3 23.7-35.6 32.7.8.1 1.4.4 1.9.2 11.5-4.3 23.8-10 33.4-17.7 8.6-4.4 15.4-11.1 23.3-16.5l5.5-5.6c8.6-6.6 15.8-14.3 19.2-24.8 6.3-19.5.6-36.3-12.1-51.4z" fill="#a1c949"/></svg>