<svg xmlns="http://www.w3.org/2000/svg" viewBox="0 0 232.1 298.5"><path d="M119.2 9.8L134.5 0l8.3 16.1 18.2-.8-.9 18.1 16.1 8.3-9.7 15.3 9.7 15.3-16.1 8.3.9 18.1-18.2-.8-8.3 16.1-15.3-9.8L104 114l-8.4-16.1-18.1.8.9-18.1-16.2-8.3L72 57l-9.8-15.3 16.2-8.3-.9-18.1 18.1.8L104 0zm1.3 209.2l11.7-7.5 6.4 12.3 13.8-.6-.7 13.8 12.3 6.3-7.4 11.7 7.4 11.7-12.3 6.3.7 13.8-13.8-.6-6.4 12.3-11.7-7.5-11.6 7.5-6.4-12.3-13.8.6.6-13.8-12.3-6.3 7.5-11.7-7.5-11.7 12.3-6.3-.6-13.8 13.8.6 6.4-12.3zM36.7 111.9l9.9-6.3 5.3 10.4 11.7-.6-.6 11.7 10.4 5.4-6.3 9.8 6.3 9.9-10.4 5.3.6 11.7-11.7-.5-5.3 10.3-9.9-6.3-9.8 6.3-5.4-10.3-11.7.5.6-11.7L0 152.2l6.3-9.9-6.3-9.8 10.4-5.4-.6-11.7 11.7.6 5.4-10.4zm161.4 2.1l9.1-5.9 5 9.6 10.8-.5-.5 10.9 9.6 4.9-5.8 9.2 5.8 9.1-9.6 5 .5 10.8-10.8-.5-5 9.6-9.1-5.8-9.1 5.8-5-9.6-10.8.5.5-10.8-9.7-5 5.9-9.1-5.9-9.2 9.7-4.9-.5-10.9 10.8.5 5-9.6z" fill="#165d9d"/></svg>