<svg id="Layer_2" xmlns="http://www.w3.org/2000/svg" viewBox="0 0 232.1 298.5"><style>.st0{fill:#ac8b73}</style><path class="st0" d="M232.1 164s-17.8-96.9-81.8-104.1-60.5 13.4-64.9 28.5c0 0 7.1 39.1 46.2 38.2 0 0 54.3-8.9 68.5 8.9 0 .1 32 23.2 32 28.5zm-2.6 50.7s-6.2-68.5-49.8-72.9c0 0-40-12.5-94.3 11.6 0 0-36.5 8-36.5-6.2 0 0-9.8-30.2 9.8-35.6 0 0-57.8-8.9-58.7 63.1 0 0 16.4 46.6 56.9 36.5 41.9-10.5 121.9-50.7 172.6 3.5z"/><path class="st0" d="M77.1 243.2s31.4-33.8 55.7-37.4c0 0-55.1 7.7-64.6 18.4-10 2.4-11.4 24.3 8.9 19z"/></svg>