<svg id="Layer_1" data-name="Layer 1" xmlns="http://www.w3.org/2000/svg" viewBox="0 0 72.79 93.5"><defs><style>.cls-1{fill:#16ad76}</style></defs><path class="cls-1" d="M48 72.58a7.76 7.76 0 0 1-2.39.36 17.79 17.79 0 0 1-5.27-1.08 14.82 14.82 0 0 0-3.95-.86 14.75 14.75 0 0 0-3.91.87 17.86 17.86 0 0 1-5.27 1.08 7.83 7.83 0 0 1-2.4-.36c-2.7-.88-4.39-3.13-5.87-5.13v24.7c0 1.34.86 1.75 1.9.92l13.65-10.92a3.18 3.18 0 0 1 3.8 0l13.65 10.91c1.05.83 1.91.42 1.91-.92V67.44c-1.49 2.01-3.17 4.26-5.85 5.14z"/><path d="M54.9 60.41c2.82-2 7.68-2.15 9.72-5s.64-7.43 1.73-10.77 4.94-6.16 4.94-9.74-3.89-6.5-4.94-9.73.3-8-1.73-10.78-6.9-2.91-9.72-5-4.37-6.63-7.72-7.72a5.09 5.09 0 0 0-1.6-.24c-2.89 0-6.18 2-9.19 2S30.1 1.5 27.21 1.5a5 5 0 0 0-1.6.24c-3.35 1.08-4.94 5.69-7.72 7.72s-7.68 2.14-9.73 5-.64 7.39-1.72 10.74-4.94 6.15-4.94 9.73 3.89 6.5 4.94 9.74-.31 8 1.72 10.77 6.91 2.92 9.72 5 4.38 6.63 7.73 7.71a5 5 0 0 0 1.6.24c2.89 0 6.18-1.94 9.18-1.94s6.3 1.94 9.19 1.94a5.09 5.09 0 0 0 1.6-.24c3.35-1.15 4.93-5.71 7.72-7.74zm-18.51 3.35a28.83 28.83 0 1 1 28.83-28.83 28.83 28.83 0 0 1-28.83 28.83z" stroke="#16ad76" stroke-miterlimit="10" stroke-width="3" fill="#16ad76"/><path class="cls-1" d="M43.28 35.21a31.81 31.81 0 0 0-4.42-2.45c-1.51-.69-2.94-1.38-4.27-2a19.41 19.41 0 0 1-3.17-2 2.45 2.45 0 0 1-1-1.82 3.48 3.48 0 0 1 .44-1.84 3.85 3.85 0 0 1 1.22-1.35 5.66 5.66 0 0 1 1.87-.8 10.21 10.21 0 0 1 2.38-.27 6.08 6.08 0 0 1 2.35.46 6 6 0 0 1 1.91 1.28 6 6 0 0 1 1.74 4.27.94.94 0 0 0 .3.71 1 1 0 0 0 .71.17l4.21-.57s.55-.07.68-.22.08-.66.08-.66a10.85 10.85 0 0 0-.94-4.54A11.46 11.46 0 0 0 44.82 20 11.88 11.88 0 0 0 41 17.57a13.08 13.08 0 0 0-1.38-.45v-3a2.52 2.52 0 0 0-2.51-2.52h-1.43a2.52 2.52 0 0 0-2.51 2.52V17c-.47.1-.93.21-1.37.35a11.43 11.43 0 0 0-3.8 1.97 9.46 9.46 0 0 0-2.6 3.24 10 10 0 0 0-1 4.47 7 7 0 0 0 1.6 4.45 14.55 14.55 0 0 0 3.51 3.18 33.2 33.2 0 0 0 4.43 2.43c1.54.69 3 1.38 4.28 2a18.9 18.9 0 0 1 3.15 2 2.6 2.6 0 0 1 1 1.92 3.27 3.27 0 0 1-.43 1.75 3.66 3.66 0 0 1-1.19 1.34 5.24 5.24 0 0 1-1.88.8 11.08 11.08 0 0 1-2.5.27 5.46 5.46 0 0 1-2.22-.47 6.53 6.53 0 0 1-3.22-3.22 5.46 5.46 0 0 1-.47-2.22.81.81 0 0 0-.28-.69.86.86 0 0 0-.71-.19l-4.19.48s-.56 0-.69.19-.1.69-.1.69a11.14 11.14 0 0 0 .94 4.56A11.39 11.39 0 0 0 28 49.94a12.11 12.11 0 0 0 3.77 2.37 11.32 11.32 0 0 0 1.43.45v3a2.52 2.52 0 0 0 2.51 2.51h1.43a2.52 2.52 0 0 0 2.51-2.51v-2.93c.44-.09.88-.2 1.31-.33a11.4 11.4 0 0 0 3.83-2 9.63 9.63 0 0 0 2.6-3.26 10.08 10.08 0 0 0 1-4.46 6.89 6.89 0 0 0-1.51-4.42 14.84 14.84 0 0 0-3.6-3.15z"/></svg>